<svg height="512pt" viewBox="-6 0 512 512.00213" width="512pt" xmlns="http://www.w3.org/2000/svg"><path d="m213.746094 512.003906c-2.261719 0-4.441406-.898437-6.035156-2.503906l-205.207032-205.214844c-3.320312-3.320312-3.339844-8.699218-.035156-12.035156l252.382812-255.570312c1.605469-1.621094 3.792969-2.535157 6.070313-2.535157h196.324219c4.710937 0 8.535156 3.824219 8.535156 8.535157v204.859374c0 2.195313-.847656 4.292969-2.347656 5.882813l-243.5 255.925781c-1.589844 1.664063-3.78125 2.621094-6.078125 2.65625-.035157 0-.078125 0-.109375 0zm-193.183594-213.789062 193.027344 193.027344 235.117187-247.117188v-192.910156h-184.21875zm0 0"/><path d="m371.886719 136.574219c-2.183594 0-4.371094-.835938-6.035157-2.5-3.335937-3.339844-3.335937-8.734375 0-12.070313l119.5-119.5c3.339844-3.339844 8.734376-3.339844 12.070313 0 3.335937 3.335938 3.335937 8.730469 0 12.070313l-119.5 119.5c-1.664063 1.664062-3.851563 2.5-6.035156 2.5zm0 0"/><path d="m371.886719 170.71875c-23.53125 0-42.679688-19.148438-42.679688-42.679688 0-23.535156 19.148438-42.679687 42.679688-42.679687s42.679687 19.144531 42.679687 42.679687c0 23.53125-19.148437 42.679688-42.679687 42.679688zm0-68.289062c-14.117188 0-25.605469 11.492187-25.605469 25.609374 0 14.117188 11.488281 25.605469 25.605469 25.605469 14.117187 0 25.605469-11.488281 25.605469-25.605469 0-14.117187-11.488282-25.609374-25.605469-25.609374zm0 0"/><path d="m151.554688 375.429688c-4.578126 0-8.359376-3.628907-8.527344-8.226563l-1.519532-42.6875c-1.296874-36.449219 11.675782-71.222656 36.53125-97.90625 24.855469-26.691406 58.617188-42.105469 95.0625-43.394531l42.6875-1.519532c4.917969-.179687 8.664063 3.523438 8.835938 8.226563l1.519531 42.6875c1.296875 36.449219-11.679687 71.222656-36.535156 97.90625-24.855469 26.691406-58.613281 42.105469-95.0625 43.394531l-42.6875 1.519532c-.101563 0-.203125 0-.304687 0zm156.3125-176.382813-34.148438 1.222656c-65.828125 2.335938-117.488281 57.800781-115.140625 123.628907l1.210937 34.160156 34.152344-1.21875c65.828125-2.339844 117.488282-57.804688 115.140625-123.632813zm0 0"/><path d="m151.554688 375.429688c-1.972657 0-3.960938-.683594-5.574219-2.082032-3.570313-3.082031-3.960938-8.476562-.878907-12.035156l106.644532-123.367188c3.082031-3.570312 8.46875-3.96875 12.035156-.878906 3.566406 3.082032 3.960938 8.476563.878906 12.035156l-106.644531 123.375c-1.691406 1.953126-4.070313 2.953126-6.460937 2.953126zm0 0"/><path d="m259.726562 294.707031c-2.082031 0-4.171874-.757812-5.820312-2.289062l-21.261719-19.800781c-3.449219-3.210938-3.644531-8.613282-.429687-12.070313 3.226562-3.449219 8.613281-3.636719 12.070312-.425781l21.261719 19.800781c3.449219 3.210937 3.644531 8.613281.429687 12.070313-1.691406 1.800781-3.96875 2.714843-6.25 2.714843zm0 0"/><path d="m218.703125 297.753906c-2.082031 0-4.171875-.757812-5.820313-2.285156l-19.308593-17.976562c-3.449219-3.210938-3.644531-8.613282-.425781-12.070313 3.21875-3.449219 8.621093-3.636719 12.070312-.425781l19.308594 17.976562c3.445312 3.207032 3.644531 8.609375.425781 12.066406-1.683594 1.800782-3.960937 2.714844-6.25 2.714844zm0 0"/><path d="m218.59375 338.878906c-2.082031 0-4.175781-.757812-5.820312-2.285156l-19.632813-18.285156c-3.449219-3.210938-3.644531-8.613282-.429687-12.070313 3.226562-3.449219 8.613281-3.625 12.070312-.425781l19.632812 18.285156c3.449219 3.207032 3.644532 8.609375.425782 12.066406-1.6875 1.800782-3.96875 2.714844-6.246094 2.714844zm0 0"/></svg>