<svg height="512pt" viewBox="0 0 512 512" width="512pt" xmlns="http://www.w3.org/2000/svg"><path d="m256 512c-141.160156 0-256-114.839844-256-256s114.839844-256 256-256 256 114.839844 256 256-114.839844 256-256 256zm0-494.933594c-131.746094 0-238.933594 107.1875-238.933594 238.933594s107.1875 238.933594 238.933594 238.933594 238.933594-107.1875 238.933594-238.933594-107.1875-238.933594-238.933594-238.933594zm0 0"/><path d="m452.265625 264.535156c-4.710937 0-8.53125-3.824218-8.53125-8.535156.015625-52.710938-23.1875-101.949219-65.332031-138.625-3.558594-3.097656-3.925782-8.480469-.835938-12.039062 3.097656-3.558594 8.480469-3.917969 12.039063-.835938 45.925781 39.96875 71.210937 93.773438 71.195312 151.5 0 4.710938-3.824219 8.535156-8.535156 8.535156zm0 0"/><path d="m324.070312 80.390625c-.980468 0-1.980468-.167969-2.953124-.527344-20.804688-7.6875-42.71875-11.589843-65.117188-11.597656-4.710938 0-8.535156-3.820313-8.535156-8.53125s3.824218-8.535156 8.535156-8.535156c24.429688.007812 48.324219 4.265625 71.023438 12.65625 4.417968 1.628906 6.679687 6.535156 5.050781 10.964843-1.269531 3.4375-4.53125 5.570313-8.003907 5.570313zm0 0"/><path d="m128 409.601562c-1.9375 0-3.875-.660156-5.46875-1.988281-46.6875-39.074219-71.347656-91.511719-71.332031-151.613281 0-4.710938 3.824219-8.535156 8.535156-8.535156s8.53125 3.824218 8.53125 8.535156c-.015625 54.894531 22.539063 102.792969 65.210937 138.523438 3.621094 3.019531 4.089844 8.402343 1.070313 12.023437-1.691406 2.011719-4.113281 3.054687-6.546875 3.054687zm0 0"/><path d="m255.964844 460.800781c-22.972656 0-45.53125-3.78125-67.0625-11.246093-4.453125-1.546876-6.808594-6.402344-5.265625-10.855469 1.546875-4.453125 6.402343-6.808594 10.855469-5.265625 19.71875 6.835937 40.40625 10.300781 61.472656 10.300781h.035156c4.710938 0 8.535156 3.820313 8.535156 8.53125s-3.824218 8.535156-8.535156 8.535156c-.007812 0-.027344 0-.035156 0zm0 0"/><path d="m255.878906 409.582031c-4.476562 0-8.992187-.433593-13.488281-1.304687-26.957031-5.230469-48.4375-26.921875-53.445313-53.964844-4.71875-25.445312 4.589844-50.414062 24.398438-66.226562v-143.019532c0-23.527344 19.136719-42.667968 42.664062-42.667968 23.527344 0 42.667969 19.140624 42.667969 42.667968v143.019532c16.109375 12.917968 25.597657 32.503906 25.597657 53.246093 0 20.464844-9.0625 39.671875-24.863282 52.703125-12.332031 10.15625-27.683594 15.546875-43.53125 15.546875zm.121094-290.117187c-14.113281 0-25.601562 11.488281-25.601562 25.601562v147.285156c0 2.789063-1.363282 5.402344-3.652344 6.996094-16.730469 11.683594-24.796875 31.550782-21.03125 51.851563 3.746094 20.207031 19.785156 36.410156 39.925781 40.328125 15.402344 2.996094 31.050781-.898438 42.898437-10.667969 11.859376-9.769531 18.660157-24.183594 18.660157-39.527344 0-16.691406-8.207031-32.382812-21.957031-41.984375-2.277344-1.59375-3.640626-4.207031-3.640626-6.996094v-147.285156c0-14.113281-11.488281-25.601562-25.601562-25.601562zm0 0"/><path d="m256 375.464844c-18.824219 0-34.132812-15.308594-34.132812-34.132813s15.308593-34.132812 34.132812-34.132812 34.132812 15.308593 34.132812 34.132812-15.308593 34.132813-34.132812 34.132813zm0-51.199219c-9.414062 0-17.066406 7.65625-17.066406 17.066406 0 9.414063 7.652344 17.066407 17.066406 17.066407s17.066406-7.652344 17.066406-17.066407c0-9.410156-7.652344-17.066406-17.066406-17.066406zm0 0"/><path d="m256 324.265625c-4.710938 0-8.535156-3.820313-8.535156-8.53125v-162.132813c0-4.710937 3.824218-8.535156 8.535156-8.535156s8.535156 3.824219 8.535156 8.535156v162.132813c0 4.710937-3.824218 8.53125-8.535156 8.53125zm0 0"/></svg>