<svg height="512pt" viewBox="0 0 512 512" width="512pt" xmlns="http://www.w3.org/2000/svg"><path d="m256 512c-141.160156 0-256-114.839844-256-256s114.839844-256 256-256 256 114.839844 256 256-114.839844 256-256 256zm0-494.933594c-131.746094 0-238.933594 107.1875-238.933594 238.933594s107.1875 238.933594 238.933594 238.933594 238.933594-107.1875 238.933594-238.933594-107.1875-238.933594-238.933594-238.933594zm0 0"/><path d="m334.140625 424.890625c-13.832031 0-29.21875-2.304687-43.554687-9.496094-14.78125-7.425781-26.351563-18.953125-34.585938-34.40625-8.226562 15.453125-19.804688 26.980469-34.585938 34.40625-39.003906 19.582031-85.828124 2.953125-87.800781 2.226563-3.890625-1.417969-6.203125-5.417969-5.484375-9.496094.714844-4.082031 4.257813-7.058594 8.394532-7.058594 37.640624 0 68.269531-30.625 68.269531-68.265625s-30.628907-68.265625-68.269531-68.265625c-25.769532 0-48.996094 14.53125-60.621094 37.929688-1.789063 3.617187-5.878906 5.476562-9.777344 4.460937-3.910156-1.003906-6.570312-4.617187-6.390625-8.644531 1.246094-28.191406 11-50.679688 28.988281-66.847656 21.324219-19.167969 49.089844-24.714844 66.363282-26.207032-15.097657-25.429687-19.832032-50.210937-14.074219-73.832031 11.199219-45.917969 57.976562-69.765625 59.957031-70.757812 3.898438-1.9375 8.636719-.648438 10.992188 3.011719 2.355468 3.671874 1.578124 8.519531-1.808594 11.257812-18.542969 15-22.4375 37.152344-22.4375 53.101562 0 37.640626 30.628906 68.265626 68.269531 68.265626s68.265625-30.625 68.265625-68.265626c0-15.941406-3.890625-38.101562-22.433594-53.101562-3.390625-2.738281-4.164062-7.585938-1.808594-11.257812 2.355469-3.660157 7.097657-4.949219 10.988282-3.011719 1.988281 1 48.761718 24.851562 59.957031 70.757812 5.757813 23.628907 1.023437 48.402344-14.0625 73.832031 17.269531 1.503907 45.039063 7.039063 66.363281 26.207032 17.988282 16.167968 27.742188 38.65625 28.988282 66.847656.179687 4.027344-2.492188 7.640625-6.394532 8.644531-3.890625 1.015625-7.976562-.851562-9.777344-4.460937-11.613281-23.398438-34.851562-37.929688-60.621093-37.929688-37.640625 0-68.265625 30.625-68.265625 68.265625s30.625 68.265625 68.265625 68.265625c4.140625 0 7.6875 2.976563 8.40625 7.058594.714843 4.078125-1.597657 8.078125-5.488281 9.496094-1.238282.453125-20.429688 7.269531-44.226563 7.269531zm-78.140625-75.023437c3.773438 0 7.089844 2.472656 8.175781 6.082031 6.347657 21.164062 17.808594 36.039062 34.0625 44.195312 11.820313 5.929688 24.832031 8.003907 36.59375 7.671875-26.597656-14.464844-44.699219-42.667968-44.699219-75.023437 0-47.054688 38.28125-85.335938 85.332032-85.335938 19.347656 0 37.53125 6.519531 52.132812 18.023438-3.816406-8.210938-9.046875-15.324219-15.652344-21.28125-27.261718-24.585938-69.664062-22.402344-70.089843-22.359375-3.285157.257812-6.410157-1.527344-7.996094-4.417969-1.589844-2.894531-1.367187-6.445313.578125-9.113281 18.722656-25.746094 25.449219-50.230469 19.984375-72.773438-2.847656-11.777344-8.753906-21.9375-15.582031-30.378906 1.648437 7.195312 2.492187 14.839844 2.492187 22.835938 0 47.050781-38.277343 85.332031-85.332031 85.332031s-85.332031-38.28125-85.332031-85.332031c0-7.996094.84375-15.640626 2.492187-22.835938-6.820312 8.429688-12.726562 18.59375-15.574218 30.378906-5.460938 22.542969 1.261718 47.027344 19.984374 72.773438 1.9375 2.667968 2.160157 6.21875.570313 9.113281-1.585937 2.890625-4.65625 4.65625-7.996094 4.417969-.417969-.015625-42.835937-2.226563-70.089843 22.359375-6.605469 5.957031-11.835938 13.070312-15.652344 21.28125 14.601562-11.503907 32.792968-18.023438 52.132812-18.023438 47.050782 0 85.332032 38.28125 85.332032 85.335938 0 32.324219-18.066407 60.507812-44.628907 74.988281 11.808594-.109375 24.824219-1.75 36.605469-7.679688 16.214844-8.175781 27.648438-23.023437 33.988281-44.152343 1.078125-3.609375 4.394531-6.082031 8.167969-6.082031zm0 0"/><path d="m256 213.332031c-33.535156 0-64.085938-19.8125-77.839844-50.472656l-2.84375-6.324219 5.605469-4.070312c22.042969-16.007813 48-24.464844 75.070313-24.464844 27.074218 0 53.027343 8.457031 75.066406 24.464844l5.605468 4.070312-2.839843 6.324219c-13.738281 30.660156-44.296875 50.472656-77.824219 50.472656zm-59.035156-51.140625c12.128906 20.910156 34.585937 34.074219 59.027344 34.074219 24.4375 0 46.90625-13.164063 59.023437-34.074219-17.738281-11.226562-37.996094-17.125-59.023437-17.125-21.027344 0-41.285157 5.898438-59.027344 17.125zm0 0"/><path d="m210.609375 375.902344-7.773437-3.558594c-45.464844-20.8125-74.835938-66.484375-74.835938-116.34375v-8.535156h8.535156c47.050782 0 85.332032 38.28125 85.332032 85.335937 0 12.210938-2.59375 24.089844-7.714844 35.320313zm-65.167969-110.789063c3.046875 36.582031 24.269532 69.546875 56.363282 87.578125 1.988281-6.453125 2.996093-13.105468 2.996093-19.890625 0-34.628906-25.90625-63.308593-59.359375-67.6875zm0 0"/><path d="m301.390625 375.894531-3.550781-7.773437c-5.121094-11.222656-7.714844-23.109375-7.714844-35.320313 0-47.054687 38.28125-85.335937 85.332031-85.335937h8.535157v8.535156c0 49.867188-29.371094 95.53125-74.839844 116.335938zm65.160156-110.78125c-33.445312 4.378907-59.359375 33.066407-59.359375 67.6875 0 6.773438 1.007813 13.4375 2.996094 19.882813 32.101562-18.023438 53.324219-50.988282 56.363281-87.570313zm0 0"/></svg>