<svg height="512pt" viewBox="0 0 512 512" width="512pt" xmlns="http://www.w3.org/2000/svg"><path d="m256 512c-141.160156 0-256-114.839844-256-256s114.839844-256 256-256 256 114.839844 256 256-114.839844 256-256 256zm0-494.933594c-131.746094 0-238.933594 107.1875-238.933594 238.933594s107.1875 238.933594 238.933594 238.933594 238.933594-107.1875 238.933594-238.933594-107.1875-238.933594-238.933594-238.933594zm0 0"/><path d="m452.265625 264.535156c-4.710937 0-8.53125-3.824218-8.53125-8.535156.015625-52.710938-23.1875-101.949219-65.332031-138.625-3.558594-3.097656-3.925782-8.480469-.835938-12.039062 3.097656-3.558594 8.480469-3.917969 12.039063-.835938 45.925781 39.96875 71.210937 93.773438 71.195312 151.5 0 4.710938-3.824219 8.535156-8.535156 8.535156zm0 0"/><path d="m324.070312 80.390625c-.980468 0-1.980468-.167969-2.953124-.527344-20.804688-7.6875-42.71875-11.589843-65.117188-11.597656-4.710938 0-8.535156-3.820313-8.535156-8.53125s3.824218-8.535156 8.535156-8.535156c24.429688.007812 48.324219 4.265625 71.023438 12.65625 4.417968 1.628906 6.679687 6.535156 5.050781 10.964843-1.269531 3.4375-4.53125 5.570313-8.003907 5.570313zm0 0"/><path d="m128 409.601562c-1.9375 0-3.875-.660156-5.46875-1.988281-46.6875-39.074219-71.347656-91.511719-71.332031-151.613281 0-4.710938 3.824219-8.535156 8.535156-8.535156s8.53125 3.824218 8.53125 8.535156c-.015625 54.894531 22.539063 102.792969 65.210937 138.523438 3.621094 3.019531 4.089844 8.402343 1.070313 12.023437-1.691406 2.011719-4.113281 3.054687-6.546875 3.054687zm0 0"/><path d="m255.964844 460.800781c-22.972656 0-45.53125-3.78125-67.0625-11.246093-4.453125-1.546876-6.808594-6.402344-5.265625-10.855469 1.546875-4.453125 6.402343-6.808594 10.855469-5.265625 19.71875 6.835937 40.40625 10.300781 61.472656 10.300781h.035156c4.710938 0 8.535156 3.820313 8.535156 8.53125s-3.824218 8.535156-8.535156 8.535156c-.007812 0-.027344 0-.035156 0zm0 0"/><path d="m256 401.066406c-61.167969 0-110.933594-46.070312-110.933594-102.699218 0-87.484376 100.863282-181.238282 105.15625-185.191407 3.269532-3 8.285156-3 11.554688 0 4.292968 3.960938 105.15625 97.707031 105.15625 185.191407 0 56.628906-49.765625 102.699218-110.933594 102.699218zm0-269.722656c-21.265625 21.15625-93.867188 98.417969-93.867188 167.023438 0 47.222656 42.113282 85.632812 93.867188 85.632812s93.867188-38.410156 93.867188-85.632812c0-68.605469-72.601563-145.867188-93.867188-167.023438zm0 0"/><path d="m256 366.933594c-42.351562 0-76.800781-30.625-76.800781-68.265625 0-4.710938 3.824219-8.535157 8.535156-8.535157s8.53125 3.824219 8.53125 8.535157c0 28.234375 26.796875 51.199219 59.734375 51.199219 4.710938 0 8.535156 3.824218 8.535156 8.53125 0 4.710937-3.824218 8.535156-8.535156 8.535156zm0 0"/></svg>