<svg height="512pt" viewBox="0 0 512 512" width="512pt" xmlns="http://www.w3.org/2000/svg"><path d="m256 512c-141.160156 0-256-114.839844-256-256s114.839844-256 256-256 256 114.839844 256 256-114.839844 256-256 256zm0-494.933594c-131.746094 0-238.933594 107.1875-238.933594 238.933594s107.1875 238.933594 238.933594 238.933594 238.933594-107.1875 238.933594-238.933594-107.1875-238.933594-238.933594-238.933594zm0 0"/><path d="m452.265625 264.535156c-4.710937 0-8.53125-3.824218-8.53125-8.535156.015625-52.710938-23.1875-101.949219-65.332031-138.625-3.558594-3.097656-3.925782-8.480469-.835938-12.039062 3.097656-3.558594 8.480469-3.917969 12.039063-.835938 45.925781 39.96875 71.210937 93.773438 71.195312 151.5 0 4.710938-3.824219 8.535156-8.535156 8.535156zm0 0"/><path d="m324.070312 80.390625c-.980468 0-1.980468-.167969-2.953124-.527344-20.804688-7.6875-42.71875-11.589843-65.117188-11.597656-4.710938 0-8.535156-3.820313-8.535156-8.53125s3.824218-8.535156 8.535156-8.535156c24.429688.007812 48.324219 4.265625 71.023438 12.65625 4.417968 1.628906 6.679687 6.535156 5.050781 10.964843-1.269531 3.4375-4.53125 5.570313-8.003907 5.570313zm0 0"/><path d="m128 409.601562c-1.9375 0-3.875-.660156-5.46875-1.988281-46.6875-39.074219-71.347656-91.511719-71.332031-151.613281 0-4.710938 3.824219-8.535156 8.535156-8.535156s8.53125 3.824218 8.53125 8.535156c-.015625 54.894531 22.539063 102.792969 65.210937 138.523438 3.621094 3.019531 4.089844 8.402343 1.070313 12.023437-1.691406 2.011719-4.113281 3.054687-6.546875 3.054687zm0 0"/><path d="m255.964844 460.800781c-22.972656 0-45.53125-3.78125-67.0625-11.246093-4.453125-1.546876-6.808594-6.402344-5.265625-10.855469 1.546875-4.453125 6.410156-6.808594 10.855469-5.265625 19.71875 6.835937 40.40625 10.300781 61.472656 10.300781h.035156c4.710938 0 8.535156 3.820313 8.535156 8.53125s-3.824218 8.535156-8.535156 8.535156c-.007812 0-.027344 0-.035156 0zm0 0"/><path d="m256 401.066406c-109.660156 0-110.933594-109.824218-110.933594-110.933594 0-53.171874 34.117188-104.949218 35.566406-107.136718 1.417969-2.132813 3.710938-3.507813 6.253907-3.753906 2.554687-.246094 5.070312.648437 6.878906 2.457031l21.070313 21.070312c-5.300782-36.574219.886718-82.644531 46.703124-99.824219 3.582032-1.347656 7.609376-.144531 9.871094 2.945313l63.589844 86.714844c20.890625 28.476562 31.933594 62.207031 31.933594 97.527343 0 109.671876-109.824219 110.933594-110.933594 110.933594zm-66.578125-199.578125c-9.300781 16.453125-27.289063 52.914063-27.289063 88.644531.019532 3.816407 1.398438 93.867188 93.867188 93.867188 3.824219-.007812 93.867188-1.398438 93.867188-93.867188 0-31.667968-9.898438-61.898437-28.621094-87.441406l-59.578125-81.246094c-20.660157 10.15625-31.164063 29.773438-31.269531 58.429688-.082032 24.898438 7.945312 47.394531 8.023437 47.613281 1.355469 3.757813-.078125 7.964844-3.449219 10.113281-3.371094 2.140626-7.78125 1.664063-10.605468-1.167968zm0 0"/><path d="m256 366.933594c-4.710938 0-8.535156-3.824219-8.535156-8.535156 0-4.707032 3.824218-8.53125 8.535156-8.53125 14.011719 0 59.734375-4.308594 59.734375-59.734376 0-4.710937 3.820313-8.53125 8.53125-8.53125s8.535156 3.820313 8.535156 8.53125c0 56.6875-41.371093 76.800782-76.800781 76.800782zm0 0"/></svg>