<svg height="512pt" viewBox="0 0 512 512" width="512pt" xmlns="http://www.w3.org/2000/svg"><path d="m256 512c-141.160156 0-256-114.839844-256-256s114.839844-256 256-256 256 114.839844 256 256-114.839844 256-256 256zm0-494.933594c-131.746094 0-238.933594 107.1875-238.933594 238.933594s107.1875 238.933594 238.933594 238.933594 238.933594-107.1875 238.933594-238.933594-107.1875-238.933594-238.933594-238.933594zm0 0"/><path d="m452.265625 264.535156c-4.710937 0-8.53125-3.824218-8.53125-8.535156.015625-52.710938-23.1875-101.949219-65.332031-138.625-3.558594-3.097656-3.925782-8.480469-.835938-12.039062 3.097656-3.558594 8.480469-3.917969 12.039063-.835938 45.925781 39.96875 71.210937 93.773438 71.195312 151.5 0 4.710938-3.824219 8.535156-8.535156 8.535156zm0 0"/><path d="m324.070312 80.390625c-.980468 0-1.980468-.167969-2.953124-.527344-20.804688-7.6875-42.71875-11.589843-65.117188-11.597656-4.710938 0-8.535156-3.820313-8.535156-8.53125s3.824218-8.535156 8.535156-8.535156c24.429688.007812 48.324219 4.265625 71.023438 12.65625 4.417968 1.628906 6.679687 6.535156 5.050781 10.964843-1.269531 3.4375-4.53125 5.570313-8.003907 5.570313zm0 0"/><path d="m128 409.601562c-1.9375 0-3.875-.660156-5.46875-1.988281-46.6875-39.074219-71.347656-91.511719-71.332031-151.613281 0-4.710938 3.824219-8.535156 8.535156-8.535156s8.53125 3.824218 8.53125 8.535156c-.015625 54.894531 22.539063 102.792969 65.210937 138.523438 3.621094 3.019531 4.089844 8.402343 1.070313 12.023437-1.691406 2.011719-4.113281 3.054687-6.546875 3.054687zm0 0"/><path d="m255.964844 460.800781c-22.972656 0-45.53125-3.78125-67.0625-11.246093-4.453125-1.546876-6.808594-6.402344-5.265625-10.855469 1.546875-4.453125 6.402343-6.808594 10.855469-5.265625 19.730468 6.835937 40.0625 10.265625 61.507812 10.300781 4.710938 0 8.535156 3.820313 8.535156 8.53125s-3.824218 8.535156-8.535156 8.535156c-.007812 0-.027344 0-.035156 0zm0 0"/><path d="m204.800781 401.066406c-1.324219 0-2.65625-.308594-3.902343-.945312-3.566407-1.835938-5.375-5.90625-4.339844-9.789063l31.265625-117.265625h-40.089844c-3.304687 0-6.308594-1.902344-7.714844-4.890625-1.410156-2.984375-.972656-6.519531 1.125-9.0625l119.46875-145.066406c2.558594-3.089844 6.917969-3.992187 10.488281-2.15625 3.566407 1.832031 5.375 5.902344 4.339844 9.785156l-31.265625 117.257813h40.089844c3.304687 0 6.308594 1.902344 7.714844 4.890625 1.410156 2.984375.972656 6.519531-1.125 9.0625l-119.46875 145.066406c-1.664063 2.03125-4.105469 3.113281-6.585938 3.113281zm1.015625-145.066406h33.117188c2.652344 0 5.152344 1.238281 6.765625 3.335938 1.613281 2.109374 2.160156 4.839843 1.476562 7.398437l-24.019531 90.085937 83.027344-100.820312h-33.117188c-2.652344 0-5.152344-1.238281-6.765625-3.335938-1.613281-2.109374-2.160156-4.839843-1.476562-7.398437l24.019531-90.085937zm0 0"/></svg>