<svg height="512pt" viewBox="0 0 512 512.00727" width="512pt" xmlns="http://www.w3.org/2000/svg"><path d="m423.609375 441.386719c-4.441406 0-8.265625-3.335938-8.765625-7.855469l-8.828125-79.449219c-.539063-4.847656 2.949219-9.207031 7.800781-9.746093 4.8125-.601563 9.207032 2.949218 9.746094 7.792968l7.859375 70.675782 70.671875-7.847657c4.835938-.589843 9.207031 2.949219 9.746094 7.792969.539062 4.847656-2.949219 9.207031-7.804688 9.746094l-79.449218 8.828125c-.324219.042969-.652344.0625-.976563.0625zm0 0"/><path d="m75.988281 102.105469c-2.039062 0-4.089843-.703125-5.757812-2.132813-3.691407-3.179687-4.113281-8.757812-.925781-12.449218 6.585937-7.652344 13.796874-15.429688 21.433593-23.117188 3.433594-3.460938 9.019531-3.488281 12.480469-.046875 3.460938 3.433594 3.480469 9.023437.046875 12.484375-7.347656 7.394531-14.265625 14.863281-20.585937 22.199219-1.75 2.03125-4.210938 3.0625-6.691407 3.0625zm0 0"/><path d="m255.894531 512.007812c-2.066406 0-4.125-.019531-6.164062-.070312-4.871094-.117188-8.730469-4.160156-8.613281-9.03125.113281-4.875 4.226562-8.800781 9.039062-8.617188 20.089844.488282 40.375-1.5625 59.824219-6.046874 4.738281-1.074219 9.488281 1.871093 10.582031 6.621093s-1.871094 9.492188-6.621094 10.585938c-18.898437 4.351562-38.433594 6.558593-58.046875 6.558593zm-67.566406-9.359374c-.796875 0-1.609375-.113282-2.410156-.34375-20.746094-5.886719-40.722657-14.414063-59.367188-25.34375-4.210937-2.472657-5.613281-7.875-3.152343-12.085938 2.464843-4.207031 7.875-5.621094 12.078124-3.148438 17.355469 10.175782 35.9375 18.113282 55.25 23.59375 4.6875 1.324219 7.417969 6.214844 6.082032 10.902344-1.09375 3.894532-4.632813 6.425782-8.480469 6.425782zm-106.664063-62.496094c-2.253906 0-4.503906-.859375-6.226562-2.570313-15.332031-15.238281-28.6875-32.351562-39.703125-50.882812-2.492187-4.191407-1.113281-9.605469 3.070313-12.101563 4.183593-2.488281 9.605468-1.113281 12.101562 3.070313 10.257812 17.25 22.707031 33.191406 36.980469 47.378906 3.460937 3.441406 3.476562 9.023437.035156 12.492187-1.722656 1.746094-3.992187 2.613282-6.257813 2.613282zm-63.179687-106.292969c-3.832031 0-7.355469-2.507813-8.476563-6.375-5.992187-20.640625-9.355468-42.089844-9.9999995-63.753906-.1406245-4.871094 3.6914065-8.941407 8.5624995-9.082031 4.828126-.292969 8.933594 3.6875 9.082032 8.5625.601562 20.171874 3.734375 40.140624 9.316406 59.355468 1.359375 4.679688-1.335938 9.578125-6.023438 10.9375-.8125.238282-1.640624.355469-2.460937.355469zm-2.691406-123.4375c-.742188 0-1.503907-.097656-2.261719-.300781-4.714844-1.246094-7.53125-6.074219-6.277344-10.785156 5.316406-20.128907 13.648438-40.203126 24.769532-59.675782 2.421874-4.230468 7.824218-5.703125 12.050781-3.285156 4.230469 2.417969 5.703125 7.8125 3.285156 12.042969-10.363281 18.128906-18.105469 36.785156-23.03125 55.417969-1.050781 3.972656-4.625 6.585937-8.535156 6.585937zm0 0"/><path d="m370.757812 483.898438c-3.179687 0-6.25-1.71875-7.820312-4.730469-2.261719-4.316407-.601562-9.648438 3.714844-11.917969 8.757812-4.589844 17.3125-9.789062 25.433594-15.457031 3.996093-2.789063 9.507812-1.800781 12.285156 2.191406 2.792968 4 1.8125 9.507813-2.1875 12.296875-8.730469 6.082031-17.929688 11.679688-27.339844 16.613281-1.296875.679688-2.699219 1.003907-4.085938 1.003907zm0 0"/><path d="m423.617188 441.386719c-2.214844 0-4.433594-.828125-6.144532-2.488281-3.496094-3.390626-3.582031-8.980469-.195312-12.484376 7.238281-7.46875 14.019531-15.03125 20.144531-22.472656 3.101563-3.769531 8.660156-4.308594 12.429687-1.210937 3.769532 3.097656 4.308594 8.660156 1.210938 12.421875-6.425781 7.8125-13.523438 15.738281-21.097656 23.542968-1.738282 1.789063-4.042969 2.691407-6.347656 2.691407zm0 0"/><path d="m477.730469 368.207031c-1.367188 0-2.753907-.320312-4.050781-.988281-4.328126-2.234375-6.023438-7.566406-3.789063-11.902344 9.101563-17.59375 15.714844-35.910156 19.675781-54.449218 1.015625-4.773438 5.695313-7.847657 10.480469-6.785157 4.765625 1.015625 7.8125 5.710938 6.789063 10.476563-4.292969 20.074218-11.441407 39.890625-21.257813 58.871094-1.570313 3.046874-4.652344 4.777343-7.847656 4.777343zm24.972656-116.746093c-4.660156 0-8.554687-3.65625-8.808594-8.359376-1.035156-19.457031-4.449219-38.699218-10.136719-57.210937-1.429687-4.660156 1.183594-9.597656 5.84375-11.035156 4.664063-1.421875 9.597657 1.191406 11.035157 5.84375 6.117187 19.886719 9.78125 40.570312 10.894531 61.464843.265625 4.875-3.480469 9.023438-8.34375 9.289063-.167969 0-.324219.007813-.484375.007813zm-35.144531-114.359376c-2.992188 0-5.902344-1.519531-7.5625-4.257812-10.039063-16.605469-22.121094-31.988281-35.910156-45.71875-3.453126-3.441406-3.460938-9.027344-.027344-12.480469 3.433594-3.460937 9.019531-3.46875 12.480468-.027343 14.804688 14.742187 27.773438 31.269531 38.558594 49.089843 2.527344 4.175781 1.183594 9.597657-2.980468 12.121094-1.421876.867187-3.003907 1.273437-4.558594 1.273437zm-84.796875-84.4375c-1.542969 0-3.105469-.40625-4.527344-1.253906-16.683594-10-34.558594-17.917968-53.125-23.542968-4.667969-1.414063-7.300781-6.339844-5.886719-11.007813 1.410156-4.671875 6.335938-7.300781 11.007813-5.886719 19.949219 6.046875 39.160156 14.554688 57.078125 25.296875 4.183594 2.507813 5.535156 7.929688 3.035156 12.113281-1.65625 2.746094-4.578125 4.28125-7.582031 4.28125zm-174.617188-30.402343c-4.140625 0-7.832031-2.921875-8.652343-7.132813-.933594-4.785156 2.179687-9.417968 6.964843-10.363281 20.347657-3.980469 41.589844-5.480469 62.269531-4.449219 4.875.238282 8.625 4.378906 8.378907 9.25-.238281 4.863282-4.359375 8.476563-9.25 8.386719-19.273438-.960937-39.0625.433594-58.007813 4.148437-.574218.117188-1.148437.160157-1.703125.160157zm0 0"/><path d="m123.488281 56.089844c-2.921875 0-5.773437-1.449219-7.460937-4.089844-2.613282-4.113281-1.402344-9.566406 2.710937-12.179688 8.96875-5.703124 18.398438-10.902343 28.011719-15.441406 4.414062-2.074218 9.664062-.191406 11.746094 4.222656 2.085937 4.402344.195312 9.664063-4.207032 11.746094-8.953124 4.230469-17.726562 9.058594-26.078124 14.371094-1.464844.921875-3.097657 1.371094-4.722657 1.371094zm0 0"/><path d="m105.816406 158.902344c-4.441406 0-8.265625-3.335938-8.765625-7.855469l-7.859375-70.671875-70.664062 7.847656c-4.835938.539063-9.214844-2.949218-9.753906-7.796875-.539063-4.84375 2.957031-9.214843 7.804687-9.746093l79.445313-8.828126c4.832031-.546874 9.207031 2.949219 9.746093 7.796876l8.828125 79.449218c.539063 4.84375-2.949218 9.207032-7.804687 9.746094-.324219.042969-.652344.058594-.976563.058594zm0 0"/><path d="m222.066406 410.789062c-4.238281 0-10.074218-1.597656-19.199218-4.976562l-.832032-.308594c-7.722656-2.78125-15.289062-6.199218-22.5-10.160156-7.144531-3.921875-14.027344-8.433594-20.464844-13.382812-3.125-2.402344-6.160156-4.925782-9.089843-7.558594l-1.140625-.898438c-4.605469-3.621094-8.96875-7.035156-9.332032-12.316406-.652343-9.453125.265626-19.765625 2.746094-30.648438 3.578125-15.722656 11.433594-31.054687 23.351563-45.578124 5.136719-6.257813 11.261719-16.789063 11.261719-31.398438 0-3.0625-.925782-5.316406-3.019532-7.308594-6.027344-5.757812-21.140625-8.695312-40.367187-7.761718-11.183594.546874-21.671875-2.921876-29.527344-9.664063-2.492187-2.136719-3.585937-5.484375-2.851563-8.679687 9.460938-40.984376 35.484376-77.222657 71.398438-99.40625 4.21875-2.605469 9.523438-2.164063 18.914062 1.582031 4.203126 1.667969 8 4.050781 11.292969 7.058593 5.527344 5.058594 9.699219 11.980469 12.402344 20.585938 3.089844 9.828125 6.929687 30.296875 1.746094 44.679688-.457031 1.277343-1.058594 2.488281-1.675781 3.6875l-.441407.867187c-2.746093 5.605469-2.390625 12.003906.980469 17.539063 3.671875 6.046874 10.222656 9.914062 17.097656 10.070312 15.722656.371094 37.703125 7.3125 53.109375 38.277344 1.269531 2.5625 2.390625 5.175781 3.328125 7.875 13.335938 38.269531-15.195312 63.230468-38.109375 83.289062-5.660156 4.953125-11.007812 9.628906-15.597656 14.308594-2.507813 2.550781-3.957031 4.882812-4.292969 6.929688-.28125 1.703124.0625 4.0625.433594 6.558593l.175781 1.191407c.714844 5.042968 1.121094 10.171874 1.203125 15.238281.050782 3.292969-1.503906 6.382812-4.175781 8.269531-1.910156 1.34375-4.019531 2.039062-6.824219 2.039062zm-65.078125-53.40625c.925781.796876 2.117188 1.730469 2.753907 2.226563.882812.695313 1.605468 1.277344 2.011718 1.640625 2.613282 2.332031 5.308594 4.582031 8.085938 6.71875 5.730468 4.414062 11.847656 8.410156 18.195312 11.898438 6.398438 3.511718 13.125 6.550781 19.984375 9.023437l.988281.359375c2.3125.855469 4.222657 1.527344 5.808594 2.050781-.132812-1.195312-.273437-2.394531-.449218-3.578125l-.160157-1.101562c-.519531-3.550782-1.109375-7.574219-.378906-12.007813.945313-5.703125 4.019531-11.226562 9.121094-16.417969 5.058593-5.144531 10.910156-10.265624 16.566406-15.21875 25.664063-22.449218 41.828125-39.054687 33.070313-64.183593-.699219-1.996094-1.527344-3.929688-2.472657-5.820313-9.222656-18.535156-21.910156-28.125-37.710937-28.496094-12.828125-.296874-25-7.40625-31.769532-18.554687-6.550781-10.785156-7.1875-23.355469-1.75-34.480469l.609376-1.199218c.265624-.519532.558593-1.023438.75-1.570313 2.957031-8.195313 1.183593-23.332031-1.976563-33.40625-1.757813-5.59375-4.273437-9.921875-7.476563-12.84375-1.710937-1.570313-3.699218-2.804687-5.914062-3.6875-2.472656-.992187-4.085938-1.476563-5.058594-1.722656-29.226562 18.742187-50.8125 48.023437-60.035156 81.300781 3.75 1.871094 8.183594 2.78125 12.878906 2.5625 17.460938-.796875 40.898438.722656 53.371094 12.628906 5.542969 5.296875 8.484375 12.238282 8.484375 20.074219 0 19.835937-8.308594 34.121094-15.273437 42.601563-10.160157 12.386718-16.816407 25.265624-19.773438 38.296874-1.871094 8.171876-2.691406 15.871094-2.480469 22.90625zm21.601563-220.628906"/><path d="m301.644531 407.769531c-3.035156 0-5.941406-1.570312-7.5625-4.28125l-12.402343-20.664062c-4.511719-7.484375-3.4375-13.992188-1.730469-18.121094 5.824219-14.144531 27.9375-20.921875 34.136719-22.566406 1.84375-.917969 9.417968-5.179688 9.417968-13.59375 0-.574219.050782-1.136719.167969-1.703125.371094-1.890625 9.445313-46.320313 39.46875-46.320313 8.605469 0 19.417969.921875 26.753906 8.0625l13.09375 13.089844c2.433594 2.4375 3.230469 6.066406 2.039063 9.296875-16.800782 45.566406-54.441406 81.601562-100.6875 96.386719-.894532.285156-1.800782.414062-2.695313.414062zm39.488281-78.246093c-.488281 16.445312-13.1875 26.03125-20.746093 29.140624-.378907.15625-.785157.289063-1.183594.386719-9.425781 2.402344-21.167969 8.078125-22.933594 12.378907-.140625.332031-.34375.835937.539063 2.292968l8.722656 14.53125c36.34375-13.675781 65.976562-42.292968 80.886719-78.175781l-8.917969-8.925781c-2.027344-1.96875-6.75-2.96875-14.351562-2.96875-12.738282-.007813-20.320313 23.660156-22.015626 31.339844zm0 0"/><path d="m255.894531 414.902344c-87.617187 0-158.898437-71.28125-158.898437-158.894532 0-87.613281 71.28125-158.898437 158.898437-158.898437 87.613281 0 158.894531 71.285156 158.894531 158.898437 0 87.613282-71.273437 158.894532-158.894531 158.894532zm0-300.136719c-77.886719 0-141.242187 63.363281-141.242187 141.242187 0 77.875 63.355468 141.242188 141.242187 141.242188 77.882813 0 141.238281-63.367188 141.238281-141.242188 0-77.878906-63.355468-141.242187-141.238281-141.242187zm0 0"/><path d="m362.714844 237.679688c-31.910156 0-57.527344-24.246094-67.636719-38.574219-6.851563-9.710938-27.152344-38.480469-3.558594-64-.300781-9.171875 2.015625-16.347657 7.390625-23.402344.386719-.511719.828125-.972656 1.316406-1.386719l2.117188-1.792968c2.4375-2.054688 5.789062-2.628907 8.765625-1.535157 46.769531 17.328125 83.101563 56.230469 97.191406 104.058594.988281 3.363281-.105469 6.992187-2.789062 9.253906-.0625.050781-.742188.617188-.804688.667969l-4.085937 3.25c-11.070313 8.800781-24.179688 13.460938-37.90625 13.460938zm-51.957032-111.851563c-1.617187 3.230469-1.945312 6.574219-1.378906 11.695313.308594 2.78125-.722656 5.542968-2.773437 7.441406-14.113281 13.066406-9.046875 27.019531 2.898437 43.953125 8.816406 12.507812 30.269532 31.097656 53.210938 31.097656 9.675781 0 18.972656-3.308594 26.871094-9.585937-12.957032-37.976563-41.859376-68.988282-78.828126-84.601563zm0 0"/></svg>