<svg height="512pt" viewBox="0 0 512.00883 512" width="512pt" xmlns="http://www.w3.org/2000/svg"><path d="m397.914062 73.195312c-1.828124 0-3.664062-.566406-5.246093-1.730468-39.722657-29.421875-86.863281-44.976563-136.324219-44.976563-51.457031 0-102.277344 16.699219-135.945312 44.667969-2.636719 2.1875-6.292969 2.636719-9.390626 1.199219-3.097656-1.457031-5.078124-4.574219-5.078124-7.988281v-55.535157c0-4.871093 3.957031-8.82812475 8.828124-8.82812475 4.875 0 8.828126 3.95703175 8.828126 8.82812475v37.976563c35.917968-23.984375 84.179687-37.976563 132.757812-37.976563 53.273438 0 104.050781 16.746094 146.839844 48.4375 3.917968 2.902344 4.738281 8.429688 1.835937 12.347657-1.730469 2.339843-4.398437 3.578124-7.105469 3.578124zm0 0"/><path d="m447.628906 406.761719c-1.828125 0-3.664062-.566407-5.242187-1.730469-3.921875-2.902344-4.742188-8.429688-1.835938-12.347656 29.421875-39.726563 44.976563-86.863282 44.976563-136.324219 0-51.464844-16.703125-102.285156-44.667969-135.945313-2.191406-2.632812-2.65625-6.296874-1.203125-9.394531 1.457031-3.097656 4.574219-5.074219 7.992188-5.074219h55.53125c4.875 0 8.828124 3.953126 8.828124 8.828126 0 4.871093-3.953124 8.824218-8.828124 8.824218h-37.976563c23.988281 35.914063 37.976563 84.183594 37.976563 132.761719 0 53.273437-16.746094 104.050781-48.433594 146.835937-1.75 2.332032-4.414063 3.566407-7.117188 3.566407zm0 0"/><path d="m397.242188 512.003906c-4.875 0-8.828126-3.953125-8.828126-8.828125v-37.976562c-35.917968 23.984375-84.179687 37.976562-132.757812 37.976562-53.273438 0-104.050781-16.746093-146.839844-48.4375-3.917968-2.902343-4.738281-8.429687-1.835937-12.347656 2.90625-3.910156 8.421875-4.742187 12.351562-1.835937 39.722657 29.421874 86.871094 44.976562 136.332031 44.976562 51.457032 0 102.277344-16.703125 135.9375-44.667969 2.628907-2.199219 6.292969-2.65625 9.390626-1.199219 3.097656 1.453126 5.078124 4.570313 5.078124 7.988282v55.523437c0 4.875-3.957031 8.828125-8.828124 8.828125zm0 0"/><path d="m64.363281 406.074219h-55.535156c-4.875 0-8.828125-3.957031-8.828125-8.828125 0-4.875 3.953125-8.828125 8.828125-8.828125h37.976563c-23.984376-35.917969-37.976563-84.179688-37.976563-132.757813 0-53.273437 16.746094-104.042968 48.4375-146.839844 2.902344-3.917968 8.421875-4.738281 12.347656-1.835937 3.921875 2.90625 4.742188 8.433594 1.835938 12.351563-29.421875 39.722656-44.976563 86.871093-44.976563 136.324218 0 51.457032 16.703125 102.277344 44.667969 135.945313 2.191406 2.628906 2.65625 6.292969 1.203125 9.390625-1.457031 3.101562-4.566406 5.078125-7.980469 5.078125zm0 0"/><path d="m256 450.210938c-107.085938 0-194.207031-87.117188-194.207031-194.207032 0-107.085937 87.121093-194.207031 194.207031-194.207031s194.207031 87.121094 194.207031 194.207031c0 107.089844-87.121093 194.207032-194.207031 194.207032zm0-370.757813c-97.351562 0-176.550781 79.199219-176.550781 176.550781 0 97.351563 79.199219 176.550782 176.550781 176.550782s176.550781-79.199219 176.550781-176.550782c0-97.351562-79.199219-176.550781-176.550781-176.550781zm0 0"/><path d="m203.421875 360.804688c-10.875 0-43.882813-4.15625-55.046875-53.054688-1.871094-8.214844-2.753906-16.929688-2.71875-26.65625.035156-9.640625-1.226562-33.429688-13.824219-46.082031-5.652343-5.667969-12.941406-8.457031-22.28125-8.535157-3.46875.265626-20.605469.960938-37.640625-9.332031l-5.632812-3.40625 1.660156-6.363281c17.238281-66.445312 69.269531-119.386719 135.769531-138.164062l6.691407-1.886719 3.398437 6.0625c8.121094 14.488281 26.296875 50.335937 19.578125 70.347656-4.757812 14.179687-23.304688 40.5625-60.238281 38.605469-7.347657-.371094-14.417969.21875-20.964844 1.765625-2.402344.5625-4.222656 1.121093-5.570313 1.621093 4.613282 3.109376 15.773438 8.828126 42.414063 17.101563.335937.070313 19.871094 5.128906 31.480469 26.269531 7.96875 14.53125 26.148437 20.453125 41.382812 13.496094 5.703125-2.59375 12.15625-2.328125 17.71875.734375 5.578125 3.082031 9.398438 8.660156 10.238282 14.925781 1.863281 14.082032.53125 40.609375-29.449219 60.089844-7.769531 5.050781-13.992188 11.917969-18.015625 19.871094-6.949219 13.78125-20.851563 22.378906-36.328125 22.492187-.617188.054688-1.5.097657-2.621094.097657zm-94.71875-151.984376h.484375c14.257812 0 26.085938 4.617188 35.152344 13.738282 16.648437 16.71875 19.03125 43.898437 18.96875 58.613281-.035156 8.359375.714844 15.773437 2.277344 22.652344 9.5 41.585937 35.992187 39.652343 38.96875 39.308593l1.144531-.070312c8.910156 0 16.914062-4.898438 20.894531-12.800781 5.421875-10.734375 13.773438-19.976563 24.152344-26.722657 16.660156-10.820312 23.914062-25.269531 21.574218-42.953124-.140624-1.066407-.941406-1.617188-1.277343-1.800782-.433594-.238281-1.113281-.460937-1.835938-.125-23.605469 10.769532-51.800781 1.519532-64.1875-21.0625-7.765625-14.148437-20.292969-17.652344-20.824219-17.796875-48.84375-15.15625-58.339843-24.785156-57.96875-35.457031.433594-12.359375 16.585938-16.171875 21.890626-17.417969 8.175781-1.933593 16.886718-2.683593 25.925781-2.207031 32.714843 1.757812 42.507812-26.304688 42.59375-26.589844 2.933593-8.730468-4.871094-30.59375-14.882813-49.875-55.003906 17.917969-98.152344 61.800782-114.828125 116.78125 11.238281 4.757813 21.167969 3.847656 21.300781 3.839844zm0 0"/><path d="m391.210938 395.9375-6.382813-5.375c-19.453125-16.382812-26.121094-40.914062-19.277344-70.929688 2.328125-10.195312-2.710937-20.671874-12.246093-25.484374-29.984376-15.128907-34.796876-42.320313-34.992188-43.476563-4.183594-37.859375 9.207031-52.515625 21.171875-58.21875 8.71875-4.148437 19.222656-3.695313 28.820313 1.265625 6.277343 3.246094 25.230468 10.183594 65.507812 4.710938l7.71875-1.058594 2.011719 7.53125c4.421875 16.570312 6.664062 33.648437 6.664062 50.75 0 50.175781-18.917969 97.84375-53.273437 134.230468zm-39.027344-188.644531c-1.824219 0-3.554688.363281-5.089844 1.09375-12.316406 5.882812-12.933594 24.941406-11.292969 39.882812.070313.257813 3.734375 19.15625 25.449219 30.121094 16.800781 8.464844 25.644531 27.046875 21.515625 45.171875-4.511719 19.789062-2.015625 35.6875 7.421875 47.394531 27.375-32.125 42.355469-72.722656 42.355469-115.304687 0-13.023438-1.429688-26.023438-4.253907-38.761719-38.507812 4.085937-59.046874-2.789063-68.097656-7.488281-2.699218-1.402344-5.453125-2.109375-8.007812-2.109375zm0 0"/><path d="m326.496094 155.316406c-13.859375 0-25.015625-7.839844-30.226563-13.824218l-1.179687-1.730469c-13.558594-26.144531 16.054687-49.300781 25.785156-56.910157l8.226562-6.859374 5.003907 2.207031c16.613281 7.316406 32.097656 16.886719 46 28.441406l9.792969 8.140625-14.453126 8.261719c-7.183593 4.890625-11.570312 9.65625-13.886718 12.730469-4.414063 5.886718-8.710938 10.019531-13.53125 13.019531-7.566406 4.707031-14.867188 6.523437-21.53125 6.523437zm-16.242188-24.726562c2.957032 2.921875 14.0625 12.15625 28.441406 3.214844 2.90625-1.808594 5.6875-4.554688 8.75-8.644532 2.339844-3.113281 6.160157-7.449218 12.03125-12.199218-8.652343-6.257813-17.867187-11.738282-27.550781-16.355469-25.46875 19.941406-23.5 29.914062-21.671875 33.984375zm0 0"/><path d="m256 450.210938c-18.316406 0-36.546875-2.59375-54.203125-7.722657l-7.132813-2.074219 1.371094-12.324218c.273438-32.832032 27.0625-59.453125 59.964844-59.453125 21.273438 0 39.089844 15.042969 42.363281 35.75 1.660157 10.488281 4.484375 19.96875 8.414063 28.160156l4.730468 9.878906-10.65625 2.523438c-14.765624 3.488281-29.851562 5.261719-44.851562 5.261719zm-42.292969-22.800782c23.78125 5.859375 48.585938 6.734375 72.890625 2.453125-2.492187-7.042969-4.398437-14.644531-5.667968-22.722656-1.882813-11.890625-12.597657-20.859375-24.929688-20.859375-22.933594.007812-41.667969 18.34375-42.292969 41.128906zm0 0"/></svg>