<svg height="512pt" viewBox="0 0 512.00178 512" width="512pt" xmlns="http://www.w3.org/2000/svg"><path d="m452.265625 204.800781c-1.246094 0-2.492187-.265625-3.683594-.84375-4.25-2.039062-6.042969-7.136719-4.003906-11.382812 9.925781-20.6875 10.308594-39.167969 1.042969-50.699219-2.953125-3.675781-2.375-9.042969 1.304687-11.996094 3.667969-2.953125 9.054688-2.371094 11.996094 1.304688 13.550781 16.863281 13.925781 41.925781 1.042969 68.769531-1.476563 3.0625-4.523438 4.847656-7.699219 4.847656zm0 0"/><path d="m435.199219 93.867188c-3.601563 0-6.945313-2.296876-8.113281-5.894532-2.679688-8.269531-10.761719-15.097656-21.589844-18.261718-12.246094-3.578126-24.945313-1.605469-33.136719 5.144531-3.640625 2.996093-9.019531 2.484375-12.015625-1.167969-2.992188-3.636719-2.472656-9.011719 1.164062-12.007812 12.492188-10.292969 31.171876-13.492188 48.765626-8.355469 16.257812 4.746093 28.613281 15.726562 33.042968 29.363281 1.449219 4.480469-1 9.300781-5.480468 10.753906-.878907.289063-1.765626.425782-2.636719.425782zm0 0"/><path d="m256 477.867188c-2.328125 0-4.566406-.957032-6.167969-2.644532-1.640625-1.714844-164.125-171.863281-199.042969-206.582031-73.589843-73.183594-56.292968-171.050781-15.503906-213.574219 35.550782-37.050781 72.054688-55.066406 111.609375-55.066406 44.753907 0 85.261719 27.53125 109.105469 73.003906 23.867188-45.472656 64.488281-73.003906 109.414062-73.003906 39.765626 0 77.339844 18.550781 111.675782 55.132812 21.683594 23.109376 34.730468 58.847657 34.910156 95.625.144531 30.730469-8.492188 76.117188-50.476562 117.882813-34.917969 34.730469-197.714844 204.875-199.355469 206.589844-1.609375 1.691406-3.839844 2.636719-6.167969 2.636719zm-109.105469-460.800782c-34.65625 0-67.132812 16.300782-99.296875 49.820313-35.914062 37.441406-50.609375 124.175781 15.226563 189.652343 31.152343 30.984376 162.984375 168.847657 193.175781 200.449219 30.242188-31.582031 162.328125-169.464843 193.484375-200.449219 65.203125-64.863281 50.695313-151.859374 15.15625-189.722656-30.976563-33.015625-64.359375-49.75-99.226563-49.75-43.230468 0-82.117187 30.492188-101.476562 79.566406-1.289062 3.257813-4.4375 5.402344-7.9375 5.402344s-6.648438-2.144531-7.9375-5.402344c-19.359375-49.074218-58.128906-79.566406-101.167969-79.566406zm0 0"/><path d="m154.863281 281.542969c-10.511719 0-42.417969-4.019531-53.214843-51.289063-1.808594-7.917968-2.660157-16.347656-2.628907-25.769531.042969-11.007813-19.777343-46.453125-50.628906-52.050781l-1.097656-.199219c-8.613281-1.558594-17.511719-3.171875-26.273438-5.894531-4.320312-1.347656-9.167969-2.894532-14.125-4.550782-3.839843-1.277343-6.246093-5.074218-5.777343-9.085937 3.585937-30.429687 16.035156-58.71875 34.167968-77.628906 33.050782-34.457031 66.824219-52.375 103.269532-54.792969 2.835937-.1875 5.667968 1.09375 7.398437 3.414062 33.734375 45.183594 35.703125 59.402344 32.8125 68.027344-.214844.640625-.511719 1.253906-.871094 1.828125-.75 1.195313-18.6875 29.164063-61.796875 26.921875-7.101562-.375-13.9375.203125-20.269531 1.707032-3.105469.734374-4.480469 1.859374-4.742187 2.175781.390624 0 4.828124 10.496093 49.84375 24.472656.324218.070313 19.207031 4.957031 30.429687 25.402344 7.703125 14.039062 25.273437 19.773437 40.003906 13.050781 5.511719-2.511719 11.757813-2.253906 17.125.707031 5.386719 2.976563 9.089844 8.371094 9.890625 14.429688 1.800782 13.601562.511719 39.226562-28.433594 58.0625-6.945312 4.511719-13.074218 11.476562-18.21875 20.675781-6.929687 12.421875-20.070312 20.179688-34.347656 20.292969-.578125.050781-1.433594.09375-2.515625.09375zm-135.816406-153.730469c2.449219.792969 4.8125 1.546875 7.039063 2.238281 7.765624 2.40625 15.769531 3.863281 24.253906 5.398438l1.109375.199219c38.117187 6.917968 64.722656 48.84375 64.648437 68.914062-.035156 8.097656.691406 15.257812 2.199219 21.894531 9.183594 40.203125 34.773437 38.351563 37.667969 38.007813.339844-.03125.777344-.066406 1.109375-.066406 8.207031 0 15.785156-4.429688 19.753906-11.554688 6.511719-11.648438 14.523437-20.625 23.816406-26.667969 16.085938-10.460937 23.089844-24.429687 20.820313-41.511719-.136719-1.035156-.902344-1.5625-1.238282-1.742187-.417968-.230469-1.074218-.445313-1.773437-.121094-22.816406 10.410157-50.066406 1.476563-62.046875-20.351562-7.507812-13.6875-19.617188-17.066407-20.128906-17.203125-42.445313-13.167969-62.625-26.886719-62.097656-42.078125.289062-8.34375 7.089843-15.085938 17.734374-17.59375 7.898438-1.871094 16.324219-2.585938 25.050782-2.132813 28.453125 1.40625 42.171875-13.382812 45.644531-17.820312-.117187-2.746094-2.542969-13.898438-27.507813-47.894532-30.296874 3.300782-58.96875 19.429688-87.492187 49.175782-14.277344 14.863281-24.5 36.777344-28.5625 60.910156zm195.863281 47.222656h.085938zm0 0"/><path d="m333.023438 397.535156c-.964844 0-1.9375-.164062-2.878907-.503906-3.164062-1.136719-5.367187-4.019531-5.628906-7.371094-2.117187-27.402344-2.332031-54.9375 10.347656-70.734375 8.5-10.589843 8.570313-25.667969.171875-36.675781-23.902344-31.359375-15.085937-62.378906-14.695312-63.675781 14.824218-41.632813 48.121094-41.34375 62.363281-41.226563l1 .011719c10.980469.074219 21.519531 5.800781 28.902344 15.699219 4.9375 6.613281 21.152343 23.628906 64.945312 38.75 2.542969.878906 4.523438 2.902344 5.34375 5.460937.816407 2.5625.382813 5.359375-1.171875 7.550781-6.03125 8.476563-12.824218 16.496094-20.207031 23.828126-19.34375 19.234374-77.207031 79.28125-122.339844 126.265624-1.632812 1.707032-3.867187 2.621094-6.152343 2.621094zm46.820312-203.136718c-13.378906 0-33.363281 1.648437-43.28125 29.464843-.117188.496094-6.417969 23.808594 12.058594 48.035157 13.15625 17.261718 12.980468 40.996093-.433594 57.710937-6.667969 8.304687-7.914062 24.925781-7.683594 39.296875 42.574219-44.28125 91.4375-94.917969 108.988282-112.367188 4.039062-4.011718 7.878906-8.242187 11.488281-12.65625-38.625-15.078124-55.332031-31.648437-62.039063-40.625-4.164062-5.582031-9.761718-8.808593-15.34375-8.84375l-1.039062-.007812c-.871094 0-1.777344-.007812-2.714844-.007812zm0 0"/><path d="m221.703125 442.003906c-2.3125 0-4.546875-.941406-6.167969-2.640625-25.054687-26.179687-60.023437-62.675781-91.902344-95.792969-1.664062-1.722656-2.527343-4.070312-2.375-6.460937.15625-2.386719 1.304688-4.605469 3.175782-6.109375 34.714844-27.859375 85.511718-24.046875 115.660156 8.679688 19.679688 21.359374 21.128906 54.375 3.378906 76.789062-5.195312 6.570312-10.035156 13.722656-14.378906 21.257812-1.339844 2.328126-3.703125 3.890626-6.375 4.214844-.324219.035156-.671875.0625-1.015625.0625zm-78.839844-103.066406c26.789063 27.84375 55.058594 57.335938 77.363281 80.640625 3.125-4.761719 6.417969-9.347656 9.867188-13.707031 12.59375-15.90625 11.503906-39.390625-2.542969-54.628906-21.929687-23.808594-57.550781-28.476563-84.6875-12.304688zm0 0"/><path d="m256 512c-168.0625 0-256-36.488281-256-72.53125 0-48.511719 129.460938-64.710938 169.128906-68.515625 2.628906-.222656 5.171875.707031 6.972656 2.585937 34.738282 36.207032 66.84375 69.785157 79.898438 83.449219 13.074219-13.664062 45.234375-47.234375 80.035156-83.441406 1.800782-1.875 4.34375-2.824219 6.960938-2.585937 39.65625 3.816406 169.003906 20.019531 169.003906 68.507812 0 36.042969-87.9375 72.53125-256 72.53125zm-89.335938-123.648438c-97.203124 9.839844-149.597656 33.527344-149.597656 51.117188 0 23.160156 90.898438 55.464844 238.933594 55.464844s238.933594-32.304688 238.933594-55.464844c0-17.570312-52.34375-41.261719-149.460938-51.105469-44.167968 45.957031-83.3125 86.867188-83.3125 86.867188-1.601562 1.691406-3.832031 2.636719-6.160156 2.636719s-4.558594-.957032-6.167969-2.644532c-.011719 0-39.074219-40.910156-83.167969-86.871094zm0 0"/></svg>