<svg height="512pt" viewBox="0 0 512 512" width="512pt" xmlns="http://www.w3.org/2000/svg"><path d="m204.800781 477.867188h-102.402343c-14.113282 0-25.597657-11.488282-25.597657-25.601563s11.484375-25.597656 25.597657-25.597656h102.402343c14.113281 0 25.597657 11.484375 25.597657 25.597656s-11.484376 25.601563-25.597657 25.601563zm-102.402343-34.132813c-4.707032 0-8.53125 3.832031-8.53125 8.53125 0 4.703125 3.824218 8.535156 8.53125 8.535156h102.402343c4.710938 0 8.53125-3.832031 8.53125-8.535156 0-4.699219-3.820312-8.53125-8.53125-8.53125zm0 0"/><path d="m204.800781 443.734375h-102.402343c-14.113282 0-25.597657-11.488281-25.597657-25.601563 0-14.113281 11.484375-25.597656 25.597657-25.597656h102.402343c14.113281 0 25.597657 11.484375 25.597657 25.597656 0 14.113282-11.484376 25.601563-25.597657 25.601563zm-102.402343-34.132813c-4.707032 0-8.53125 3.828126-8.53125 8.53125 0 4.703126 3.824218 8.535157 8.53125 8.535157h102.402343c4.710938 0 8.53125-3.832031 8.53125-8.535157 0-4.703124-3.820312-8.53125-8.53125-8.53125zm0 0"/><path d="m193.878906 512h-80.554687c-10.726563 0-19.457031-8.730469-19.457031-19.457031v-23.210938c0-4.710937 3.824218-8.53125 8.53125-8.53125h102.402343c4.710938 0 8.53125 3.820313 8.53125 8.53125v23.210938c0 10.726562-8.726562 19.457031-19.453125 19.457031zm-82.945312-34.132812v14.675781c0 1.316406 1.074218 2.390625 2.390625 2.390625h80.554687c1.3125 0 2.386719-1.066406 2.386719-2.390625v-14.675781zm0 0"/><path d="m162.132812 213.332031c-4.710937 0-8.53125-3.820312-8.53125-8.53125v-196.265625c0-4.710937 3.820313-8.535156 8.53125-8.535156 4.710938 0 8.535157 3.824219 8.535157 8.535156v196.265625c0 4.710938-3.824219 8.53125-8.535157 8.53125zm0 0"/><path d="m83.054688 161.511719c-20.503907 0-43.664063-6.757813-62.164063-28.339844-1.066406-1.347656-20.890625-27.070313-20.890625-73.4375 0-3.074219 1.65625-5.90625 4.328125-7.425781 2.679687-1.507813 5.964844-1.476563 8.589844.101562.273437.164063 26.8125 15.855469 55.347656 15.855469.753906-.023437 21.898437-.144531 38.964844 16.65625 13.78125 13.570313 20.769531 33.800781 20.769531 60.144531 0 3.261719-1.859375 6.238282-4.796875 7.671875-9.25 4.503907-23.859375 8.773438-40.148437 8.773438zm-65.28125-87.648438c3.191406 31.464844 16.15625 48.292969 16.308593 48.488281 26.828125 31.292969 63.503907 21.886719 76.730469 17.066407-.859375-18.78125-6.074219-33.007813-15.554688-42.335938-11.808593-11.628906-26.941406-11.730469-26.855468-11.75-20.035156 0-38.636719-6.269531-50.628906-11.46875zm0 0"/><path d="m162.132812 170.667969c-1.058593 0-2.125-.199219-3.164062-.617188l-42.667969-17.066406c-4.378906-1.757813-6.503906-6.714844-4.753906-11.09375 1.75-4.375 6.726563-6.484375 11.09375-4.75l42.667969 17.066406c4.375 1.757813 6.5 6.714844 4.753906 11.09375-1.339844 3.335938-4.550781 5.367188-7.929688 5.367188zm0 0"/><path d="m162.140625 136.535156c-2.59375 0-5.152344-1.179687-6.832031-3.414062-2.828125-3.773438-2.066406-9.125 1.703125-11.949219l34.136719-25.597656c3.769531-2.832031 9.121093-2.058594 11.945312 1.707031 2.824219 3.769531 2.066406 9.121094-1.707031 11.945312l-34.132813 25.601563c-1.535156 1.152344-3.335937 1.707031-5.113281 1.707031zm0 0"/><path d="m119.457031 153.601562c-1.433593 0-2.890625-.359374-4.222656-1.128906l-59.734375-34.132812c-4.085938-2.335938-5.511719-7.550782-3.171875-11.640625 2.335937-4.09375 7.550781-5.511719 11.636719-3.171875l59.734375 34.132812c4.085937 2.335938 5.511719 7.550782 3.175781 11.640625-1.570312 2.753907-4.457031 4.300781-7.417969 4.300781zm0 0"/><path d="m232.566406 119.433594c-16.261718 0-30.8125-4.257813-40.027344-8.746094-2.945312-1.433594-4.804687-4.414062-4.804687-7.671875 0-26.34375 6.988281-46.574219 20.769531-60.144531 17.066406-16.800782 38.210938-16.648438 39.089844-16.65625 28.398438 0 54.945312-15.691406 55.210938-15.847656 2.628906-1.578126 5.921874-1.613282 8.59375-.101563 2.679687 1.511719 4.335937 4.34375 4.335937 7.414063 0 46.371093-19.824219 72.089843-20.660156 73.167968-18.664063 21.773438-41.949219 28.585938-62.507813 28.585938zm-27.636718-22.078125c13.226562 4.824219 49.933593 14.191406 76.960937-17.347657-.015625 0 12.851563-17.089843 16.058594-48.195312-11.980469 5.207031-30.539063 11.46875-50.484375 11.46875-.304688 0-15.359375.144531-27.183594 11.9375-9.347656 9.335938-14.5 23.492188-15.351562 42.136719zm0 0"/><path d="m196.273438 111.546875c-2.960938 0-5.84375-1.542969-7.414063-4.300781-2.335937-4.085938-.914063-9.300782 3.175781-11.636719l59.730469-34.136719c4.097656-2.328125 9.304687-.910156 11.640625 3.175782 2.339844 4.085937.914062 9.300781-3.171875 11.640624l-59.734375 34.132813c-1.332031.757813-2.792969 1.125-4.226562 1.125zm0 0"/><path d="m204.730469 409.601562h-102.398438c-20.734375 0-34.132812-23.449218-34.132812-59.734374 0-25.25-35.609375-92.390626-49.332031-116.121094-4.378907-9.207032-7.074219-17.359375-9.933594-26.359375-.820313-2.59375-.359375-5.429688 1.246094-7.621094 1.605468-2.203125 4.164062-3.5 6.886718-3.5h273.441406c2.722657 0 5.28125 1.296875 6.886719 3.5 1.605469 2.191406 2.066407 5.027344 1.246094 7.621094-2.753906 8.675781-6.160156 17.339843-10.128906 25.726562-14.035157 24.371094-49.648438 91.519531-49.648438 116.753907 0 36.285156-13.394531 59.734374-34.132812 59.734374zm-175.84375-196.269531c1.507812 4.25 3.128906 8.363281 5.085937 12.492188 4.957032 8.519531 51.292969 89.679687 51.292969 124.042969 0 23.925781 7.492187 42.667968 17.066406 42.667968h102.398438c9.574219 0 17.066406-18.742187 17.066406-42.667968 0-34.363282 46.335937-115.523438 51.621094-124.664063 1.757812-3.753906 3.453125-7.757813 5.050781-11.871094zm0 0"/><path d="m238.738281 324.265625h-170.421875c-3.558594 0-6.738281-2.210937-7.996094-5.535156-5.246093-14.023438-12.917968-30.953125-22.78125-50.324219-1.347656-2.644531-1.222656-5.800781.332032-8.335938 1.554687-2.527343 4.308594-4.070312 7.277344-4.070312h216.765624c2.96875 0 5.726563 1.542969 7.277344 4.078125 1.554688 2.527344 1.683594 5.691406.332032 8.335937-9.863282 19.371094-17.535157 36.304688-22.78125 50.324219-1.265626 3.316407-4.445313 5.527344-8.003907 5.527344zm-164.566406-17.066406h158.710937c4.035157-10.171875 9.140626-21.597657 15.242188-34.132813h-189.195312c6.113281 12.535156 11.207031 23.960938 15.242187 34.132813zm0 0"/><path d="m469.332031 230.398438c-23.523437 0-42.664062-19.140626-42.664062-42.664063v-34.132813c0-4.710937 3.820312-8.535156 8.53125-8.535156h68.265625c4.710937 0 8.535156 3.824219 8.535156 8.535156v34.132813c0 23.523437-19.140625 42.664063-42.667969 42.664063zm-25.597656-68.265626v25.601563c0 14.113281 11.484375 25.597656 25.597656 25.597656 14.117188 0 25.601563-11.484375 25.601563-25.597656v-25.601563zm0 0"/><path d="m486.398438 162.132812c-4.707032 0-8.53125-3.824218-8.53125-8.53125v-42.667968c0-4.710938 3.824218-8.535156 8.53125-8.535156 4.710937 0 8.535156 3.824218 8.535156 8.535156v42.667968c0 4.707032-3.824219 8.53125-8.535156 8.53125zm0 0"/><path d="m452.265625 162.132812c-4.710937 0-8.53125-3.824218-8.53125-8.53125v-42.667968c0-4.710938 3.820313-8.535156 8.53125-8.535156s8.535156 3.824218 8.535156 8.535156v42.667968c0 4.707032-3.824219 8.53125-8.535156 8.53125zm0 0"/><path d="m486.398438 264.535156h-34.132813c-4.710937 0-8.53125-3.824218-8.53125-8.535156v-38.871094c0-3.054687 1.628906-5.871094 4.28125-7.398437 2.648437-1.515625 5.90625-1.507813 8.542969.027343 8.148437 4.746094 17.398437 4.746094 25.550781 0 2.636719-1.542968 5.894531-1.542968 8.539063-.027343 2.65625 1.527343 4.285156 4.34375 4.285156 7.398437v38.871094c0 4.710938-3.824219 8.535156-8.535156 8.535156zm-25.597657-17.070312h17.066407v-17.953125c-5.589844 1.1875-11.476563 1.1875-17.066407 0zm0 0"/><path d="m443.734375 486.398438c-18.824219 0-34.132813-15.308594-34.132813-34.132813v-179.199219c0-9.410156-7.65625-17.066406-17.066406-17.066406-9.414062 0-17.070312 7.65625-17.070312 17.066406v119.46875c0 18.824219-15.308594 34.132813-34.132813 34.132813s-34.132812-15.308594-34.132812-34.132813v-17.070312c0-9.410156-7.652344-17.066406-17.066407-17.066406h-59.734374c-4.707032 0-8.53125-3.820313-8.53125-8.53125 0-4.710938 3.824218-8.535157 8.53125-8.535157h59.734374c18.824219 0 34.132813 15.308594 34.132813 34.132813v17.070312c0 9.410156 7.65625 17.066406 17.066406 17.066406 9.414063 0 17.066407-7.65625 17.066407-17.066406v-119.46875c0-18.824218 15.308593-34.132812 34.136718-34.132812 18.824219 0 34.132813 15.308594 34.132813 34.132812v179.199219c0 9.414063 7.652343 17.066406 17.066406 17.066406 9.410156 0 17.066406-7.652343 17.066406-17.066406v-196.265625c0-4.710938 3.820313-8.535156 8.53125-8.535156 4.710938 0 8.535157 3.824218 8.535157 8.535156v196.265625c0 18.824219-15.308594 34.132813-34.132813 34.132813zm0 0"/></svg>