<svg height="512pt" viewBox="-34 0 512 512" width="512pt" xmlns="http://www.w3.org/2000/svg"><path d="m221.867188 512c-1.179688 0-2.363282-.246094-3.464844-.734375-138.792969-61.6875-218.402344-207.597656-218.402344-400.332031 0-3.285156 1.886719-6.273438 4.839844-7.6875l213.332031-102.402344c2.328125-1.125 5.050781-1.125 7.382813 0l213.332031 102.402344c2.960937 1.421875 4.839843 4.410156 4.839843 7.6875 0 192.726562-79.609374 338.644531-218.402343 400.332031-1.09375.488281-2.28125.734375-3.457031.734375zm-204.785157-395.707031c1.433594 181.390625 75.835938 318.667969 204.785157 377.8125 128.9375-59.144531 203.347656-196.421875 204.78125-377.8125l-204.78125-98.296875zm0 0"/><path d="m221.867188 469.332031c-1.324219 0-2.644532-.304687-3.859376-.921875-152.054687-76.96875-180.46875-240.765625-183.867187-331.550781-.125-3.40625 1.777344-6.5625 4.855469-8.023437l179.203125-85.332032c2.320312-1.109375 5.015625-1.109375 7.335937 0l179.199219 85.332032c3.074219 1.46875 4.984375 4.625 4.855469 8.023437-3.402344 90.785156-31.820313 254.589844-183.875 331.550781-1.210938.617188-2.527344.921875-3.847656.921875zm-170.4375-327.523437c4.171874 87.210937 32.546874 237.121094 170.4375 309.390625 137.890624-72.269531 166.261718-222.179688 170.4375-309.390625l-170.4375-81.164063zm0 0"/><path d="m221.867188 375.464844c-65.878907 0-119.46875-53.585938-119.46875-119.464844s53.589843-119.464844 119.46875-119.464844c65.875 0 119.464843 53.585938 119.464843 119.464844s-53.589843 119.464844-119.464843 119.464844zm0-221.863282c-56.464844 0-102.402344 45.933594-102.402344 102.398438s45.9375 102.398438 102.402344 102.398438c56.464843 0 102.398437-45.933594 102.398437-102.398438s-45.941406-102.398438-102.398437-102.398438zm0 0"/><path d="m162.132812 290.132812h-48.109374c-3.953126 0-7.390626-2.722656-8.304688-6.570312-2.199219-9.300781-3.320312-18.578125-3.320312-27.5625 0-43.144531 23.441406-83.082031 61.175781-104.234375 3.335937-1.851563 7.503906-1.28125 10.207031 1.417969l37.050781 37.050781c1.605469 1.601563 2.5 3.769531 2.5 6.03125v25.601563c0 2.261718-.894531 4.4375-2.5 6.03125l-32.707031 32.710937-7.894531 23.6875c-1.167969 3.488281-4.429688 5.835937-8.097657 5.835937zm-41.15625-17.066406h35.003907l6.589843-19.761718c.417969-1.253907 1.125-2.398438 2.0625-3.335938l31.632813-31.636719v-18.53125l-29.839844-29.84375c-29.125 18.800781-46.960937 51.203125-46.960937 86.042969 0 5.5625.503906 11.28125 1.511718 17.066406zm0 0"/><path d="m307.199219 264.535156c-1.636719 0-3.292969-.472656-4.734375-1.433594l-25.601563-17.070312c-1.238281-.824219-2.234375-1.953125-2.902343-3.285156l-8.53125-17.066406c-.589844-1.183594-.894532-2.492188-.894532-3.8125v-34.132813c0-1.085937.203125-2.160156.613282-3.175781l9.753906-24.371094c.945312-2.378906 2.925781-4.207031 5.367187-4.976562 2.441407-.765626 5.109375-.390626 7.253907 1.015624 26.800781 17.675782 45.617187 45.824219 51.625 77.21875.5625 2.953126-.46875 5.992188-2.714844 7.988282l-23.558594 20.941406c-1.613281 1.433594-3.636719 2.160156-5.675781 2.160156zm-18.976563-31.445312 18.234375 12.148437 14.917969-13.257812c-5.214844-21.589844-17.527344-41.105469-34.722656-55.222657l-5.042969 12.613282v30.480468zm0 0"/><path d="m221.867188 375.464844c-19.398438 0-37.980469-4.570313-55.226563-13.582032-3.882813-2.03125-5.597656-6.664062-3.96875-10.734374l8.609375-21.515626c.425781-1.066406 1.066406-2.046874 1.886719-2.855468l25.597656-25.601563c1.605469-1.605469 3.773437-2.5 6.035156-2.5h24.550781l33.117188-8.277343c1.960938-.503907 4.0625-.265626 5.878906.648437l17.066406 8.53125c1.332032.667969 2.464844 1.664063 3.285157 2.902344l18.363281 27.554687c2.269531 3.394532 1.808594 7.917969-1.089844 10.792969-22.53125 22.332031-52.40625 34.636719-84.105468 34.636719zm-40.378907-25.402344c12.78125 5.53125 26.332031 8.335938 40.378907 8.335938 24.839843 0 48.359374-8.8125 66.96875-24.957032l-13.082032-19.621094-12.21875-6.109374-31.070312 7.765624c-.683594.171876-1.382813.257813-2.082032.257813h-22.058593l-21.863281 21.863281zm0 0"/></svg>