<svg height="512pt" viewBox="-136 0 511 512" width="512pt" xmlns="http://www.w3.org/2000/svg"><path d="m213.789062 512h-187.644531c-14.140625 0-25.644531-11.503906-25.644531-25.644531v-16.980469c0-14.140625 11.503906-25.640625 25.644531-25.640625 4.707031 0 8.53125 3.820313 8.53125 8.53125s-3.824219 8.535156-8.53125 8.535156c-4.730469 0-8.578125 3.847657-8.578125 8.574219v16.980469c0 4.730469 3.847656 8.578125 8.578125 8.578125h187.644531c4.730469 0 8.578126-3.847656 8.578126-8.578125v-16.980469c0-4.726562-3.847657-8.574219-8.578126-8.574219-4.707031 0-8.53125-3.824219-8.53125-8.535156s3.824219-8.53125 8.53125-8.53125c14.140626 0 25.644532 11.5 25.644532 25.640625v16.980469c0 14.140625-11.503906 25.644531-25.644532 25.644531zm0 0"/><path d="m222.367188 409.601562h-204.800782c-4.710937 0-8.53125-3.824218-8.53125-8.535156v-170.667968c0-4.707032 3.820313-8.53125 8.53125-8.53125h204.800782c4.710937 0 8.53125 3.824218 8.53125 8.53125v170.667968c0 4.710938-3.820313 8.535156-8.53125 8.535156zm-196.265626-17.066406h187.730469v-153.601562h-187.730469zm0 0"/><path d="m213.832031 187.734375h-187.730469c-4.710937 0-8.535156-3.824219-8.535156-8.535156v-29.941407c0-10.582031 4.609375-20.601562 12.636719-27.480468l50.074219-42.921875c1.554687-1.332031 3.515625-2.054688 5.554687-2.054688h68.269531c2.039063 0 4 .722657 5.554688 2.054688l50.074219 42.921875c8.027343 6.878906 12.636719 16.898437 12.636719 27.480468v29.941407c0 4.710937-3.824219 8.535156-8.535157 8.535156zm-179.199219-17.066406h170.667969v-21.410157c0-5.589843-2.433593-10.882812-6.675781-14.523437l-47.683594-40.867187h-61.949218l-47.675782 40.867187c-4.25 3.632813-6.683594 8.925781-6.683594 14.523437zm0 0"/><path d="m154.101562 93.867188h-68.269531c-4.710937 0-8.53125-3.824219-8.53125-8.535157v-34.132812c0-4.710938 3.820313-8.53125 8.53125-8.53125h68.269531c4.707032 0 8.53125 3.820312 8.53125 8.53125v34.132812c0 4.710938-3.824218 8.535157-8.53125 8.535157zm-59.734374-17.066407h51.199218v-17.066406h-51.199218zm0 0"/><path d="m154.101562 460.800781h-128c-4.710937 0-8.535156-3.824219-8.535156-8.535156s3.824219-8.53125 8.535156-8.53125h128c4.707032 0 8.53125 3.820313 8.53125 8.53125s-3.824218 8.535156-8.53125 8.535156zm0 0"/><path d="m213.832031 460.800781h-17.066406c-4.710937 0-8.53125-3.824219-8.53125-8.535156s3.820313-8.53125 8.53125-8.53125h17.066406c4.710938 0 8.535157 3.820313 8.535157 8.53125s-3.824219 8.535156-8.535157 8.535156zm0 0"/><path d="m162.421875 59.734375h-84.910156c-9.53125 0-17.277344-7.75-17.277344-17.28125v-25.171875c0-9.53125 7.746094-17.28125 17.277344-17.28125h84.910156c9.53125 0 17.277344 7.75 17.277344 17.28125v25.171875c0 9.53125-7.746094 17.28125-17.277344 17.28125zm-84.910156-42.667969-.210938 25.386719 85.121094.214844c.117187 0 .210937-.09375.210937-.214844v-25.171875zm0 0"/><path d="m205.300781 238.933594h-170.667969c-4.710937 0-8.53125-3.824219-8.53125-8.535156v-51.199219c0-4.710938 3.820313-8.53125 8.53125-8.53125h170.667969c4.710938 0 8.53125 3.820312 8.53125 8.53125v51.199219c0 4.710937-3.820312 8.535156-8.53125 8.535156zm-162.132812-17.066406h153.597656v-34.132813h-153.597656zm0 0"/><path d="m205.300781 460.800781c-4.710937 0-8.535156-3.824219-8.535156-8.535156v-42.664063h-153.597656v42.664063c0 4.710937-3.824219 8.535156-8.535157 8.535156-4.710937 0-8.53125-3.824219-8.53125-8.535156v-51.199219c0-4.710937 3.820313-8.53125 8.53125-8.53125h170.667969c4.710938 0 8.53125 3.820313 8.53125 8.53125v51.199219c0 4.710937-3.820312 8.535156-8.53125 8.535156zm0 0"/><path d="m128.5 375.464844c-32.9375 0-59.734375-26.792969-59.734375-59.730469v-25.601563c0-4.710937 3.824219-8.53125 8.535156-8.53125 4.710938 0 8.53125 3.820313 8.53125 8.53125v25.601563c0 23.523437 19.140625 42.664063 42.667969 42.664063s42.667969-19.140626 42.667969-42.664063c0-23.527344-19.140625-42.667969-42.667969-42.667969-4.710938 0-8.535156-3.824218-8.535156-8.53125 0-4.710937 3.824218-8.535156 8.535156-8.535156 32.9375 0 59.734375 26.792969 59.734375 59.734375 0 32.9375-26.796875 59.730469-59.734375 59.730469zm0 0"/><path d="m51.699219 324.265625c-2.183594 0-4.367188-.835937-6.03125-2.5-3.335938-3.335937-3.335938-8.730469 0-12.066406l25.597656-25.597657c3.328125-3.335937 8.738281-3.335937 12.066406 0 3.335938 3.335938 3.335938 8.726563 0 12.066407l-25.597656 25.597656c-1.664063 1.664063-3.851563 2.5-6.035156 2.5zm0 0"/><path d="m102.898438 324.265625c-2.183594 0-4.367188-.835937-6.03125-2.5l-25.601563-25.597656c-3.335937-3.339844-3.335937-8.730469 0-12.066407 3.328125-3.335937 8.738281-3.335937 12.066406 0l25.601563 25.597657c3.335937 3.335937 3.335937 8.730469 0 12.066406-1.664063 1.664063-3.847656 2.5-6.035156 2.5zm0 0"/></svg>