<svg height="512pt" viewBox="-111 0 512 512" width="512pt" xmlns="http://www.w3.org/2000/svg"><path d="m290.132812 443.734375h-290.132812v-375.46875h290.132812zm-273.066406-17.066406h256v-341.335938h-256zm0 0"/><path d="m290.132812 85.332031h-290.132812v-55.0625c0-16.691406 13.578125-30.269531 30.269531-30.269531h229.605469c16.683594 0 30.257812 13.578125 30.257812 30.269531zm-273.066406-17.066406h256v-37.996094c0-7.28125-5.921875-13.203125-13.199218-13.203125h-229.597657c-7.28125 0-13.203125 5.921875-13.203125 13.203125zm0 0"/><path d="m259.867188 512h-229.597657c-16.691406 0-30.269531-13.578125-30.269531-30.269531v-55.0625h290.132812v55.0625c0 16.691406-13.574218 30.269531-30.265624 30.269531zm-242.800782-68.265625v37.996094c0 7.28125 5.921875 13.203125 13.203125 13.203125h229.605469c7.269531 0 13.191406-5.921875 13.191406-13.203125v-37.996094zm0 0"/><path d="m145.066406 512c-23.527344 0-42.667968-19.140625-42.667968-42.667969 0-23.523437 19.140624-42.664062 42.667968-42.664062s42.667969 19.140625 42.667969 42.664062c0 23.527344-19.140625 42.667969-42.667969 42.667969zm0-68.265625c-14.113281 0-25.601562 11.484375-25.601562 25.597656 0 14.117188 11.488281 25.601563 25.601562 25.601563 14.113282 0 25.601563-11.484375 25.601563-25.601563 0-14.113281-11.488281-25.597656-25.601563-25.597656zm0 0"/><path d="m170.667969 51.199219h-51.203125c-4.707032 0-8.53125-3.820313-8.53125-8.53125 0-4.710938 3.824218-8.535157 8.53125-8.535157h51.203125c4.710937 0 8.53125 3.824219 8.53125 8.535157 0 4.710937-3.820313 8.53125-8.53125 8.53125zm0 0"/><path d="m119.066406 238.933594h-34.132812c-3.234375 0-6.1875-1.828125-7.636719-4.71875l-17.070313-34.132813c-2.105468-4.214843-.398437-9.34375 3.816407-11.453125 4.207031-2.125 9.335937-.410156 11.453125 3.816406l14.710937 29.421876h28.859375c4.710938 0 8.53125 3.824218 8.53125 8.53125 0 4.710937-3.820312 8.535156-8.53125 8.535156zm0 0"/><path d="m84.933594 238.933594c-.992188 0-2.007813-.179688-2.996094-.546875-4.414062-1.65625-6.648438-6.578125-4.992188-10.992188 9.292969-24.769531 20.753907-44.832031 34.066407-59.605469 7.960937-8.839843 19.316406-14.027343 31.136719-14.222656 11.894531-.300781 23.058593 4.445313 31.359374 13.0625 6.792969 7.058594 13.738282 15.300782 20.652344 24.507813 2.824219 3.773437 2.0625 9.125-1.707031 11.949219-3.773437 2.839843-9.113281 2.0625-11.949219-1.707032-6.484375-8.652344-12.976562-16.359375-19.285156-22.914062-4.980469-5.167969-11.671875-7.984375-18.78125-7.832032-7.210938.121094-13.867188 3.164063-18.746094 8.585938-11.878906 13.183594-22.230468 31.410156-30.761718 54.175781-1.289063 3.421875-4.542969 5.539063-7.996094 5.539063zm0 0"/><path d="m127.597656 341.332031c-2.183594 0-4.367187-.835937-6.03125-2.5l-25.601562-25.597656c-3.335938-3.335937-3.335938-8.730469 0-12.066406 3.328125-3.335938 8.738281-3.335938 12.066406 0l25.601562 25.597656c3.335938 3.335937 3.335938 8.730469 0 12.066406-1.664062 1.664063-3.847656 2.5-6.035156 2.5zm0 0"/><path d="m102 366.933594c-2.1875 0-4.371094-.835938-6.035156-2.5-3.335938-3.335938-3.335938-8.730469 0-12.066406l25.601562-25.601563c3.328125-3.335937 8.738282-3.335937 12.066406 0 3.335938 3.335937 3.335938 8.730469 0 12.066406l-25.601562 25.601563c-1.664062 1.664062-3.847656 2.5-6.03125 2.5zm0 0"/><path d="m188.800781 263.074219c-2.183593 0-4.371093-.835938-6.035156-2.5-3.335937-3.335938-3.335937-8.730469 0-12.066407l24.132813-24.140624c2.289062-2.277344 5.667968-3.082032 8.730468-2.066407l36.207032 12.066407c4.472656 1.496093 6.886718 6.324218 5.402343 10.796874-1.484375 4.46875-6.324219 6.902344-10.796875 5.390626l-31.195312-10.402344-20.40625 20.414062c-1.671875 1.671875-3.855469 2.507813-6.039063 2.507813zm0 0"/><path d="m127.597656 341.332031h-51.003906c-9.597656 0-18.394531-2.421875-25.429688-7.011719-9.34375-6.101562-15.085937-14.695312-16.613281-24.84375-3.582031-23.910156 17.332031-49.328124 18.21875-50.40625 3.011719-3.617187 8.378907-4.101562 12.007813-1.089843 3.617187 3.011719 4.121094 8.378906 1.117187 12.015625-4.71875 5.691406-16.511719 23.449218-14.464843 36.980468.8125 5.335938 3.773437 9.601563 9.054687 13.050782 5.382813 3.503906 11.734375 4.238281 16.109375 4.238281h51.003906c4.710938 0 8.535156 3.824219 8.535156 8.535156 0 4.710938-3.824218 8.53125-8.535156 8.53125zm0 0"/><path d="m162.132812 341.332031c-4.710937 0-8.53125-3.8125-8.53125-8.523437 0-4.710938 3.8125-8.535156 8.523438-8.542969l33.730469-.03125c6.28125.195313 12.410156-2.5625 17.230469-7.546875 5.835937-6.03125 9.0625-14.511719 8.636718-22.6875-.929687-17.726562-6.496094-37.933594-16.554687-60.066406-1.957031-4.285156-.050781-9.34375 4.238281-11.300782 4.300781-1.945312 9.355469-.050781 11.300781 4.242188 10.949219 24.082031 17.023438 46.371094 18.054688 66.238281.675781 12.816407-4.34375 26.074219-13.414063 35.445313-8.148437 8.421875-18.6875 12.808594-29.644531 12.75zm0 0"/><path d="m196.265625 128h-153.597656c-4.710938 0-8.535157-3.824219-8.535157-8.535156 0-4.707032 3.824219-8.53125 8.535157-8.53125h153.597656c4.710937 0 8.535156 3.824218 8.535156 8.53125 0 4.710937-3.824219 8.535156-8.535156 8.535156zm0 0"/><path d="m247.464844 128h-17.066406c-4.707032 0-8.53125-3.824219-8.53125-8.535156 0-4.707032 3.824218-8.53125 8.53125-8.53125h17.066406c4.710937 0 8.535156 3.824218 8.535156 8.53125 0 4.710937-3.824219 8.535156-8.535156 8.535156zm0 0"/><path d="m247.464844 401.066406h-153.597656c-4.710938 0-8.535157-3.824218-8.535157-8.53125 0-4.710937 3.824219-8.535156 8.535157-8.535156h153.597656c4.710937 0 8.535156 3.824219 8.535156 8.535156 0 4.707032-3.824219 8.53125-8.535156 8.53125zm0 0"/><path d="m59.734375 401.066406h-17.066406c-4.710938 0-8.535157-3.824218-8.535157-8.53125 0-4.710937 3.824219-8.535156 8.535157-8.535156h17.066406c4.710937 0 8.53125 3.824219 8.53125 8.535156 0 4.707032-3.820313 8.53125-8.53125 8.53125zm0 0"/></svg>