<svg height="512pt" viewBox="-12 0 511 512" width="512pt" xmlns="http://www.w3.org/2000/svg"><path d="m290.632812 443.734375h-290.132812v-375.46875h290.132812zm-273.066406-17.066406h256v-341.335938h-256zm0 0"/><path d="m290.632812 85.332031h-290.132812v-55.0625c0-16.691406 13.578125-30.269531 30.269531-30.269531h229.605469c16.683594 0 30.257812 13.578125 30.257812 30.269531zm-273.066406-17.066406h256v-37.996094c0-7.28125-5.921875-13.203125-13.199218-13.203125h-229.597657c-7.28125 0-13.203125 5.921875-13.203125 13.203125zm0 0"/><path d="m260.367188 512h-229.597657c-16.691406 0-30.269531-13.578125-30.269531-30.269531v-55.0625h290.132812v55.0625c0 16.691406-13.574218 30.269531-30.265624 30.269531zm-242.800782-68.265625v37.996094c0 7.28125 5.921875 13.203125 13.203125 13.203125h229.605469c7.269531 0 13.191406-5.921875 13.191406-13.203125v-37.996094zm0 0"/><path d="m145.566406 512c-23.527344 0-42.667968-19.140625-42.667968-42.667969 0-23.523437 19.140624-42.664062 42.667968-42.664062s42.667969 19.140625 42.667969 42.664062c0 23.527344-19.140625 42.667969-42.667969 42.667969zm0-68.265625c-14.113281 0-25.601562 11.484375-25.601562 25.597656 0 14.117188 11.488281 25.601563 25.601562 25.601563 14.113282 0 25.601563-11.484375 25.601563-25.601563 0-14.113281-11.488281-25.597656-25.601563-25.597656zm0 0"/><path d="m171.167969 51.199219h-51.203125c-4.707032 0-8.53125-3.820313-8.53125-8.53125 0-4.710938 3.824218-8.535157 8.53125-8.535157h51.203125c4.710937 0 8.53125 3.824219 8.53125 8.535157 0 4.710937-3.820313 8.53125-8.53125 8.53125zm0 0"/><path d="m85.832031 153.601562h-34.132812c-4.710938 0-8.53125-3.824218-8.53125-8.535156v-34.132812c0-4.710938 3.820312-8.535156 8.53125-8.535156h34.132812c4.710938 0 8.535157 3.824218 8.535157 8.535156v34.132812c0 4.710938-3.824219 8.535156-8.535157 8.535156zm-25.597656-17.066406h17.066406v-17.070312h-17.066406zm0 0"/><path d="m239.433594 153.601562h-34.132813c-4.710937 0-8.535156-3.824218-8.535156-8.535156v-34.132812c0-4.710938 3.824219-8.535156 8.535156-8.535156h34.132813c4.710937 0 8.53125 3.824218 8.53125 8.535156v34.132812c0 4.710938-3.820313 8.535156-8.53125 8.535156zm-25.601563-17.066406h17.066407v-17.070312h-17.066407zm0 0"/><path d="m162.632812 153.601562h-34.132812c-4.710938 0-8.535156-3.824218-8.535156-8.535156v-34.132812c0-4.710938 3.824218-8.535156 8.535156-8.535156h34.132812c4.710938 0 8.535157 3.824218 8.535157 8.535156v34.132812c0 4.710938-3.824219 8.535156-8.535157 8.535156zm-25.597656-17.066406h17.066406v-17.070312h-17.066406zm0 0"/><path d="m85.832031 341.332031h-34.132812c-4.710938 0-8.53125-3.820312-8.53125-8.53125v-153.601562c0-4.710938 3.820312-8.53125 8.53125-8.53125h34.132812c4.710938 0 8.535157 3.820312 8.535157 8.53125v153.601562c0 4.710938-3.824219 8.53125-8.535157 8.53125zm-25.597656-17.066406h17.066406v-136.53125h-17.066406zm0 0"/><path d="m239.433594 341.332031h-34.132813c-4.710937 0-8.535156-3.820312-8.535156-8.53125v-153.601562c0-4.710938 3.824219-8.53125 8.535156-8.53125h34.132813c4.710937 0 8.53125 3.820312 8.53125 8.53125v153.601562c0 4.710938-3.820313 8.53125-8.53125 8.53125zm-25.601563-17.066406h17.066407v-136.53125h-17.066407zm0 0"/><path d="m162.632812 341.332031h-34.132812c-4.710938 0-8.535156-3.820312-8.535156-8.53125v-153.601562c0-4.710938 3.824218-8.53125 8.535156-8.53125h34.132812c4.710938 0 8.535157 3.820312 8.535157 8.53125v153.601562c0 4.710938-3.824219 8.53125-8.535157 8.53125zm-25.597656-17.066406h17.066406v-136.53125h-17.066406zm0 0"/><path d="m85.832031 409.601562h-34.132812c-4.710938 0-8.53125-3.824218-8.53125-8.535156v-34.132812c0-4.710938 3.820312-8.535156 8.53125-8.535156h34.132812c4.710938 0 8.535157 3.824218 8.535157 8.535156v34.132812c0 4.710938-3.824219 8.535156-8.535157 8.535156zm-25.597656-17.066406h17.066406v-17.070312h-17.066406zm0 0"/><path d="m239.433594 409.601562h-34.132813c-4.710937 0-8.535156-3.824218-8.535156-8.535156v-34.132812c0-4.710938 3.824219-8.535156 8.535156-8.535156h34.132813c4.710937 0 8.53125 3.824218 8.53125 8.535156v34.132812c0 4.710938-3.820313 8.535156-8.53125 8.535156zm-25.601563-17.066406h17.066407v-17.070312h-17.066407zm0 0"/><path d="m162.632812 409.601562h-34.132812c-4.710938 0-8.535156-3.824218-8.535156-8.535156v-34.132812c0-4.710938 3.824218-8.535156 8.535156-8.535156h34.132812c4.710938 0 8.535157 3.824218 8.535157 8.535156v34.132812c0 4.710938-3.824219 8.535156-8.535157 8.535156zm-25.597656-17.066406h17.066406v-17.070312h-17.066406zm0 0"/><path d="m427.167969 162.132812c-32.941407 0-59.734375-26.792968-59.734375-59.734374v-59.730469c0-4.710938 3.824218-8.535157 8.53125-8.535157h102.402344c4.710937 0 8.53125 3.824219 8.53125 8.535157v59.730469c0 32.941406-26.792969 59.734374-59.730469 59.734374zm-42.667969-110.933593v51.199219c0 23.527343 19.140625 42.667968 42.667969 42.667968 23.523437 0 42.664062-19.140625 42.664062-42.667968v-51.199219zm0 0"/><path d="m393.035156 51.199219c-4.710937 0-8.535156-3.820313-8.535156-8.53125v-34.132813c0-4.710937 3.824219-8.535156 8.535156-8.535156 4.707032 0 8.53125 3.824219 8.53125 8.535156v34.132813c0 4.710937-3.824218 8.53125-8.53125 8.53125zm0 0"/><path d="m461.300781 51.199219c-4.710937 0-8.535156-3.820313-8.535156-8.53125v-34.132813c0-4.710937 3.824219-8.535156 8.535156-8.535156 4.710938 0 8.53125 3.824219 8.53125 8.535156v34.132813c0 4.710937-3.820312 8.53125-8.53125 8.53125zm0 0"/><path d="m393.035156 512c-23.527344 0-42.667968-19.140625-42.667968-42.667969v-153.597656c0-4.710937 3.824218-8.535156 8.53125-8.535156 4.710937 0 8.535156 3.824219 8.535156 8.535156v153.597656c0 14.117188 11.484375 25.601563 25.601562 25.601563 14.113282 0 25.597656-11.484375 25.597656-25.601563v-315.730469c0-4.710937 3.824219-8.535156 8.535157-8.535156 4.710937 0 8.53125 3.824219 8.53125 8.535156v315.730469c0 23.527344-19.140625 42.667969-42.664063 42.667969zm0 0"/><path d="m375.964844 324.265625h-34.132813c-4.710937 0-8.53125-3.820313-8.53125-8.53125v-51.199219c0-4.710937 3.820313-8.535156 8.53125-8.535156h34.132813c4.710937 0 8.535156 3.824219 8.535156 8.535156v51.199219c0 4.710937-3.824219 8.53125-8.535156 8.53125zm-25.597656-17.066406h17.066406v-34.132813h-17.066406zm0 0"/><path d="m358.898438 273.066406c-4.707032 0-8.53125-3.824218-8.53125-8.53125v-34.136718c0-4.707032 3.824218-8.53125 8.53125-8.53125 4.710937 0 8.535156 3.824218 8.535156 8.53125v34.136718c0 4.707032-3.824219 8.53125-8.535156 8.53125zm0 0"/><path d="m444.234375 85.332031h-34.132813c-4.710937 0-8.535156-3.820312-8.535156-8.53125 0-4.710937 3.824219-8.535156 8.535156-8.535156h34.132813c4.710937 0 8.53125 3.824219 8.53125 8.535156 0 4.710938-3.820313 8.53125-8.53125 8.53125zm0 0"/><path d="m444.234375 119.464844h-34.132813c-4.710937 0-8.535156-3.820313-8.535156-8.53125 0-4.710938 3.824219-8.535156 8.535156-8.535156h34.132813c4.710937 0 8.53125 3.824218 8.53125 8.535156 0 4.710937-3.820313 8.53125-8.53125 8.53125zm0 0"/></svg>