<svg height="512pt" viewBox="0 0 512 512" width="512pt" xmlns="http://www.w3.org/2000/svg"><path d="m375.464844 307.199219h-307.199219c-4.710937 0-8.53125-3.820313-8.53125-8.53125v-153.601563c0-4.710937 3.820313-8.53125 8.53125-8.53125h307.199219c4.710937 0 8.535156 3.820313 8.535156 8.53125v153.601563c0 4.710937-3.824219 8.53125-8.535156 8.53125zm-298.664063-17.066407h290.132813v-136.53125h-290.132813zm0 0"/><path d="m375.464844 153.601562h-307.199219c-4.710937 0-8.53125-3.824218-8.53125-8.535156 0-23.527344 19.140625-42.667968 42.664063-42.667968h238.933593c23.527344 0 42.667969 19.140624 42.667969 42.667968 0 4.710938-3.824219 8.535156-8.535156 8.535156zm-297.207032-17.066406h287.207032c-3.523438-9.933594-13.011719-17.070312-24.140625-17.070312h-238.925781c-11.125 0-20.613282 7.136718-24.140626 17.070312zm0 0"/><path d="m409.601562 426.667969h-375.46875c-4.710937 0-8.53125-3.824219-8.53125-8.535157v-93.859374c0-18.824219 15.316407-34.140626 34.140626-34.140626h324.25c18.824218 0 34.140624 15.316407 34.140624 34.140626v93.859374c0 4.710938-3.824218 8.535157-8.53125 8.535157zm-366.933593-17.066407h358.398437v-85.328124c0-9.417969-7.652344-17.074219-17.074218-17.074219h-324.25c-9.421876 0-17.074219 7.65625-17.074219 17.074219zm0 0"/><path d="m290.132812 349.867188h-136.53125c-4.710937 0-8.535156-3.824219-8.535156-8.535157 0-4.710937 3.824219-8.53125 8.535156-8.53125h136.53125c4.710938 0 8.535157 3.820313 8.535157 8.53125 0 4.710938-3.824219 8.535157-8.535157 8.535157zm0 0"/><path d="m290.132812 384h-136.53125c-4.710937 0-8.535156-3.824219-8.535156-8.535156 0-4.707032 3.824219-8.53125 8.535156-8.53125h136.53125c4.710938 0 8.535157 3.824218 8.535157 8.53125 0 4.710937-3.824219 8.535156-8.535157 8.535156zm0 0"/><path d="m110.933594 512h-34.132813c-18.824219 0-34.132812-15.308594-34.132812-34.132812v-25.601563c0-4.710937 3.820312-8.53125 8.53125-8.53125h85.335937c4.707032 0 8.53125 3.820313 8.53125 8.53125v25.601563c0 18.824218-15.308594 34.132812-34.132812 34.132812zm-51.199219-51.199219v17.066407c0 9.410156 7.652344 17.066406 17.066406 17.066406h34.132813c9.410156 0 17.066406-7.65625 17.066406-17.066406v-17.066407zm0 0"/><path d="m366.933594 512h-34.132813c-18.824219 0-34.132812-15.308594-34.132812-34.132812v-25.601563c0-4.710937 3.820312-8.53125 8.53125-8.53125h85.335937c4.707032 0 8.53125 3.820313 8.53125 8.53125v25.601563c0 18.824218-15.308594 34.132812-34.132812 34.132812zm-51.199219-51.199219v17.066407c0 9.410156 7.652344 17.066406 17.066406 17.066406h34.132813c9.410156 0 17.066406-7.65625 17.066406-17.066406v-17.066407zm0 0"/><path d="m68.265625 264.535156h-16.945313c-18.886718 0-34.253906-15.371094-34.253906-34.253906v-16.828125c0-18.882813 15.367188-34.253906 34.253906-34.253906h16.945313c4.710937 0 8.535156 3.824219 8.535156 8.535156v68.265625c0 4.710938-3.824219 8.535156-8.535156 8.535156zm-16.945313-68.269531c-9.472656 0-17.1875 7.707031-17.1875 17.1875v16.828125c0 9.480469 7.714844 17.183594 17.1875 17.183594h8.414063v-51.199219zm0 0"/><path d="m93.867188 392.535156c-18.824219 0-34.132813-15.3125-34.132813-34.136718 0-18.824219 15.308594-34.132813 34.132813-34.132813 18.824218 0 34.132812 15.308594 34.132812 34.132813 0 18.824218-15.308594 34.136718-34.132812 34.136718zm0-51.203125c-9.414063 0-17.066407 7.65625-17.066407 17.066407 0 9.414062 7.652344 17.066406 17.066407 17.066406 9.410156 0 17.066406-7.652344 17.066406-17.066406 0-9.410157-7.65625-17.066407-17.066406-17.066407zm0 0"/><path d="m349.867188 392.535156c-18.824219 0-34.132813-15.3125-34.132813-34.136718 0-18.824219 15.308594-34.132813 34.132813-34.132813 18.824218 0 34.132812 15.308594 34.132812 34.132813 0 18.824218-15.308594 34.136718-34.132812 34.136718zm0-51.203125c-9.414063 0-17.066407 7.65625-17.066407 17.066407 0 9.414062 7.652344 17.066406 17.066407 17.066406 9.410156 0 17.066406-7.652344 17.066406-17.066406 0-9.410157-7.65625-17.066407-17.066406-17.066407zm0 0"/><path d="m418.132812 460.800781h-392.53125c-14.117187 0-25.601562-11.488281-25.601562-25.601562s11.484375-25.597657 25.601562-25.597657h392.53125c14.113282 0 25.601563 11.484376 25.601563 25.597657s-11.488281 25.601562-25.601563 25.601562zm-392.53125-34.132812c-4.710937 0-8.535156 3.832031-8.535156 8.53125 0 4.703125 3.824219 8.535156 8.535156 8.535156h392.53125c4.703126 0 8.535157-3.832031 8.535157-8.535156 0-4.699219-3.832031-8.53125-8.535157-8.53125zm0 0"/><path d="m392.414062 264.535156h-16.949218c-4.707032 0-8.53125-3.824218-8.53125-8.535156v-68.265625c0-4.710937 3.824218-8.535156 8.53125-8.535156h16.949218c18.882813 0 34.253907 15.371093 34.253907 34.253906v16.828125c0 18.882812-15.371094 34.253906-34.253907 34.253906zm-8.414062-17.070312h8.414062c9.480469 0 17.1875-7.703125 17.1875-17.183594v-16.828125c0-9.480469-7.707031-17.1875-17.1875-17.1875h-8.414062zm0 0"/><path d="m213.332031 85.332031h-34.132812c-4.710938 0-8.53125-3.820312-8.53125-8.53125v-68.265625c0-4.710937 3.820312-8.535156 8.53125-8.535156h34.132812c23.527344 0 42.667969 19.140625 42.667969 42.667969 0 23.523437-19.140625 42.664062-42.667969 42.664062zm-25.597656-17.066406h25.597656c14.117188 0 25.601563-11.484375 25.601563-25.597656 0-14.117188-11.484375-25.601563-25.601563-25.601563h-25.597656zm0 0"/><path d="m179.199219 34.132812h-42.664063c-4.710937 0-8.535156-3.824218-8.535156-8.53125 0-4.710937 3.824219-8.535156 8.535156-8.535156h42.664063c4.710937 0 8.535156 3.824219 8.535156 8.535156 0 4.707032-3.824219 8.53125-8.535156 8.53125zm0 0"/><path d="m179.199219 68.265625h-42.664063c-4.710937 0-8.535156-3.820313-8.535156-8.53125s3.824219-8.535156 8.535156-8.535156h42.664063c4.710937 0 8.535156 3.824219 8.535156 8.535156s-3.824219 8.53125-8.535156 8.53125zm0 0"/><path d="m452.265625 375.464844h-42.664063c-4.710937 0-8.535156-3.820313-8.535156-8.53125 0-4.710938 3.824219-8.535156 8.535156-8.535156h42.664063c4.710937 0 8.535156 3.824218 8.535156 8.535156 0 4.710937-3.824219 8.53125-8.535156 8.53125zm0 0"/><path d="m503.464844 102.398438c-4.707032 0-8.53125-3.820313-8.53125-8.53125 0-23.527344-19.140625-42.667969-42.667969-42.667969-4.710937 0-8.53125-3.820313-8.53125-8.53125 0-4.710938 3.820313-8.535157 8.53125-8.535157 32.941406 0 59.734375 26.796876 59.734375 59.734376 0 4.710937-3.824219 8.53125-8.535156 8.53125zm0 0"/><path d="m452.265625 375.464844c-4.710937 0-8.53125-3.820313-8.53125-8.53125 0-4.710938 3.820313-8.535156 8.53125-8.535156 23.527344 0 42.667969-19.140626 42.667969-42.664063v-221.867187c0-4.710938 3.824218-8.535157 8.53125-8.535157 4.710937 0 8.535156 3.824219 8.535156 8.535157v221.867187c0 32.9375-26.792969 59.730469-59.734375 59.730469zm0 0"/><path d="m452.265625 51.199219h-204.800781c-4.707032 0-8.53125-3.820313-8.53125-8.53125 0-4.710938 3.824218-8.535157 8.53125-8.535157h204.800781c4.710937 0 8.535156 3.824219 8.535156 8.535157 0 4.710937-3.824219 8.53125-8.535156 8.53125zm0 0"/><path d="m102.398438 213.332031c-2.183594 0-4.367188-.835937-6.03125-2.5-3.335938-3.335937-3.335938-8.730469 0-12.066406l17.066406-17.066406c3.328125-3.335938 8.738281-3.335938 12.066406 0 3.335938 3.335937 3.335938 8.730469 0 12.066406l-17.066406 17.066406c-1.664063 1.664063-3.847656 2.5-6.035156 2.5zm0 0"/><path d="m110.933594 247.464844c-2.183594 0-4.371094-.835938-6.035156-2.5-3.335938-3.335938-3.335938-8.726563 0-12.066406l51.203124-51.199219c3.328126-3.335938 8.738282-3.335938 12.066407 0 3.335937 3.335937 3.335937 8.730469 0 12.066406l-51.203125 51.199219c-1.664063 1.664062-3.847656 2.5-6.03125 2.5zm0 0"/></svg>