<svg height="512pt" viewBox="0 0 512 512" width="512pt" xmlns="http://www.w3.org/2000/svg"><path d="m435.199219 341.332031h-119.464844c-4.710937 0-8.535156-3.820312-8.535156-8.53125v-102.402343c0-4.707032 3.824219-8.53125 8.535156-8.53125h79.289063c26.855468 0 48.710937 21.851562 48.710937 48.707031v62.226562c0 4.710938-3.824219 8.53125-8.535156 8.53125zm-110.933594-17.066406h102.402344v-53.691406c0-17.441407-14.199219-31.640625-31.644531-31.640625h-70.757813zm0 0"/><path d="m384 375.464844h-25.601562c-4.707032 0-8.53125-3.820313-8.53125-8.53125 0-4.710938 3.824218-8.535156 8.53125-8.535156h25.601562c4.710938 0 8.535156 3.824218 8.535156 8.535156 0 4.710937-3.824218 8.53125-8.535156 8.53125zm0 0"/><path d="m409.601562 512c-32.941406 0-59.734374-26.792969-59.734374-59.734375 0-32.9375 26.792968-59.730469 59.734374-59.730469 32.9375 0 59.730469 26.792969 59.730469 59.730469 0 32.941406-26.792969 59.734375-59.730469 59.734375zm0-102.398438c-23.527343 0-42.667968 19.140626-42.667968 42.664063 0 23.527344 19.140625 42.667969 42.667968 42.667969 23.523438 0 42.664063-19.140625 42.664063-42.667969 0-23.523437-19.140625-42.664063-42.664063-42.664063zm0 0"/><path d="m418.3125 477.867188h-17.433594c-9.300781 0-16.878906-7.578126-16.878906-16.886719v-17.433594c0-9.300781 7.578125-16.878906 16.886719-16.878906h17.433593c9.300782 0 16.878907 7.578125 16.878907 16.886719v17.433593c0 9.300781-7.578125 16.878907-16.886719 16.878907zm-.179688-34.3125-17.246093.179687.179687 17.246094 17.066406-.179688zm.179688 17.246093"/><path d="m102.398438 512c-32.9375 0-59.730469-26.792969-59.730469-59.734375 0-32.9375 26.792969-59.730469 59.730469-59.730469 32.941406 0 59.734374 26.792969 59.734374 59.730469 0 32.941406-26.792968 59.734375-59.734374 59.734375zm0-102.398438c-23.523438 0-42.664063 19.140626-42.664063 42.664063 0 23.527344 19.140625 42.667969 42.664063 42.667969 23.527343 0 42.667968-19.140625 42.667968-42.667969 0-23.523437-19.140625-42.664063-42.667968-42.664063zm0 0"/><path d="m111.113281 477.867188h-17.433593c-9.300782 0-16.878907-7.578126-16.878907-16.886719v-17.433594c0-9.300781 7.578125-16.878906 16.886719-16.878906h17.433594c9.300781 0 16.878906 7.578125 16.878906 16.886719v17.433593c0 9.300781-7.578125 16.878907-16.886719 16.878907zm-.179687-34.3125-17.246094.179687.179688 17.246094 17.066406-.179688zm.179687 17.246093"/><path d="m315.734375 409.601562h-307.199219c-4.710937 0-8.535156-3.824218-8.535156-8.535156v-213.339844c0-18.816406 15.308594-34.125 34.125-34.125h256.015625c18.816406 0 34.125 15.308594 34.125 34.125v213.339844c0 4.710938-3.820313 8.535156-8.53125 8.535156zm-298.667969-17.066406h290.132813v-204.808594c0-9.40625-7.652344-17.058593-17.058594-17.058593h-256.015625c-9.402344 0-17.058594 7.652343-17.058594 17.058593zm0 0"/><path d="m435.199219 307.199219h-85.332031c-4.710938 0-8.535157-3.820313-8.535157-8.53125v-34.132813c0-4.710937 3.824219-8.535156 8.535157-8.535156h84.726562c4.222656 0 7.808594 3.089844 8.441406 7.261719.375 2.507812.699219 4.863281.699219 7.3125v28.09375c0 4.710937-3.824219 8.53125-8.535156 8.53125zm-76.800781-17.066407h68.269531v-17.066406h-68.269531zm0 0"/><path d="m503.464844 443.734375h-45.644532c-3.617187 0-6.832031-2.28125-8.046874-5.683594-6.023438-17.015625-22.167969-28.449219-40.171876-28.449219-18.007812 0-34.152343 11.433594-40.175781 28.449219-1.210937 3.402344-4.4375 5.683594-8.046875 5.683594h-45.644531c-4.710937 0-8.535156-3.824219-8.535156-8.535156v-102.398438c0-4.710937 3.824219-8.535156 8.535156-8.535156h145.066406c28.234375 0 51.199219 22.964844 51.199219 51.199219v59.734375c0 4.710937-3.824219 8.535156-8.535156 8.535156zm-39.941406-17.066406h31.410156v-51.203125c0-18.824219-15.308594-34.132813-34.132813-34.132813h-136.535156v85.335938h31.414063c9.804687-20.644531 30.761718-34.132813 53.921874-34.132813 23.15625 0 44.117188 13.488282 53.921876 34.132813zm0 0"/><path d="m54.179688 443.734375h-45.644532c-4.710937 0-8.535156-3.824219-8.535156-8.535156v-34.132813c0-4.710937 3.824219-8.53125 8.535156-8.53125h93.863282c4.710937 0 8.535156 3.820313 8.535156 8.53125 0 4.710938-3.824219 8.535156-8.535156 8.535156-18.003907 0-34.148438 11.433594-40.171876 28.449219-1.214843 3.402344-4.4375 5.683594-8.046874 5.683594zm-37.113282-17.066406h31.410156c3.066407-6.453125 7.21875-12.203125 12.1875-17.066407h-43.597656zm0 0"/><path d="m315.734375 443.734375h-165.113281c-3.617188 0-6.835938-2.28125-8.046875-5.683594-6.023438-17.015625-22.167969-28.449219-40.175781-28.449219-4.707032 0-8.53125-3.824218-8.53125-8.535156 0-4.710937 3.824218-8.53125 8.53125-8.53125h213.335937c4.710937 0 8.53125 3.820313 8.53125 8.53125v34.132813c0 4.710937-3.820313 8.535156-8.53125 8.535156zm-159.414063-17.066406h150.878907v-17.066407h-163.0625c4.964843 4.863282 9.113281 10.613282 12.183593 17.066407zm0 0"/><path d="m503.464844 409.601562h-34.132813c-4.710937 0-8.53125-3.824218-8.53125-8.535156v-34.132812c0-4.710938 3.820313-8.535156 8.53125-8.535156h33.273438c4.0625 0 7.558593 2.859374 8.363281 6.84375.679688 3.363281 1.03125 6.8125 1.03125 10.222656v25.601562c0 4.710938-3.824219 8.535156-8.535156 8.535156zm-25.597656-17.066406h17.066406v-17.070312h-17.066406zm0 0"/><path d="m42.667969 512h-34.132813c-4.710937 0-8.535156-3.824219-8.535156-8.535156 0-4.707032 3.824219-8.53125 8.535156-8.53125h34.132813c4.710937 0 8.53125 3.824218 8.53125 8.53125 0 4.710937-3.820313 8.535156-8.53125 8.535156zm0 0"/><path d="m503.464844 512h-196.265625c-4.710938 0-8.53125-3.824219-8.53125-8.535156 0-4.707032 3.820312-8.53125 8.53125-8.53125h196.265625c4.710937 0 8.535156 3.824218 8.535156 8.53125 0 4.710937-3.824219 8.535156-8.535156 8.535156zm0 0"/><path d="m273.066406 512h-34.132812c-4.710938 0-8.535156-3.824219-8.535156-8.535156 0-4.707032 3.824218-8.53125 8.535156-8.53125h34.132812c4.710938 0 8.535156 3.824218 8.535156 8.53125 0 4.710937-3.824218 8.535156-8.535156 8.535156zm0 0"/><path d="m204.800781 512h-102.402343c-4.707032 0-8.53125-3.824219-8.53125-8.535156 0-4.707032 3.824218-8.53125 8.53125-8.53125h102.402343c4.710938 0 8.53125 3.824218 8.53125 8.53125 0 4.710937-3.820312 8.535156-8.53125 8.535156zm0 0"/><path d="m119.464844 93.867188h-85.332032c-18.824218 0-34.132812-15.308594-34.132812-34.132813 0-19.984375 17.679688-36.097656 37.613281-33.945313 6.632813-15.34375 21.941407-25.789062 39.1875-25.789062 17.246094 0 32.554688 10.445312 39.175781 25.789062 19.976563-2.125 37.625 13.960938 37.625 33.945313 0 18.824219-15.308593 34.132813-34.136718 34.132813zm-85.332032-51.199219c-9.410156 0-17.066406 7.652343-17.066406 17.066406 0 9.410156 7.65625 17.066406 17.066406 17.066406h85.332032c9.414062 0 17.070312-7.65625 17.070312-17.066406 0-11.417969-11.445312-20.4375-23.203125-15.863281-2.355469.902344-4.976562.734375-7.1875-.480469-2.207031-1.210937-3.761719-3.335937-4.265625-5.800781-2.378906-11.886719-12.9375-20.523438-25.078125-20.523438-12.144531 0-22.699219 8.636719-25.089843 20.53125-.492188 2.464844-2.054688 4.589844-4.265626 5.804688-2.203124 1.203125-4.828124 1.378906-7.175781.46875-2.066406-.804688-4.132812-1.203125-6.136719-1.203125zm0 0"/><path d="m477.867188 145.066406h-85.332032c-18.828125 0-34.136718-15.308594-34.136718-34.132812 0-19.984375 17.699218-36.085938 37.617187-33.945313 6.628906-15.34375 21.9375-25.789062 39.183594-25.789062 17.246093 0 32.554687 10.445312 39.175781 25.789062 19.988281-2.117187 37.625 13.960938 37.625 33.945313 0 18.824218-15.308594 34.132812-34.132812 34.132812zm-85.332032-51.199218c-9.414062 0-17.070312 7.652343-17.070312 17.066406 0 9.410156 7.65625 17.066406 17.070312 17.066406h85.332032c9.410156 0 17.066406-7.65625 17.066406-17.066406 0-11.417969-11.433594-20.4375-23.203125-15.863282-2.355469.902344-4.984375.734376-7.183594-.476562-2.210937-1.214844-3.765625-3.339844-4.265625-5.804688-2.382812-11.886718-12.9375-20.523437-25.082031-20.523437-12.140625 0-22.699219 8.636719-25.085938 20.53125-.496093 2.46875-2.058593 4.59375-4.269531 5.804687-2.207031 1.210938-4.828125 1.371094-7.183594.476563-2.054687-.808594-4.121094-1.210937-6.125-1.210937zm0 0"/><path d="m162.132812 298.667969c-4.710937 0-8.53125-3.824219-8.53125-8.535157v-34.132812c0-4.710938 3.820313-8.535156 8.53125-8.535156 4.710938 0 8.535157 3.824218 8.535157 8.535156v34.132812c0 4.710938-3.824219 8.535157-8.535157 8.535157zm0 0"/><path d="m162.132812 341.332031c-4.710937 0-8.53125-3.820312-8.53125-8.53125v-8.535156c0-4.710937 3.820313-8.53125 8.53125-8.53125 4.710938 0 8.535157 3.820313 8.535157 8.53125v8.535156c0 4.710938-3.824219 8.53125-8.535157 8.53125zm0 0"/><path d="m247.464844 375.464844h-170.664063c-2.960937 0-5.699219-1.535156-7.261719-4.042969-1.554687-2.515625-1.699218-5.65625-.375-8.304687l85.332032-170.664063c2.894531-5.785156 12.375-5.785156 15.265625 0l85.332031 170.664063c1.324219 2.648437 1.179688 5.789062-.375 8.304687-1.550781 2.507813-4.292969 4.042969-7.253906 4.042969zm-156.859375-17.066406h143.054687l-71.527344-143.050782zm0 0"/></svg>