<svg height="512pt" viewBox="-43 0 512 512.00325" width="512pt" xmlns="http://www.w3.org/2000/svg"><path d="m128 512h-119.464844c-4.710937 0-8.535156-3.824219-8.535156-8.535156v-324.265625c0-4.710938 3.824219-8.53125 8.535156-8.53125h119.464844c4.710938 0 8.535156 3.820312 8.535156 8.53125v324.265625c0 4.710937-3.824218 8.535156-8.535156 8.535156zm-110.933594-17.066406h102.402344v-307.199219h-102.402344zm0 0"/><path d="m128.011719 512c-2.382813 0-4.738281-.988281-6.425781-2.910156l-53.316407-60.925782-53.308593 60.925782c-3.105469 3.542968-8.492188 3.910156-12.039063.800781-3.550781-3.105469-3.910156-8.488281-.804687-12.039063l59.734374-68.265624c3.242188-3.703126 9.601563-3.703126 12.84375 0l59.730469 68.265624c3.109375 3.550782 2.75 8.933594-.800781 12.039063-1.621094 1.410156-3.625 2.109375-5.613281 2.109375zm0 0"/><path d="m68.269531 443.734375c-4.710937 0-8.535156-3.824219-8.535156-8.535156v-256c0-4.710938 3.824219-8.53125 8.535156-8.53125 4.710938 0 8.53125 3.820312 8.53125 8.53125v256c0 4.710937-3.820312 8.535156-8.53125 8.535156zm0 0"/><path d="m349.867188 238.933594c-4.710938 0-8.53125-3.824219-8.53125-8.535156v-140.796876c0-39.996093-32.539063-72.535156-72.535157-72.535156-39.996093 0-72.53125 32.539063-72.53125 72.535156v140.796876c0 4.710937-3.824219 8.535156-8.535156 8.535156s-8.53125-3.824219-8.53125-8.535156v-140.796876c0-49.410156 40.191406-89.601562 89.597656-89.601562 49.410157 0 89.601563 40.191406 89.601563 89.601562v140.796876c0 4.710937-3.824219 8.535156-8.535156 8.535156zm0 0"/><path d="m230.402344 187.734375c-4.710938 0-8.535156-3.824219-8.535156-8.535156v-72.53125c0-39.996094-32.535157-72.535157-72.53125-72.535157-39.996094 0-72.535157 32.539063-72.535157 72.535157v72.53125c0 4.710937-3.820312 8.535156-8.53125 8.535156-4.710937 0-8.535156-3.824219-8.535156-8.535156v-72.53125c0-49.410157 40.191406-89.601563 89.601563-89.601563 49.40625 0 89.597656 40.191406 89.597656 89.601563v72.53125c0 4.710937-3.820313 8.535156-8.53125 8.535156zm0 0"/><path d="m418.136719 512h-290.136719c-4.707031 0-8.53125-3.824219-8.53125-8.535156v-324.265625c0-4.710938 3.824219-8.53125 8.53125-8.53125h290.136719c4.707031 0 8.53125 3.820312 8.53125 8.53125v324.265625c0 4.710937-3.824219 8.535156-8.53125 8.535156zm-281.601563-17.066406h273.066406v-307.199219h-273.066406zm0 0"/><path d="m273.066406 477.867188c-65.875 0-119.464844-53.589844-119.464844-119.46875 0-65.875 53.589844-119.464844 119.464844-119.464844 65.878906 0 119.46875 53.589844 119.46875 119.464844 0 65.878906-53.589844 119.46875-119.46875 119.46875zm0-221.867188c-56.464844 0-102.398437 45.933594-102.398437 102.398438 0 56.464843 45.933593 102.402343 102.398437 102.402343 56.46875 0 102.402344-45.9375 102.402344-102.402343 0-56.464844-45.933594-102.398438-102.402344-102.398438zm0 0"/><path d="m213.335938 392.535156h-48.113282c-3.957031 0-7.386718-2.722656-8.300781-6.574218-2.203125-9.300782-3.320313-18.574219-3.320313-27.5625 0-43.144532 23.441407-83.078126 61.175782-104.234376 3.328125-1.851562 7.5-1.289062 10.207031 1.417969l37.050781 37.050781c1.605469 1.597657 2.5 3.773438 2.5 6.035157v25.597656c0 2.261719-.894531 4.4375-2.5 6.035156l-32.707031 32.707031-7.894531 23.6875c-1.160156 3.492188-4.429688 5.839844-8.097656 5.839844zm-41.15625-17.070312h35.003906l6.585937-19.761719c.417969-1.253906 1.128907-2.398437 2.066407-3.335937l31.632812-31.632813v-18.535156l-29.839844-29.839844c-29.117187 18.796875-46.960937 51.199219-46.960937 86.039063 0 5.566406.503906 11.28125 1.511719 17.066406zm0 0"/><path d="m358.402344 366.933594c-1.640625 0-3.292969-.46875-4.726563-1.433594l-25.601562-17.066406c-1.238281-.828125-2.234375-1.953125-2.902344-3.285156l-8.53125-17.066407c-.597656-1.179687-.90625-2.492187-.90625-3.816406v-34.132813c0-1.082031.207031-2.160156.613281-3.175781l9.753906-24.371093c.957032-2.378907 2.929688-4.207032 5.367188-4.972657 2.449219-.769531 5.113281-.394531 7.253906 1.015625 26.804688 17.671875 45.621094 45.824219 51.628906 77.21875.5625 2.953125-.460937 5.988282-2.714843 7.984375l-23.558594 20.941407c-1.613281 1.433593-3.636719 2.160156-5.675781 2.160156zm-18.980469-31.445313 18.238281 12.152344 14.914063-13.261719c-5.210938-21.589844-17.527344-41.105468-34.730469-55.21875l-5.042969 12.613282v30.480468zm0 0"/><path d="m273.066406 477.867188c-19.394531 0-37.980468-4.574219-55.226562-13.585938-3.882813-2.03125-5.597656-6.664062-3.96875-10.734375l8.613281-21.511719c.425781-1.066406 1.066406-2.050781 1.882813-2.859375l25.601562-25.601562c1.605469-1.613281 3.773438-2.507813 6.03125-2.507813h24.550781l33.117188-8.277344c1.972656-.496093 4.0625-.265624 5.890625.648438l17.066406 8.535156c1.332031.664063 2.457031 1.664063 3.285156 2.898438l18.363282 27.554687c2.261718 3.398438 1.808593 7.917969-1.09375 10.796875-22.535157 22.339844-52.410157 34.644532-84.113282 34.644532zm-40.378906-25.402344c12.785156 5.535156 26.335938 8.335937 40.378906 8.335937 24.832032 0 48.359375-8.816406 66.972656-24.960937l-13.082031-19.617188-12.21875-6.109375-31.070312 7.765625c-.675781.167969-1.367188.253906-2.066407.253906h-22.066406l-21.863281 21.863282zm0 0"/></svg>