<svg height="512pt" viewBox="-60 0 512 512.00054" width="512pt" xmlns="http://www.w3.org/2000/svg"><path d="m349.980469 68.273438h-307.195313c-3.675781 0-6.925781-2.34375-8.097656-5.835938l-17.066406-51.199219c-.980469-2.953125-.28125-6.210937 1.835937-8.5 2.117188-2.285156 5.300781-3.242187 8.335938-2.480469l32.058593 8.019532 32.0625-8.011719c1.355469-.34375 2.78125-.34375 4.136719 0l32.058594 8.011719 32.058594-8.011719c1.359375-.34375 2.785156-.34375 4.140625 0l32.058594 8.011719 32.058593-8.011719c1.359375-.34375 2.78125-.34375 4.140625 0l32.058594 8.011719 32.058594-8.011719c1.355468-.34375 2.78125-.34375 4.136718 0l32.0625 8.011719 32.058594-8.011719c3.019532-.769531 6.210938.195313 8.335938 2.484375 2.117187 2.285156 2.816406 5.542969 1.835937 8.496094l-17.066406 51.199218c-1.136719 3.472657-4.386719 5.828126-8.066406 5.828126zm-301.042969-17.066407h294.898438l10.207031-30.617187-19.046875 4.761718c-1.355469.34375-2.78125.34375-4.136719 0l-32.058594-8.011718-32.058593 8.011718c-1.359376.34375-2.785157.34375-4.140626 0l-32.058593-8.011718-32.058594 8.011718c-1.359375.34375-2.78125.34375-4.140625 0l-32.058594-8.011718-32.058594 8.011718c-1.355468.34375-2.78125.34375-4.136718 0l-32.0625-8.011718-32.101563 8.011718c-1.355469.34375-2.78125.34375-4.136719 0l-19.054687-4.761718zm0 0"/><path d="m367.046875 512c-.691406 0-1.382813-.085938-2.074219-.253906l-32.058594-8.015625-32.058593 8.015625c-1.355469.339844-2.78125.339844-4.136719 0l-32.058594-8.015625-32.0625 8.015625c-1.355468.339844-2.78125.339844-4.136718 0l-32.058594-8.015625-32.058594 8.015625c-1.359375.339844-2.785156.339844-4.140625 0l-32.058594-8.015625-32.058593 8.015625c-1.359376.339844-2.78125.339844-4.140626 0l-32.058593-8.015625-32.058594 8.015625c-3.039063.730468-6.21875-.207032-8.335937-2.484375-2.117188-2.289063-2.816407-5.546875-1.835938-8.5l17.066406-51.199219c1.160156-3.480469 4.421875-5.835938 8.097656-5.835938h307.195313c3.679687 0 6.929687 2.347657 8.097656 5.835938l17.066407 51.199219c.980468 2.953125.28125 6.210937-1.835938 8.5-1.671875 1.765625-3.949219 2.738281-6.296875 2.738281zm-102.398437-25.597656c.699218 0 1.390624.082031 2.074218.253906l32.058594 8.011719 32.0625-8.011719c1.355469-.339844 2.78125-.339844 4.136719 0l19.046875 4.761719-10.207032-30.617188h-294.882812l-10.203125 30.617188 19.046875-4.761719c1.355469-.339844 2.78125-.339844 4.136719 0l32.058593 8.011719 32.058594-8.011719c1.359375-.339844 2.785156-.339844 4.140625 0l32.058594 8.011719 32.058594-8.011719c1.359375-.339844 2.78125-.339844 4.140625 0l32.058594 8.011719 32.058593-8.011719c.707031-.179688 1.398438-.253906 2.097657-.253906zm0 0"/><path d="m42.785156 460.800781c-3.351562 0-6.398437-1.960937-7.78125-5.015625-76.671875-169.820312-4.367187-395.890625 1.578125-402.042968 2.433594-2.515626 6.203125-3.308594 9.421875-1.980469 2.285156.941406 4.019532 2.851562 4.8125 5.121093 3.183594 8.378907 79.972656 215.214844-.222656 398.808594-1.347656 3.085938-4.394531 5.09375-7.765625 5.117188-.007813-.007813-.023437-.007813-.042969-.007813zm.242188-373.207031c-15.949219 58.339844-49.160156 212.734375-.324219 342.15625 51.539063-137.777344 17.492187-284.914062.324219-342.15625zm0 0"/><path d="m349.980469 460.800781c-3.328125 0-6.347657-1.9375-7.746094-4.957031-71.644531-155.097656-14.507813-362.046875-.835937-397.015625.101562-1.160156.484374-2.097656 1.132812-3.25l.1875.101563c.453125-.964844.804688-1.585938 1.042969-1.835938 2.40625-2.542969 6.132812-3.359375 9.378906-2.054688 3.121094 1.246094 5.210937 4.242188 5.355469 7.578126.324218 1.421874 1.152344 4.164062 2.304687 8.113281 54.894531 188.3125 28.671875 315.039062-2.992187 388.183593-1.332032 3.089844-4.363282 5.101563-7.722656 5.144532-.035157-.007813-.070313-.007813-.105469-.007813zm-.417969-370.21875c-16.382812 61.054688-48.09375 213.550781.199219 339.21875 25.65625-70.039062 42.332031-181.117187-.199219-339.21875zm0 0"/><path d="m335.457031 119.472656h-277.011719c-3.898437 0-7.304687-2.644531-8.269531-6.414062-7.910156-30.96875-15.273437-50.03125-15.351562-50.21875-1.023438-2.628906-.679688-5.589844.914062-7.910156 1.597657-2.320313 4.222657-3.722657 7.039063-3.722657h304.542968c1.132813-.28125 2.304688-.136719 3.625.019531 4.300782.503907 7.5625 4.179688 7.5625 8.515626 0 1.507812-.394531 2.933593-1.085937 4.164062-1.476563 3.875-7.347656 22.074219-13.660156 48.988281-.90625 3.847657-4.335938 6.578125-8.304688 6.578125zm-270.414062-17.066406h263.664062c3.730469-15.597656 6.613281-26.511719 8.996094-34.132812h-282.839844c2.625 7.851562 6.269531 19.441406 10.179688 34.132812zm0 0"/><path d="m43.058594 460.859375c-.535156 0-1.097656-.050781-1.707032-.152344-4.09375-.707031-7.097656-4.28125-7.097656-8.4375 0-1.496093.382813-2.894531 1.058594-4.105469.101562-.28125.230469-.632812.375-1.058593 6.828125-15.941407 12.535156-32.035157 17.195312-48.367188 1.046876-3.667969 4.394532-6.195312 8.207032-6.195312h270.296875c3.832031 0 7.195312 2.554687 8.21875 6.246093 4.949219 17.800782 11.042969 34.59375 18.125 49.914063 1.21875 2.644531 1.015625 5.722656-.554688 8.171875-1.570312 2.457031-4.277343 3.933594-7.183593 3.933594h-305.910157c-.324219.035156-.664062.050781-1.023437.050781zm12.476562-17.125h281.417969c-4.464844-10.84375-8.484375-22.261719-12-34.132813h-257.480469c-3.488281 11.5625-7.484375 22.988282-11.9375 34.132813zm0 0"/><path d="m196.144531 256.003906h-39.285156c-20.683594 0-37.511719-16.828125-37.511719-37.511718v-39.285157c0-4.710937 3.820313-8.535156 8.53125-8.535156h39.289063c20.683593 0 37.511719 16.828125 37.511719 37.511719v39.289062c0 4.710938-3.824219 8.53125-8.535157 8.53125zm-59.730469-68.265625v30.753907c0 11.273437 9.171876 20.445312 20.445313 20.445312h30.753906v-30.753906c0-11.269532-9.175781-20.445313-20.445312-20.445313zm0 0"/><path d="m196.144531 256.003906c-2.183593 0-4.367187-.835937-6.03125-2.5l-34.132812-34.132812c-3.335938-3.335938-3.335938-8.730469 0-12.066406 3.335937-3.335938 8.730469-3.335938 12.066406 0l34.132813 34.132812c3.335937 3.335938 3.335937 8.730469 0 12.066406-1.671876 1.664063-3.859376 2.5-6.035157 2.5zm0 0"/><path d="m235.421875 256.003906h-39.285156c-4.710938 0-8.53125-3.820312-8.53125-8.53125v-39.289062c0-20.683594 16.824219-37.511719 37.511719-37.511719h39.285156c4.710937 0 8.535156 3.824219 8.535156 8.535156v39.285157c.007812 20.675781-16.828125 37.511718-37.515625 37.511718zm-30.742187-17.066406h30.753906c11.269531 0 20.445312-9.171875 20.445312-20.445312v-30.753907h-30.753906c-11.273438 0-20.445312 9.175781-20.445312 20.445313zm0 0"/><path d="m196.144531 256.003906c-2.183593 0-4.367187-.835937-6.03125-2.5-3.335937-3.335937-3.335937-8.730468 0-12.066406l34.132813-34.132812c3.335937-3.335938 8.730468-3.335938 12.066406 0 3.335938 3.335937 3.335938 8.730468 0 12.066406l-34.132812 34.132812c-1.671876 1.664063-3.859376 2.5-6.035157 2.5zm0 0"/><path d="m196.144531 307.203125c-4.710937 0-8.53125-3.820313-8.53125-8.53125v-51.199219c0-4.710937 3.820313-8.535156 8.53125-8.535156 4.710938 0 8.535157 3.824219 8.535157 8.535156v51.199219c0 4.710937-3.824219 8.53125-8.535157 8.53125zm0 0"/><path d="m238.8125 341.335938h-85.332031c-4.710938 0-8.535157-3.820313-8.535157-8.53125 0-23.527344 19.140626-42.667969 42.667969-42.667969h17.066407c23.523437 0 42.664062 19.140625 42.664062 42.667969 0 4.710937-3.820312 8.53125-8.53125 8.53125zm-75.339844-17.066407h65.335938c-3.523438-9.933593-13.011719-17.066406-24.136719-17.066406h-17.066406c-11.121094 0-20.609375 7.132813-24.132813 17.066406zm0 0"/></svg>