<svg height="512pt" viewBox="-51 0 512 512" width="512pt" xmlns="http://www.w3.org/2000/svg"><path d="m384 51.199219h-358.398438c-14.117187 0-25.601562-11.484375-25.601562-25.597657 0-14.117187 11.484375-25.601562 25.601562-25.601562h358.398438c14.113281 0 25.601562 11.484375 25.601562 25.601562 0 14.113282-11.488281 25.597657-25.601562 25.597657zm-358.398438-34.132813c-4.710937 0-8.535156 3.824219-8.535156 8.535156 0 4.707032 3.824219 8.53125 8.535156 8.53125h358.398438c4.710938 0 8.535156-3.824218 8.535156-8.53125 0-4.710937-3.824218-8.535156-8.535156-8.535156zm0 0"/><path d="m384 512h-358.398438c-14.117187 0-25.601562-11.484375-25.601562-25.601562 0-14.113282 11.484375-25.597657 25.601562-25.597657h358.398438c14.113281 0 25.601562 11.484375 25.601562 25.597657 0 14.117187-11.488281 25.601562-25.601562 25.601562zm-358.398438-34.132812c-4.710937 0-8.535156 3.824218-8.535156 8.53125 0 4.710937 3.824219 8.535156 8.535156 8.535156h358.398438c4.710938 0 8.535156-3.824219 8.535156-8.535156 0-4.707032-3.824218-8.53125-8.535156-8.53125zm0 0"/><path d="m384 477.867188h-358.398438v-443.734376h358.398438zm-341.332031-17.066407h324.265625v-409.601562h-324.265625zm0 0"/><path d="m256.09375 375.457031c-9.429688 0-19.933594-1.578125-29.753906-6.5-8.867188-4.445312-16.070313-11.007812-21.539063-19.601562-5.46875 8.59375-12.671875 15.144531-21.539062 19.601562-26.71875 13.40625-58.519531 2.011719-59.859375 1.519531-3.882813-1.417968-6.1875-5.429687-5.464844-9.5.726562-4.070312 4.269531-7.039062 8.40625-7.039062 23.109375 0 41.90625-18.980469 41.90625-42.300781 0-23.320313-18.796875-42.300781-41.90625-42.300781-15.792969 0-30.046875 9.003906-37.179688 23.484374-1.78125 3.628907-5.871093 5.503907-9.769531 4.488282-3.910156-.996094-6.578125-4.605469-6.410156-8.644532.863281-19.539062 7.636719-35.15625 20.15625-46.402343 12.828125-11.539063 28.980469-15.855469 40.671875-17.433594-8.96875-16.613281-11.316406-32.324219-6.964844-46.847656 8.5-28.332031 39.484375-40.390625 40.796875-40.890625 3.917969-1.488282 8.328125.074218 10.421875 3.710937 2.089844 3.625 1.246094 8.234375-2 10.878907-10.503906 8.558593-13.164062 12.074218-13.164062 24.386718 0 23.324219 18.796875 42.300782 41.90625 42.300782s41.90625-18.976563 41.90625-42.300782c0-12.3125-2.660156-15.828125-13.167969-24.386718-3.242187-2.652344-4.085937-7.261719-1.996094-10.878907 2.09375-3.636719 6.496094-5.222656 10.421875-3.710937 1.3125.5 32.296875 12.558594 40.796875 40.890625 4.351563 14.523437 2.011719 30.234375-6.964843 46.847656 11.691406 1.578125 27.835937 5.894531 40.671874 17.433594 12.515626 11.238281 19.292969 26.855469 20.15625 46.402343.179688 4.039063-2.492187 7.648438-6.410156 8.644532-3.90625 1.015625-7.988281-.867188-9.769531-4.488282-7.144531-14.480468-21.394531-23.484374-37.179687-23.484374-23.109376 0-41.90625 18.980468-41.90625 42.300781 0 23.320312 18.796874 42.300781 41.90625 42.300781 4.136718 0 7.679687 2.96875 8.40625 7.039062.722656 4.070313-1.582032 8.082032-5.464844 9.5-.859375.3125-13.898438 4.980469-30.121094 4.980469zm-51.292969-55.40625c3.769531 0 7.097657 2.484375 8.175781 6.101563 3.949219 13.269531 11.023438 22.546875 21.015626 27.554687 3.855468 1.9375 7.910156 3.164063 11.964843 3.882813-13.21875-10.898438-21.667969-27.453125-21.667969-45.953125 0-32.734375 26.453126-59.367188 58.976563-59.367188 8.675781 0 17.023437 1.914063 24.574219 5.445313-.878906-.957032-1.800782-1.878906-2.773438-2.746094-17.09375-15.371094-43.417968-13.902344-43.683594-13.886719-3.285156.164063-6.40625-1.5-8.003906-4.394531-1.59375-2.890625-1.382812-6.441406.546875-9.113281 12.109375-16.785157 16.316407-31.785157 12.519531-44.59375-.675781-2.289063-1.585937-4.4375-2.671874-6.441407-.246094 32.527344-26.605469 58.902344-58.972657 58.902344-32.367187 0-58.726562-26.382812-58.976562-58.902344-1.082031 2.003907-1.988281 4.152344-2.667969 6.441407-3.808594 12.808593.410156 27.808593 12.515625 44.59375 1.929687 2.671875 2.144531 6.222656.546875 9.113281-1.59375 2.894531-4.71875 4.542969-8.003906 4.394531-.246094 0-26.8125-1.355469-43.757813 13.953125-.949219.863282-1.84375 1.75-2.695312 2.679688 7.550781-3.53125 15.894531-5.445313 24.574219-5.445313 32.519531 0 58.972656 26.632813 58.972656 59.367188 0 18.484375-8.4375 35.019531-21.640625 45.925781 4.082031-.714844 8.160156-1.953125 12.015625-3.890625 9.960937-5.027344 17-14.285156 20.941406-27.519531 1.074219-3.617188 4.402344-6.101563 8.175781-6.101563zm0 0"/><path d="m401.066406 119.464844h-392.53125c-4.710937 0-8.535156-3.8125-8.535156-8.53125s3.824219-8.535156 8.535156-8.535156h392.53125c4.710938 0 8.535156 3.816406 8.535156 8.535156s-3.824218 8.53125-8.535156 8.53125zm0 0"/><path d="m401.066406 409.601562h-392.53125c-4.710937 0-8.535156-3.816406-8.535156-8.535156s3.824219-8.53125 8.535156-8.53125h392.53125c4.710938 0 8.535156 3.8125 8.535156 8.53125s-3.824218 8.535156-8.535156 8.535156zm0 0"/></svg>