<svg height="512pt" viewBox="-43 0 512 512.00213" width="512pt" xmlns="http://www.w3.org/2000/svg"><path d="m204.800781 238.933594c-4.710937 0-8.53125-3.8125-8.53125-8.53125v-196.265625c0-4.71875 3.820313-8.535157 8.53125-8.535157 4.710938 0 8.535157 3.816407 8.535157 8.535157v196.265625c0 4.71875-3.824219 8.53125-8.535157 8.53125zm0 0"/><path d="m112.050781 171.632812c-26.65625 0-58.605469-7.996093-84.394531-38.085937-1.464844-1.910156-27.65625-37.542969-27.65625-99.410156 0-3.226563 1.828125-6.179688 4.710938-7.628907 2.886718-1.433593 6.347656-1.136718 8.933593.792969.316407.246094 32.523438 23.902344 71.691407 23.902344.851562 0 85.332031 1.175781 85.332031 102.398437 0 3.378907-1.988281 6.425782-5.070313 7.800782-.433594.195312-23.660156 10.230468-53.546875 10.230468zm-94.34375-121.769531c3.773438 46.191407 23.058594 72.746094 23.269531 73.042969 39.289063 45.816406 95.242188 30.984375 112.523438 24.902344-2.9375-78.617188-65.445312-79.539063-68.164062-79.539063-28.390626 0-52.976563-10.429687-67.628907-18.40625zm0 0"/><path d="m162.125 162.136719c-1.570312 0-3.148438-.4375-4.574219-1.332031l-93.867187-59.734376c-3.976563-2.535156-5.144532-7.808593-2.617188-11.785156 2.535156-3.964844 7.796875-5.136718 11.785156-2.617187l93.867188 59.730469c3.972656 2.535156 5.144531 7.808593 2.617188 11.785156-1.628907 2.550781-4.386719 3.953125-7.210938 3.953125zm0 0"/><path d="m309.453125 187.753906c-5.808594 0-11.671875-.402344-17.570313-1.230468-50.398437-7.015626-52.949218-28.65625-52.949218-32.921876 0-33.320312 9.191406-59.261718 27.316406-77.089843 24.710938-24.300781 56.78125-24.019531 58.164062-24.039063 47.84375 0 88.78125-25.300781 89.179688-25.554687 2.628906-1.640625 5.957031-1.734375 8.671875-.242188 2.710937 1.503907 4.402344 4.363281 4.402344 7.460938v43.929687c-2.117188 21.613282-8.226563 40.335938-18.210938 56.480469-20.625 33.410156-58.257812 53.207031-99.003906 53.207031zm-53.453125-34.65625c.871094 3.398438 9.164062 12.476563 38.238281 16.53125 40.550781 5.613282 79.683594-11.640625 99.695313-44.042968 8.601562-13.933594 13.882812-30.199219 15.703125-48.367188l-.027344-28.753906c-17.039063 8.351562-48.957031 21.066406-85.339844 21.066406-.257812.042969-26.710937-.023438-46.21875 19.304688-14.539062 14.410156-21.964843 36.035156-22.050781 64.261718zm0 .101563v.402343s.027344-.144531 0-.402343zm0 0"/><path d="m204.800781 179.203125c-1.058593 0-2.125-.1875-3.164062-.605469l-42.667969-17.066406c-4.378906-1.75-6.503906-6.71875-4.753906-11.09375 1.75-4.386719 6.714844-6.503906 11.09375-4.761719l42.667968 17.066407c4.375 1.75 6.5 6.714843 4.753907 11.09375-1.339844 3.34375-4.550781 5.367187-7.929688 5.367187zm0 0"/><path d="m247.476562 162.136719c-3.226562 0-6.316406-1.835938-7.757812-4.960938-1.96875-4.273437-.101562-9.351562 4.171875-11.320312l110.933594-51.203125c4.277343-1.976563 9.34375-.117188 11.324219 4.175781 1.972656 4.273437.101562 9.351563-4.171876 11.324219l-110.933593 51.199218c-1.160157.535157-2.371094.785157-3.566407.785157zm0 0"/><path d="m204.800781 204.800781c-2.183593 0-4.367187-.835937-6.03125-2.5-3.339843-3.335937-3.339843-8.726562 0-12.066406l42.664063-42.664063c3.328125-3.335937 8.738281-3.335937 12.066406 0 3.335938 3.335938 3.335938 8.726563 0 12.066407l-42.664062 42.664062c-1.664063 1.664063-3.851563 2.5-6.035157 2.5zm0 0"/><path d="m204.800781 42.667969c-2.183593 0-4.367187-.835938-6.03125-2.5l-25.601562-25.597657c-3.335938-3.339843-3.335938-8.730468 0-12.066406 3.328125-3.339844 8.738281-3.339844 12.066406 0l25.601563 25.597656c3.335937 3.335938 3.335937 8.730469 0 12.066407-1.664063 1.664062-3.851563 2.5-6.035157 2.5zm0 0"/><path d="m204.800781 42.667969c-2.183593 0-4.367187-.835938-6.03125-2.5-3.339843-3.335938-3.339843-8.730469 0-12.066407l25.597657-25.597656c3.328124-3.339844 8.738281-3.339844 12.066406 0 3.335937 3.335938 3.335937 8.726563 0 12.066406l-25.597656 25.597657c-1.664063 1.664062-3.851563 2.5-6.035157 2.5zm0 0"/><path d="m366.933594 358.402344h-324.265625c-4.710938 0-8.535157-3.816406-8.535157-8.535156v-34.132813c0-4.71875 3.824219-8.53125 8.535157-8.53125h324.265625c4.710937 0 8.535156 3.8125 8.535156 8.53125v34.132813c0 4.71875-3.824219 8.535156-8.535156 8.535156zm-315.734375-17.066406h307.203125v-17.066407h-307.203125zm0 0"/><path d="m349.867188 324.269531h-286.53125c-3.386719 0-6.460938-2.007812-7.816407-5.121093-2.867187-6.535157-4.320312-13.441407-4.320312-20.480469 0-28.234375 22.972656-51.199219 51.203125-51.199219 0-28.238281 22.96875-51.199219 51.199218-51.199219 20.964844 0 39.097657 12.722657 46.925782 31.070313 10.613281-8.953125 24.121094-14.003906 38.40625-14.003906 30.320312 0 55.441406 22.707031 59.238281 52.019531 2.980469-.546875 5.992187-.820313 9.027344-.820313 28.230469 0 51.203125 22.964844 51.203125 51.199219 0 4.71875-3.824219 8.535156-8.535156 8.535156zm-280.5-17.066406h270.882812c-3.796875-14.710937-17.175781-25.601563-33.058594-25.601563-4.710937 0-9.351562 1-13.796875 2.96875-2.738281 1.214844-5.914062.90625-8.363281-.816406-2.449219-1.726562-3.824219-4.601562-3.609375-7.597656.109375-1.296875.179687-2.183594.179687-3.085938 0-23.527343-19.140624-42.667968-42.667968-42.667968-14.453125 0-27.816406 7.261718-35.746094 19.421875-2.023438 3.089843-5.792969 4.554687-9.359375 3.582031-3.566406-.945312-6.109375-4.085938-6.316406-7.78125-.980469-18.105469-15.871094-32.289062-33.910157-32.289062-18.824218 0-34.132812 15.308593-34.132812 34.132812 0 2.390625.324219 4.941406.996094 7.800781.675781 2.882813-.179688 5.894531-2.269532 7.996094-2.089843 2.089844-5.117187 2.941406-7.984374 2.277344-2.851563-.683594-5.410157-1.007813-7.808594-1.007813-18.824219 0-34.132813 15.308594-34.132813 34.132813 0 2.886719.363281 5.742187 1.097657 8.535156zm0 0"/><path d="m332.800781 512.003906h-256c-4.351562 0-8.003906-3.269531-8.480469-7.597656l-17.066406-153.597656c-.265625-2.40625.5-4.824219 2.125-6.632813 1.621094-1.808593 3.933594-2.839843 6.355469-2.839843h290.132813c2.425781 0 4.738281 1.03125 6.359374 2.839843 1.621094 1.808594 2.386719 4.226563 2.125 6.632813l-17.070312 153.597656c-.476562 4.328125-4.128906 7.597656-8.480469 7.597656zm-248.363281-17.070312h240.726562l15.171876-136.53125h-271.070313zm0 0"/><path d="m119.46875 392.535156h-55.945312c-4.710938 0-8.535157-3.8125-8.535157-8.53125 0-4.722656 3.824219-8.535156 8.535157-8.535156h55.945312c4.710938 0 8.53125 3.8125 8.53125 8.535156 0 4.71875-3.820312 8.53125-8.53125 8.53125zm0 0"/><path d="m170.667969 392.535156h-17.066407c-4.710937 0-8.535156-3.8125-8.535156-8.53125 0-4.722656 3.824219-8.535156 8.535156-8.535156h17.066407c4.710937 0 8.53125 3.8125 8.53125 8.535156 0 4.71875-3.820313 8.53125-8.53125 8.53125zm0 0"/><path d="m336.589844 477.867188h-54.988282c-4.710937 0-8.535156-3.8125-8.535156-8.53125s3.824219-8.535157 8.535156-8.535157h54.988282c4.710937 0 8.535156 3.816407 8.535156 8.535157s-3.816406 8.53125-8.535156 8.53125zm0 0"/><path d="m247.46875 477.867188h-17.066406c-4.710938 0-8.535156-3.8125-8.535156-8.53125s3.824218-8.535157 8.535156-8.535157h17.066406c4.710938 0 8.53125 3.816407 8.53125 8.535157s-3.820312 8.53125-8.53125 8.53125zm0 0"/></svg>