<svg height="512pt" viewBox="-102 0 511 512" width="512pt" xmlns="http://www.w3.org/2000/svg"><path d="m205.285156 409.601562h-102.402344c-20.734374 0-34.132812-23.449218-34.132812-59.734374 0-25.25-35.609375-92.390626-49.328125-116.128907-26.847656-56.765625-25.023437-113.613281 4.820313-160.710937 28.542968-45.039063 78.292968-73.027344 129.84375-73.027344 51.546874 0 101.296874 27.980469 129.832031 73.027344 29.84375 47.097656 31.667969 103.945312 5.15625 160.085937-14.046875 24.371094-49.65625 91.527344-49.65625 116.761719 0 36.277344-13.398438 59.726562-34.132813 59.726562zm-51.199218-392.535156c-45.757813 0-89.984376 24.941406-115.421876 65.101563-26.601562 41.976562-28.066406 92.988281-4.132812 143.65625 4.960938 8.519531 51.296875 89.679687 51.296875 124.042969 0 23.925781 7.492187 42.667968 17.066406 42.667968h102.398438c9.574219 0 17.066406-18.742187 17.066406-42.667968 0-34.363282 46.335937-115.523438 51.617187-124.664063 23.605469-50.039063 22.128907-101.058594-4.460937-143.035156-25.457031-40.160157-69.675781-65.101563-115.429687-65.101563zm0 0"/><path d="m205.351562 477.867188h-102.398437c-14.113281 0-25.601563-11.488282-25.601563-25.601563s11.488282-25.597656 25.601563-25.597656h102.398437c14.117188 0 25.601563 11.484375 25.601563 25.597656s-11.484375 25.601563-25.601563 25.601563zm-102.398437-34.132813c-4.710937 0-8.535156 3.820313-8.535156 8.53125s3.824219 8.535156 8.535156 8.535156h102.398437c4.703126 0 8.535157-3.824219 8.535157-8.535156s-3.832031-8.53125-8.535157-8.53125zm0 0"/><path d="m205.351562 443.734375h-102.398437c-14.113281 0-25.601563-11.488281-25.601563-25.601563 0-14.113281 11.488282-25.597656 25.601563-25.597656h102.398437c14.117188 0 25.601563 11.484375 25.601563 25.597656 0 14.113282-11.484375 25.601563-25.601563 25.601563zm-102.398437-34.132813c-4.710937 0-8.535156 3.820313-8.535156 8.53125 0 4.710938 3.824219 8.535157 8.535156 8.535157h102.398437c4.703126 0 8.535157-3.824219 8.535157-8.535157 0-4.710937-3.832031-8.53125-8.535157-8.53125zm0 0"/><path d="m194.429688 512h-80.554688c-10.726562 0-19.457031-8.722656-19.457031-19.457031v-23.210938c0-4.71875 3.824219-8.53125 8.535156-8.53125h102.398437c4.710938 0 8.535157 3.8125 8.535157 8.53125v23.210938c0 10.734375-8.730469 19.457031-19.457031 19.457031zm-82.945313-34.132812v14.675781c0 1.316406 1.070313 2.390625 2.390625 2.390625h80.554688c1.316406 0 2.390624-1.074219 2.390624-2.390625v-14.675781zm0 0"/><path d="m226.25 389.382812c-1.332031 0-2.652344-.304687-3.863281-.917968l-1.714844-.871094c-28.417969-14.953125-43.511719-47.71875-35.960937-77.953125 1.878906-7.519531 4.769531-13.738281 8.59375-18.515625 8.5-10.582031 8.566406-25.671875.179687-36.679688-23.910156-31.359374-15.097656-62.386718-14.703125-63.683593 14.828125-41.648438 48.101562-41.359375 62.367188-41.214844l1.007812.007813c10.976562.078124 21.511719 5.792968 28.902344 15.691406v.011718c3.132812 4.195313 10.820312 12.636719 27.144531 22.023438 3.320313 1.910156 4.957031 5.792969 4.019531 9.496094-3.105468 12.230468-7.527344 24.449218-13.140625 36.328125-14.046875 24.371093-49.65625 91.527343-49.65625 116.761719 0 12.457031-1.765625 24.140624-5.101562 33.773437-.8125 2.332031-2.585938 4.199219-4.875 5.128906-1.03125.402344-2.113281.613281-3.199219.613281zm12.023438-222.785156c-13.378907 0-33.363282 1.644532-43.273438 29.457032-.117188.492187-6.414062 23.808593 12.058594 48.042968 13.160156 17.253906 12.980468 40.992188-.433594 57.710938-2.269531 2.832031-4.070312 6.859375-5.34375 11.960937-4.957031 19.808594 3.160156 41.132813 19.585938 53.753907.972656-5.488282 1.492187-11.503907 1.492187-17.65625 0-34.363282 46.335937-115.523438 51.617187-124.664063 3.945313-8.40625 7.375-17.417969 10.046876-26.539063-14.398438-9.070312-22.375-17.484374-26.632813-23.191406-4.164063-5.582031-9.765625-8.808594-15.34375-8.84375l-1.042969-.007812c-.886718-.015625-1.789062-.023438-2.730468-.023438zm0 0"/><path d="m115.703125 180.863281c-10.515625 0-42.421875-4.019531-53.207031-51.277343-1.808594-7.941407-2.671875-16.367188-2.636719-25.769532.027344-6.785156-7.707031-23.765625-21.75-36.746094-3.371094-3.097656-3.679687-8.316406-.710937-11.808593 11.027343-12.929688 23.996093-23.960938 38.539062-32.800781 2.261719-1.375 5.023438-1.605469 7.492188-.675782 6.058593 2.328125 12.054687 4.414063 18.335937 6.359375.332031.066407 19.210937 4.964844 30.429687 25.402344 7.714844 14.039063 25.277344 19.761719 40.003907 13.046875v-.007812c5.523437-2.5 11.761719-2.253907 17.128906.714843 5.382813 2.988281 9.078125 8.382813 9.890625 14.429688 1.800781 13.605469.511719 39.238281-28.441406 58.0625-6.949219 4.515625-13.074219 11.476562-18.210938 20.683593-6.929687 12.425782-20.078125 20.175782-34.347656 20.292969-.582031.050781-1.433594.09375-2.515625.09375zm-60.085937-120.3125c12.527343 13.84375 21.359374 31.414063 21.308593 43.34375-.035156 8.078125.691407 15.246094 2.203125 21.894531 9.480469 41.507813 36.445313 38.179688 37.570313 38.007813.402343-.058594.804687-.085937 1.203125-.085937 8.21875 0 15.796875-4.429688 19.765625-11.542969 6.5-11.65625 14.511719-20.636719 23.816406-26.675781 16.082031-10.460938 23.089844-24.421876 20.820313-41.5-.136719-1.039063-.90625-1.570313-1.238282-1.746094-.425781-.242188-1.074218-.453125-1.773437-.128906-22.800781 10.417968-50.058594 1.492187-62.046875-20.351563-7.507813-13.679687-19.617188-17.066406-20.128906-17.214844-5.574219-1.714843-10.710938-3.445312-15.804688-5.324219-9.386719 6.101563-17.996094 13.238282-25.695312 21.324219zm0 0"/><path d="m82.847656 391.816406c-.46875 0-.9375-.042968-1.40625-.121094-2.945312-.492187-5.417968-2.488281-6.527344-5.261718-3.976562-10.003906-6.171874-22.980469-6.171874-36.566406 0-16.164063-15.605469-54.496094-41.761719-102.546876-1.5-2.761718-1.367188-6.144531.375-8.769531 1.742187-2.628906 4.8125-4.15625 7.917969-3.789062 9.925781.921875 18.960937-.265625 26.882812-3.566407l.902344-.386718c8.117187-3.378906 16.511718-6.886719 25.394531-9.367188 4.355469-1.230468 9.261719-2.554687 14.335937-3.859375 3.917969-.988281 8.007813.878907 9.789063 4.496094 13.515625 27.503906 18.421875 58.027344 13.464844 83.738281-6.730469 34.875-18.738281 62.039063-36.726563 83.011719-1.628906 1.914063-4.003906 2.988281-6.46875 2.988281zm-34.097656-140.007812c18.234375 34.691406 37.066406 75.90625 37.066406 98.058594 0 4.785156.308594 9.4375.898438 13.824218 10.425781-16.488281 17.859375-36.644531 22.578125-61.097656 3.910156-20.242188.582031-44.203125-9.113281-66.664062-2.484376.664062-4.863282 1.3125-7.109376 1.953124-7.882812 2.210938-15.4375 5.359376-23.433593 8.695313l-.910157.375c-6.238281 2.585937-12.921874 4.21875-19.976562 4.855469zm0 0"/></svg>