<svg height="512pt" viewBox="-34 0 512 512" width="512pt" xmlns="http://www.w3.org/2000/svg"><path d="m204.800781 281.632812h-34.132812c-3.234375 0-6.1875-1.824218-7.636719-4.71875l-17.070312-34.132812c-2.105469-4.214844-.398438-9.34375 3.816406-11.449219 4.207031-2.101562 9.335937-.410156 11.453125 3.8125l14.703125 29.414063h28.867187c4.710938 0 8.53125 3.816406 8.53125 8.535156s-3.820312 8.539062-8.53125 8.539062zm0 0"/><path d="m170.667969 281.632812c-.992188 0-2.007813-.179687-2.996094-.535156-4.414063-1.65625-6.648437-6.582031-4.992187-10.992187 9.285156-24.761719 20.746093-44.816407 34.066406-59.597657 7.960937-8.839843 19.308594-14.027343 31.136718-14.222656 11.914063-.429687 23.066407 4.445313 31.367188 13.054688 6.828125 7.089844 13.773438 15.34375 20.652344 24.515625 2.824218 3.765625 2.066406 9.113281-1.707032 11.9375-3.773437 2.824219-9.113281 2.074219-11.945312-1.707031-6.46875-8.617188-12.953125-16.324219-19.296875-22.917969-4.972656-5.164063-11.644531-7.902344-18.78125-7.835938-7.210937.128907-13.867187 3.175781-18.738281 8.585938-11.878906 13.191406-22.230469 31.429687-30.761719 54.1875-1.296875 3.421875-4.550781 5.527343-8.003906 5.527343zm0 0"/><path d="m213.332031 384.035156c-2.183593 0-4.367187-.835937-6.03125-2.5l-25.601562-25.601562c-3.335938-3.335938-3.335938-8.730469 0-12.066406 3.328125-3.335938 8.738281-3.335938 12.066406 0l25.601563 25.601562c3.335937 3.335938 3.335937 8.730469 0 12.066406-1.664063 1.664063-3.847657 2.5-6.035157 2.5zm0 0"/><path d="m187.734375 409.632812c-2.1875 0-4.371094-.835937-6.035156-2.5-3.335938-3.335937-3.335938-8.730468 0-12.066406l25.601562-25.597656c3.328125-3.335938 8.738281-3.335938 12.066407 0 3.335937 3.335938 3.335937 8.730469 0 12.066406l-25.601563 25.597656c-1.664063 1.664063-3.847656 2.5-6.03125 2.5zm0 0"/><path d="m274.535156 305.765625c-2.183594 0-4.371094-.835937-6.035156-2.5-3.335938-3.335937-3.335938-8.730469 0-12.066406l24.132812-24.132813c2.289063-2.277344 5.667969-3.085937 8.730469-2.054687l36.207031 12.066406c4.472657 1.484375 6.886719 6.3125 5.402344 10.792969-1.484375 4.480468-6.324218 6.914062-10.796875 5.394531l-31.195312-10.394531-20.40625 20.402344c-1.679688 1.65625-3.863281 2.492187-6.039063 2.492187zm0 0"/><path d="m375.464844 512h-307.199219c-4.429687 0-8.113281-3.378906-8.5-7.789062l-34.132813-392.535157c-.203124-2.378906.597657-4.746093 2.210938-6.511719 1.613281-1.765624 3.898438-2.765624 6.289062-2.765624h375.46875c2.386719 0 4.675782 1 6.289063 2.765624 1.609375 1.765626 2.414063 4.121094 2.207031 6.511719l-34.132812 392.535157c-.382813 4.410156-4.070313 7.789062-8.5 7.789062zm-299.375-17.066406h291.558594l32.648437-375.46875h-356.855469zm0 0"/><path d="m435.199219 119.464844h-426.664063c-4.710937 0-8.535156-3.8125-8.535156-8.53125v-51.199219c0-4.71875 3.824219-8.535156 8.535156-8.535156h426.664063c4.710937 0 8.535156 3.816406 8.535156 8.535156v51.199219c0 4.71875-3.824219 8.53125-8.535156 8.53125zm-418.132813-17.066406h409.601563v-34.132813h-409.601563zm0 0"/><path d="m213.332031 384.035156h-51.003906c-9.597656 0-18.386719-2.425781-25.417969-7.007812-9.355468-6.109375-15.097656-14.703125-16.617187-24.847656-3.582031-23.910157 17.332031-49.332032 18.21875-50.40625 3.011719-3.609376 8.382812-4.097657 12.007812-1.09375 3.617188 3.011718 4.121094 8.378906 1.117188 12.007812-4.71875 5.699219-16.511719 23.449219-14.464844 36.992188.8125 5.332031 3.773437 9.597656 9.054687 13.054687 4.25 2.765625 9.824219 4.234375 16.101563 4.234375h51.003906c4.710938 0 8.535157 3.8125 8.535157 8.53125s-3.824219 8.535156-8.535157 8.535156zm0 0"/><path d="m315.734375 68.265625h-187.734375c-4.710938 0-8.535156-3.8125-8.535156-8.53125v-51.199219c0-4.722656 3.824218-8.535156 8.535156-8.535156h187.734375c4.710937 0 8.53125 3.8125 8.53125 8.535156v51.199219c0 4.71875-3.820313 8.53125-8.53125 8.53125zm-179.199219-17.066406h170.664063v-34.132813h-170.664063zm0 0"/><path d="m341.332031 162.132812h-51.199219c-4.710937 0-8.53125-3.8125-8.53125-8.53125s3.820313-8.535156 8.53125-8.535156h51.199219c4.710938 0 8.535157 3.816406 8.535157 8.535156s-3.824219 8.53125-8.535157 8.53125zm0 0"/><path d="m406.015625 162.132812h-30.550781c-4.707032 0-8.53125-3.8125-8.53125-8.53125s3.824218-8.535156 8.53125-8.535156h30.550781c4.710937 0 8.535156 3.816406 8.535156 8.535156s-3.816406 8.53125-8.535156 8.53125zm0 0"/><path d="m170.667969 469.332031h-51.203125c-4.707032 0-8.53125-3.8125-8.53125-8.53125s3.824218-8.535156 8.53125-8.535156h51.203125c4.710937 0 8.53125 3.816406 8.53125 8.535156s-3.820313 8.53125-8.53125 8.53125zm0 0"/><path d="m85.332031 469.332031h-20.480469c-4.707031 0-8.53125-3.8125-8.53125-8.53125s3.824219-8.535156 8.53125-8.535156h20.480469c4.710938 0 8.535157 3.816406 8.535157 8.535156s-3.824219 8.53125-8.535157 8.53125zm0 0"/><path d="m282.15625 384.007812c-.242188 0-.480469-.007812-.71875-.007812h-33.972656c-4.707032 0-8.53125-3.8125-8.53125-8.535156 0-4.71875 3.824218-8.53125 8.53125-8.53125h34.136718c6.296876-.152344 12.398438-2.570313 17.21875-7.550782 5.835938-6.027343 9.0625-14.507812 8.636719-22.691406-.929687-17.722656-6.496093-37.929687-16.554687-60.058594-1.957032-4.292968-.050782-9.351562 4.238281-11.296874 4.292969-1.972657 9.347656-.050782 11.300781 4.230468 10.949219 24.082032 17.023438 46.371094 18.054688 66.246094.675781 12.816406-4.34375 26.070312-13.40625 35.4375-7.976563 8.246094-18.226563 12.757812-28.933594 12.757812zm0 0"/></svg>