<svg height="512pt" viewBox="-43 0 512 512.00213" width="512pt" xmlns="http://www.w3.org/2000/svg"><path d="m366.933594 426.667969c-4.710938 0-8.53125-3.8125-8.53125-8.53125v-384c0-4.71875 3.820312-8.535157 8.53125-8.535157 4.710937 0 8.535156 3.816407 8.535156 8.535157v384c0 4.71875-3.824219 8.53125-8.535156 8.53125zm0 0"/><path d="m418.132812 512.003906h-102.398437c-4.710937 0-8.535156-3.816406-8.535156-8.535156v-469.332031c0-2.269531.898437-4.4375 2.503906-6.035157l25.597656-25.597656c3.328125-3.339844 8.738281-3.339844 12.066407 0l19.566406 19.566406 19.566406-19.566406c3.328125-3.339844 8.738281-3.339844 12.066406 0l25.601563 25.597656c1.605469 1.597657 2.5 3.765626 2.5 6.035157v469.332031c0 4.71875-3.824219 8.535156-8.535157 8.535156zm-93.863281-17.070312h85.332031v-457.265625l-17.066406-17.066407-19.566406 19.566407c-3.328125 3.335937-8.738281 3.335937-12.066406 0l-19.566406-19.566407-17.066407 17.066407zm0 0"/><path d="m315.734375 512.003906h-307.199219c-4.710937 0-8.535156-3.816406-8.535156-8.535156v-469.332031c0-2.269531.898438-4.4375 2.5-6.035157l25.601562-25.597656c3.328126-3.339844 8.738282-3.339844 12.066407 0l19.566406 19.566406 19.566406-19.566406c3.328125-3.339844 8.738281-3.339844 12.066407 0l19.566406 19.566406 19.566406-19.566406c3.328125-3.339844 8.738281-3.339844 12.066406 0l19.566406 19.566406 19.570313-19.566406c3.328125-3.339844 8.738281-3.339844 12.0625 0l19.570313 19.566406 19.566406-19.566406c3.328125-3.339844 8.738281-3.339844 12.066406 0l19.566406 19.566406 19.566406-19.566406c3.328126-3.339844 8.738282-3.339844 12.066407 0l25.597656 25.597656c1.605469 1.597657 2.503906 3.765626 2.503906 6.035157v469.332031c0 4.71875-3.824219 8.535156-8.535156 8.535156zm-298.667969-17.070312h290.132813v-457.265625l-17.066407-17.066407-19.566406 19.566407c-3.328125 3.335937-8.738281 3.335937-12.066406 0l-19.566406-19.566407-19.566406 19.566407c-3.328126 3.335937-8.738282 3.335937-12.066407 0l-19.566406-19.566407-19.566406 19.566407c-3.328125 3.335937-8.738281 3.335937-12.066407 0l-19.566406-19.566407-19.566406 19.566407c-3.328125 3.335937-8.738281 3.335937-12.066406 0l-19.566406-19.566407-19.570313 19.566407c-3.324219 3.335937-8.734375 3.335937-12.0625 0l-19.570313-19.566407-17.066406 17.066407zm0 0"/><path d="m136.132812 247.503906h-34.132812c-3.234375 0-6.1875-1.828125-7.636719-4.71875l-17.066406-34.132812c-2.109375-4.21875-.402344-9.34375 3.8125-11.453125 4.207031-2.097657 9.335937-.402344 11.453125 3.8125l14.703125 29.414062h28.859375c4.710938 0 8.53125 3.816407 8.53125 8.535157s-3.8125 8.542968-8.523438 8.542968zm0 0"/><path d="m102 247.503906c-.988281 0-2.003906-.179687-2.996094-.539062-4.410156-1.65625-6.648437-6.578125-4.992187-10.992188 9.285156-24.761718 20.746093-44.816406 34.066406-59.59375 7.960937-8.84375 19.3125-14.03125 31.136719-14.226562 11.871094-.351563 23.066406 4.4375 31.371094 13.054687 6.824218 7.09375 13.769531 15.34375 20.648437 24.519531 2.824219 3.761719 2.066406 9.113282-1.707031 11.9375-3.761719 2.832032-9.113282 2.074219-11.945313-1.707031-6.46875-8.621093-12.953125-16.324219-19.292969-22.921875-4.976562-5.160156-11.699218-7.917968-18.78125-7.832031-7.210937.128906-13.867187 3.171875-18.742187 8.582031-11.878906 13.195313-22.226563 31.429688-30.761719 54.1875-1.296875 3.421875-4.546875 5.53125-8.003906 5.53125zm0 0"/><path d="m144.667969 349.902344c-2.1875 0-4.371094-.835938-6.035157-2.5l-25.597656-25.601563c-3.339844-3.335937-3.339844-8.726562 0-12.0625 3.328125-3.339843 8.738282-3.339843 12.066406 0l25.597657 25.597657c3.335937 3.335937 3.335937 8.730468 0 12.066406-1.664063 1.664062-3.847657 2.5-6.03125 2.5zm0 0"/><path d="m119.066406 375.503906c-2.183594 0-4.367187-.835937-6.03125-2.5-3.339844-3.335937-3.339844-8.730468 0-12.066406l25.597656-25.601562c3.328126-3.335938 8.738282-3.335938 12.066407 0 3.335937 3.335937 3.335937 8.730468 0 12.066406l-25.597657 25.601562c-1.664062 1.664063-3.851562 2.5-6.035156 2.5zm0 0"/><path d="m206.269531 271.636719c-2.183593 0-4.371093-.835938-6.035156-2.5-3.335937-3.339844-3.335937-8.730469 0-12.066407l24.132813-24.140624c2.289062-2.289063 5.667968-3.089844 8.738281-2.058594l36.207031 12.074218c4.472656 1.496094 6.886719 6.316407 5.394531 10.796876-1.496093 4.46875-6.324219 6.910156-10.796875 5.390624l-31.195312-10.402343-20.40625 20.414062c-1.671875 1.65625-3.863282 2.492188-6.039063 2.492188zm0 0"/><path d="m144.667969 349.902344h-51.003907c-9.601562 0-18.390624-2.421875-25.421874-7.003906-9.351563-6.109376-15.09375-14.703126-16.613282-24.851563-3.585937-23.910156 17.328125-49.328125 18.21875-50.40625 3.011719-3.601563 8.378906-4.09375 12.003906-1.089844 3.621094 3.011719 4.121094 8.378907 1.117188 12.003907-4.71875 5.703124-16.511719 23.449218-14.460938 36.992187.808594 5.335937 3.769532 9.601563 9.050782 13.058594 4.25 2.761719 9.824218 4.230469 16.105468 4.230469h51.003907c4.710937 0 8.53125 3.816406 8.53125 8.535156s-3.820313 8.53125-8.53125 8.53125zm0 0"/><path d="m213.90625 349.867188c-.246094 0-.488281-.007813-.734375-.007813h-33.972656c-4.707031 0-8.53125-3.8125-8.53125-8.53125s3.824219-8.535156 8.53125-8.535156h34.136719c6.363281-.035157 12.398437-2.558594 17.21875-7.542969 5.835937-6.023438 9.0625-14.507812 8.636718-22.691406-.929687-17.722656-6.496094-37.929688-16.554687-60.066406-1.957031-4.289063-.050781-9.351563 4.238281-11.296876 4.292969-1.953124 9.355469-.050781 11.300781 4.234376 10.949219 24.089843 17.023438 46.386718 18.054688 66.25.675781 12.820312-4.34375 26.078124-13.414063 35.449218-7.96875 8.234375-18.210937 12.738282-28.910156 12.738282zm0 0"/><path d="m221.867188 85.335938h-34.132813c-4.710937 0-8.535156-3.816407-8.535156-8.535157s3.824219-8.53125 8.535156-8.53125h34.132813c4.710937 0 8.535156 3.8125 8.535156 8.53125s-3.824219 8.535157-8.535156 8.535157zm0 0"/><path d="m315.734375 85.335938h-59.734375c-4.710938 0-8.53125-3.816407-8.53125-8.535157s3.820312-8.53125 8.53125-8.53125h59.734375c4.710937 0 8.535156 3.8125 8.535156 8.53125s-3.824219 8.535157-8.535156 8.535157zm0 0"/><path d="m76.800781 469.335938h-68.265625c-4.710937 0-8.535156-3.816407-8.535156-8.535157s3.824219-8.53125 8.535156-8.53125h68.265625c4.710938 0 8.535157 3.8125 8.535157 8.53125s-3.824219 8.535157-8.535157 8.535157zm0 0"/><path d="m136.535156 469.335938h-25.601562c-4.710938 0-8.53125-3.816407-8.53125-8.535157s3.820312-8.53125 8.53125-8.53125h25.601562c4.710938 0 8.53125 3.8125 8.53125 8.53125s-3.820312 8.535157-8.53125 8.535157zm0 0"/><path d="m366.933594 477.867188c-4.710938 0-8.53125-3.8125-8.53125-8.53125v-17.066407c0-4.71875 3.820312-8.535156 8.53125-8.535156 4.710937 0 8.535156 3.816406 8.535156 8.535156v17.066407c0 4.71875-3.824219 8.53125-8.535156 8.53125zm0 0"/></svg>