<svg height="512pt" viewBox="0 -13 512.00025 512" width="512pt" xmlns="http://www.w3.org/2000/svg"><path d="m8.535156 486.429688c-1.65625 0-3.304687-.484376-4.730468-1.433594-2.378907-1.570313-3.804688-4.238282-3.804688-7.097656v-102.40625c0-3.667969 2.347656-6.929688 5.820312-8.089844 2.507813-.84375 8.167969-4.089844 12.707032-6.707032 5.835937-3.363281 11.347656-6.539062 15.351562-7.921874 4.488282-1.550782 9.078125-2.867188 13.664063-4.179688 6.800781-1.953125 13.226562-3.796875 19.269531-6.382812 5.015625-2.144532 9.488281-5.726563 14.222656-9.523438 5.121094-4.097656 10.414063-8.355469 17.050782-11.394531 11.230468-5.152344 23.476562-6.722657 35.425781-4.648438 7.082031 1.246094 14.320312 3.71875 21.53125 7.335938 7.003906 3.519531 12.722656 8.117187 18.253906 12.582031 2.046875 1.644531 4.09375 3.300781 6.210937 4.886719 6.777344 5.078125 14.164063 9.449219 21.957032 13.015625 12.304687 5.605468 30.730468 11.476562 48.644531 7.605468 4.339844-.941406 8.589844-2.355468 13.089844-3.867187 6.082031-2.03125 12.382812-4.140625 19.34375-5.171875 12.851562-1.921875 24.339843-1.511719 34.160156 1.203125 9.199219 2.550781 16.207031 8.867187 19.742187 17.800781 1.714844 4.335938 2.566407 8.652344 3.378907 12.835938 3.453125-.230469 6.902343-.648438 10.351562-1.050782 3.15625-.375 6.320313-.742187 9.488281-1.007812 9.359376-.765625 18.738282-1.476562 28.128907-1.996094 21.914062-1.253906 43.109375-3.0625 61.492187-11.304687 11.238282-5.027344 30.21875-6.804688 44.742188-.4375 8.507812 3.738281 14.378906 9.824219 16.992187 17.621093v.011719c3.53125 10.554688-2.773437 22.261719-14.054687 26.101563-9.089844 3.082031-18.160156 6.222656-27.234375 9.363281l-47.394531 16.382813c-2.234376.777343-4.464844 1.640624-6.691407 2.511718-5.273437 2.054688-10.734375 4.179688-16.691406 5.359375-11.230469 2.234375-21.691406 2.046875-31.820313 1.851563-4.558593-.085938-9.167968-.1875-13.921874-.027344-13.816407.402344-27.382813 2.773438-40.328126 7.050781-4.207031 1.390625-8.382812 2.984375-12.554687 4.574219-9.957031 3.796875-20.265625 7.722656-31.53125 9.285156-12.9375 1.773438-27.265625.84375-39.914063.007813l-4.964843-.324219c-10.300781-.640625-20.53125-2.765625-30.414063-4.8125-7.261718-1.511719-14.125-2.9375-20.992187-3.808594-18.714844-2.398437-34.980469-2.789062-49.738281-1.175781-31.316407 3.421875-81.375 14.363281-110.945313 26.734375-1.058594.4375-2.175781.648438-3.292969.648438zm8.53125-105.398438v84.449219c31.933594-11.339844 75.472656-20.300781 103.855469-23.40625 16.105469-1.769531 33.691406-1.367188 53.765625 1.210937 7.515625.964844 15.027344 2.523438 22.289062 4.035156 9.726563 2.015626 18.917969 3.925782 28.007813 4.488282l5.035156.324218c12.40625.820313 25.242188 1.664063 36.457031.128907 9.335938-1.289063 18.296876-4.710938 27.785157-8.328125 4.417969-1.683594 8.824219-3.371094 13.277343-4.832032 14.515626-4.796874 29.714844-7.457031 45.1875-7.917968 5.035157-.144532 9.90625-.070313 14.730469.035156 9.648438.179688 18.753907.339844 28.183594-1.527344 4.492187-.890625 9.023437-2.664062 13.816406-4.523437 2.433594-.949219 4.867188-1.894531 7.304688-2.742188l47.40625-16.398437c9.097656-3.140625 18.195312-6.289063 27.316406-9.398438 2.066406-.699218 3.953125-2.730468 3.355469-4.523437-1.066406-3.191407-3.578125-5.613281-7.65625-7.40625-9.378906-4.113281-23.347656-3.019531-30.910156.375-21.035157 9.421875-43.929688 11.417969-67.5 12.769531-9.242188.527344-18.476563 1.21875-27.691407 1.976562-2.980469.242188-5.941406.589844-8.894531.941407-4.222656.492187-8.457031.988281-12.707031 1.21875-3.003907.382812-6.160157.777343-9.191407-.605469-5.410156-2.390625-6.375-6.230469-6.289062-9.0625-.273438-.835938-.554688-2.320312-.84375-3.824219-.707031-3.703125-1.382812-7.191406-2.558594-10.171875-1.078125-2.714844-3.40625-6.246094-8.414062-7.636718-7.503906-2.074219-16.625-2.339844-27.105469-.769532-5.476563.820313-10.804687 2.59375-16.445313 4.472656-4.734374 1.585938-9.625 3.226563-14.871093 4.367188-22.503907 4.867188-44.703125-2.070312-59.371094-8.753906-8.902344-4.078125-17.339844-9.078125-25.089844-14.882813-2.277343-1.707031-4.488281-3.480469-6.691406-5.265625-5.050781-4.070312-9.820313-7.910156-15.195313-10.605468-5.738281-2.878907-11.394531-4.816407-16.839843-5.789063-8.523438-1.492187-17.289063-.324219-25.363281 3.363281-4.707032 2.160156-8.96875 5.574219-13.472657 9.191406-5.417969 4.34375-11.027343 8.832032-18.195312 11.90625-7.015625 3.003907-14.257813 5.085938-21.257813 7.089844-4.300781 1.238282-8.609375 2.464844-12.816406 3.917969-2.464844.851563-7.96875 4.027344-12.398438 6.578125-3.542968 2.015625-6.957031 3.96875-10.003906 5.53125zm0 0"/><path d="m252.328125 424.511719c-15.890625 0-31.816406-.949219-47.507813-2.835938-19.945312-2.398437-45.632812-6.773437-67.460937-19.40625-4.078125-2.355469-5.46875-7.578125-3.113281-11.65625 2.363281-4.085937 7.585937-5.488281 11.65625-3.105469 19.132812 11.066407 42.625 15.027344 60.949218 17.230469 19.515626 2.34375 39.414063 3.164063 59.113282 2.472657l1.492187-.058594c16.632813-.589844 33.828125-1.21875 47.328125-9.019532 4.777344-2.765624 9.046875-6.214843 12.699219-10.234374 3.164063-3.488282 8.558594-3.761719 12.046875-.597657 3.492188 3.160157 3.765625 8.5625.597656 12.050781-4.835937 5.351563-10.488281 9.910157-16.800781 13.5625-17.179687 9.933594-37.414063 10.65625-55.257813 11.296876l-1.492187.050781c-4.738281.164062-9.488281.25-14.25.25zm0 0"/><path d="m315.75 324.289062c-65.882812 0-119.472656-51.355468-119.472656-114.472656 0-97.863281 108.941406-203.015625 113.574218-207.453125 3.304688-3.152343 8.492188-3.152343 11.785157 0 4.644531 4.4375 113.585937 109.597657 113.585937 207.453125 0 63.125-53.59375 114.472656-119.472656 114.472656zm0-303.65625c-22.605469 23.289063-102.40625 111.074219-102.40625 189.183594 0 53.710938 45.9375 97.40625 102.40625 97.40625s102.402344-43.695312 102.402344-97.40625c0-78.195312-79.789063-165.902344-102.402344-189.183594zm0 0"/><path d="m247.539062 251.324219c-3.011718 0-5.921874-1.59375-7.476562-4.410157-6.296875-11.410156-9.625-24.234374-9.640625-37.089843-.011719-4.707031 3.8125-8.53125 8.523437-8.539063h.007813c4.710937 0 8.527344 3.8125 8.535156 8.523438.007813 9.976562 2.609375 19.960937 7.515625 28.851562 2.28125 4.132813.777344 9.320313-3.34375 11.597656-1.3125.726563-2.730468 1.066407-4.121094 1.066407zm0 0"/><path d="m315.75 290.15625c-12.578125-.011719-24.605469-2.996094-37.847656-9.390625-4.242188-2.046875-6.023438-7.148437-3.976563-11.390625 2.046875-4.25 7.152344-6.015625 11.390625-3.976562 10.847656 5.230468 20.515625 7.671874 30.433594 7.679687 4.710938 0 8.53125 3.824219 8.523438 8.542969.007812 4.71875-3.8125 8.535156-8.523438 8.535156zm0 0"/></svg>