<svg height="512pt" viewBox="-98 0 512 512" width="512pt" xmlns="http://www.w3.org/2000/svg"><path d="m290.160156 512h-221.917968c-14.105469 0-25.574219-11.476562-25.574219-25.574219v-307.25c0-14.097656 11.46875-25.574219 25.574219-25.574219h221.917968c14.105469 0 25.574219 11.476563 25.574219 25.574219v307.25c0 14.097657-11.46875 25.574219-25.574219 25.574219zm-221.917968-341.332031c-4.695313 0-8.507813 3.8125-8.507813 8.507812v307.25c0 4.691407 3.8125 8.507813 8.507813 8.507813h221.917968c4.691406 0 8.507813-3.816406 8.507813-8.507813v-307.25c0-4.695312-3.816407-8.507812-8.507813-8.507812zm0 0"/><path d="m307.199219 460.800781h-256c-4.710938 0-8.53125-3.816406-8.53125-8.535156v-221.867187c0-4.71875 3.820312-8.53125 8.53125-8.53125h256c4.710937 0 8.535156 3.8125 8.535156 8.53125v221.867187c0 4.71875-3.824219 8.535156-8.535156 8.535156zm-247.464844-17.066406h238.933594v-204.800781h-238.933594zm0 0"/><path d="m196.265625 204.800781h-34.132813c-4.710937 0-8.53125-3.816406-8.53125-8.535156v-34.132813c0-4.71875 3.820313-8.53125 8.53125-8.53125h34.132813c4.710937 0 8.535156 3.8125 8.535156 8.53125v34.132813c0 4.71875-3.824219 8.535156-8.535156 8.535156zm-25.597656-17.066406h17.066406v-17.066406h-17.066406zm0 0"/><path d="m221.867188 170.667969h-85.332032c-4.710937 0-8.535156-3.816407-8.535156-8.535157v-34.132812c0-4.71875 3.824219-8.535156 8.535156-8.535156h85.332032c4.710937 0 8.53125 3.816406 8.53125 8.535156v34.132812c0 4.71875-3.820313 8.535157-8.53125 8.535157zm-76.800782-17.066407h68.265625v-17.066406h-68.265625zm0 0"/><path d="m196.265625 136.535156h-34.132813c-4.710937 0-8.53125-3.816406-8.53125-8.535156v-51.199219c0-4.71875 3.820313-8.535156 8.53125-8.535156h34.132813c4.710937 0 8.535156 3.816406 8.535156 8.535156v51.199219c0 4.71875-3.824219 8.535156-8.535156 8.535156zm-25.597656-17.070312h17.066406v-34.132813h-17.066406zm0 0"/><path d="m221.867188 85.332031h-85.332032c-4.710937 0-8.535156-3.8125-8.535156-8.53125v-68.265625c0-4.722656 3.824219-8.535156 8.535156-8.535156h85.332032c4.710937 0 8.53125 3.8125 8.53125 8.535156v68.265625c0 4.71875-3.820313 8.53125-8.53125 8.53125zm-76.800782-17.066406h68.265625v-51.199219h-68.265625zm0 0"/><path d="m42.667969 102.398438h-34.132813c-4.710937 0-8.535156-3.8125-8.535156-8.53125v-25.601563c0-28.234375 22.972656-51.199219 51.199219-51.199219h85.335937c4.707032 0 8.53125 3.816406 8.53125 8.535156v34.132813c0 4.71875-3.824218 8.53125-8.53125 8.53125h-76.800781c-4.710937 0-8.535156 3.824219-8.535156 8.535156v17.066407c0 4.71875-3.820313 8.53125-8.53125 8.53125zm-25.601563-17.066407h17.066406v-8.53125c0-14.113281 11.488282-25.601562 25.601563-25.601562h68.265625v-17.066407h-76.800781c-18.824219 0-34.132813 15.308594-34.132813 34.132813zm0 0"/><path d="m179.199219 341.332031h-39.285157c-20.6875 0-37.515624-16.835937-37.515624-37.511719v-39.285156c0-4.722656 3.824218-8.535156 8.535156-8.535156h39.289062c20.683594 0 37.511719 16.835938 37.511719 37.511719v39.289062c0 4.71875-3.824219 8.53125-8.535156 8.53125zm-59.734375-68.265625v30.753906c0 11.273438 9.175781 20.445313 20.449218 20.445313h30.753907v-30.753906c0-11.273438-9.175781-20.445313-20.445313-20.445313zm0 0"/><path d="m179.199219 341.332031c-2.183594 0-4.367188-.835937-6.03125-2.5l-34.132813-34.132812c-3.339844-3.335938-3.339844-8.730469 0-12.066407 3.328125-3.335937 8.738282-3.335937 12.066406 0l34.132813 34.132813c3.335937 3.335937 3.335937 8.730469 0 12.066406-1.664063 1.664063-3.851563 2.5-6.035156 2.5zm0 0"/><path d="m218.488281 341.332031h-39.289062c-4.710938 0-8.53125-3.8125-8.53125-8.53125v-39.289062c0-20.675781 16.828125-37.511719 37.511719-37.511719h39.285156c4.710937 0 8.535156 3.8125 8.535156 8.535156v39.285156c0 20.675782-16.828125 37.511719-37.511719 37.511719zm-30.753906-17.066406h30.753906c11.273438 0 20.445313-9.171875 20.445313-20.445313v-30.753906h-30.753906c-11.273438 0-20.445313 9.171875-20.445313 20.445313zm0 0"/><path d="m179.199219 341.332031c-2.183594 0-4.367188-.835937-6.03125-2.5-3.335938-3.335937-3.335938-8.730469 0-12.066406l34.132812-34.132813c3.335938-3.335937 8.730469-3.335937 12.066407 0 3.335937 3.335938 3.335937 8.730469 0 12.066407l-34.132813 34.132812c-1.664063 1.664063-3.851563 2.5-6.035156 2.5zm0 0"/><path d="m179.199219 392.535156c-4.710938 0-8.53125-3.816406-8.53125-8.535156v-51.199219c0-4.71875 3.820312-8.535156 8.53125-8.535156 4.710937 0 8.535156 3.816406 8.535156 8.535156v51.199219c0 4.71875-3.824219 8.535156-8.535156 8.535156zm0 0"/><path d="m221.867188 426.667969h-85.332032c-4.710937 0-8.535156-3.816407-8.535156-8.535157 0-23.527343 19.140625-42.667968 42.667969-42.667968h17.066406c23.523437 0 42.664063 19.140625 42.664063 42.667968 0 4.71875-3.820313 8.535157-8.53125 8.535157zm-75.339844-17.066407h65.339844c-3.527344-9.933593-13.015626-17.066406-24.140626-17.066406h-17.070312c-11.117188 0-20.605469 7.132813-24.128906 17.066406zm0 0"/><path d="m179.199219 238.933594c-4.710938 0-8.53125-3.816406-8.53125-8.535156v-34.132813c0-4.71875 3.820312-8.53125 8.53125-8.53125 4.710937 0 8.535156 3.8125 8.535156 8.53125v34.132813c0 4.71875-3.824219 8.535156-8.535156 8.535156zm0 0"/></svg>