<svg height="512pt" viewBox="-128 0 512 512" width="512pt" xmlns="http://www.w3.org/2000/svg"><path d="m179.199219 51.199219h-102.398438c-4.710937 0-8.535156-3.8125-8.535156-8.53125v-34.132813c0-4.722656 3.824219-8.535156 8.535156-8.535156h102.398438c4.710937 0 8.535156 3.8125 8.535156 8.535156v34.132813c0 4.71875-3.824219 8.53125-8.535156 8.53125zm-93.867188-17.066407h85.335938v-17.066406h-85.335938zm0 0"/><path d="m223.308594 512h-190.617188c-18.015625 0-32.691406-14.667969-32.691406-32.691406v-412.484375c0-18.023438 14.660156-32.691407 32.691406-32.691407h190.617188c18.023437 0 32.691406 14.667969 32.691406 32.691407v412.484375c0 18.023437-14.667969 32.691406-32.691406 32.691406zm-190.625-460.800781c-8.609375 0-15.625 7.007812-15.625 15.625v412.484375c0 8.617187 7.003906 15.625 15.625 15.625h190.617187c8.617188 0 15.625-7.007813 15.625-15.625v-412.484375c0-8.617188-7.007812-15.625-15.625-15.625zm0 0"/><path d="m196.285156 477.867188h-136.570312c-14.105469 0-25.582032-11.476563-25.582032-25.582032v-358.4375c0-14.105468 11.476563-25.582031 25.582032-25.582031h136.570312c14.105469 0 25.582032 11.476563 25.582032 25.582031v358.4375c0 14.105469-11.476563 25.582032-25.582032 25.582032zm-136.578125-392.535157c-4.691406 0-8.515625 3.816407-8.515625 8.515625v358.4375c0 4.699219 3.816406 8.515625 8.515625 8.515625h136.566407c4.695312 0 8.519531-3.816406 8.519531-8.515625v-358.4375c0-4.699218-3.824219-8.515625-8.519531-8.515625zm0 0"/><path d="m179.199219 170.667969h-102.398438c-4.710937 0-8.535156-3.816407-8.535156-8.535157v-51.199218c0-4.71875 3.824219-8.535156 8.535156-8.535156h102.398438c4.710937 0 8.535156 3.816406 8.535156 8.535156v51.199218c0 4.71875-3.824219 8.535157-8.535156 8.535157zm-93.867188-17.066407h85.335938v-34.136718h-85.335938zm0 0"/><path d="m179.199219 443.734375h-102.398438c-4.710937 0-8.535156-3.816406-8.535156-8.535156v-51.199219c0-4.71875 3.824219-8.535156 8.535156-8.535156h102.398438c4.710937 0 8.535156 3.816406 8.535156 8.535156v51.199219c0 4.71875-3.824219 8.535156-8.535156 8.535156zm-93.867188-17.066406h85.335938v-34.132813h-85.335938zm0 0"/><path d="m179.199219 264.535156h-102.398438c-4.710937 0-8.535156-3.816406-8.535156-8.535156v-51.199219c0-4.71875 3.824219-8.535156 8.535156-8.535156h102.398438c4.710937 0 8.535156 3.816406 8.535156 8.535156v51.199219c0 4.71875-3.824219 8.535156-8.535156 8.535156zm-93.867188-17.070312h85.335938v-34.132813h-85.335938zm0 0"/><path d="m179.199219 349.867188h-102.398438c-4.710937 0-8.535156-3.816407-8.535156-8.535157v-51.199219c0-4.71875 3.824219-8.53125 8.535156-8.53125h102.398438c4.710937 0 8.535156 3.8125 8.535156 8.53125v51.199219c0 4.71875-3.824219 8.535157-8.535156 8.535157zm-93.867188-17.066407h85.335938v-34.132812h-85.335938zm0 0"/></svg>