<svg height="511pt" viewBox="-59 0 511 511.9936" width="511pt" xmlns="http://www.w3.org/2000/svg"><path d="m196.777344 358.363281c-42.351563 0-76.816406-34.457031-76.816406-76.816406s34.464843-76.816406 76.816406-76.816406c42.351562 0 76.816406 34.457031 76.816406 76.816406s-34.457031 76.816406-76.816406 76.816406zm0-136.5625c-32.945313 0-59.746094 26.808594-59.746094 59.746094s26.800781 59.746094 59.746094 59.746094c32.945312 0 59.746094-26.808594 59.746094-59.746094s-26.800782-59.746094-59.746094-59.746094zm0 0"/><path d="m196.777344 324.222656c-23.53125 0-42.675782-19.144531-42.675782-42.675781 0-4.71875 3.824219-8.535156 8.535157-8.535156 4.710937 0 8.535156 3.816406 8.535156 8.535156 0 14.117187 11.488281 25.605469 25.605469 25.605469 14.117187 0 25.605468-11.488282 25.605468-25.605469s-11.488281-25.605469-25.605468-25.605469c-4.710938 0-8.535156-3.8125-8.535156-8.535156 0-4.71875 3.824218-8.535156 8.535156-8.535156 23.53125 0 42.675781 19.144531 42.675781 42.675781s-19.144531 42.675781-42.675781 42.675781zm0 0"/><path d="m350.683594 254.484375c-11.34375 0-22.003906-4.449219-30.019532-12.53125l-123.886718-124.832031-123.875 124.839844c-8.015625 8.074218-18.675782 12.53125-30.019532 12.53125s-21.996093-4.449219-30.007812-12.53125c-16.5-16.617188-16.507812-43.671876 0-60.300782l177.84375-179.234375c3.207031-3.234375 8.910156-3.234375 12.121094 0l177.84375 179.234375c16.507812 16.628906 16.496094 43.683594 0 60.300782-8.007813 8.074218-18.660156 12.523437-30 12.523437zm-17.898438-24.546875c9.558594 9.625 26.21875 9.644531 35.785156 0 9.925782-9.996094 9.925782-26.265625 0-36.265625l-171.792968-173.125-171.785156 173.125c-9.925782 10-9.925782 26.269531 0 36.265625 4.789062 4.8125 11.140624 7.476562 17.890624 7.476562 6.761719 0 13.109376-2.664062 17.898438-7.476562l129.945312-130.953125c3.210938-3.234375 8.910157-3.234375 12.121094 0zm0 0"/><path d="m299.199219 418.109375h-204.839844c-4.261719 0-7.863281-3.132813-8.453125-7.351563l-24.871094-177.289062c-.367187-2.652344.523438-5.324219 2.417969-7.21875l127.289063-127.285156c3.339843-3.335938 8.734374-3.335938 12.070312 0l127.292969 127.292968c1.894531 1.894532 2.789062 4.566407 2.414062 7.21875l-24.871093 177.28125c-.589844 4.21875-4.191407 7.351563-8.449219 7.351563zm-197.417969-17.070313h190l23.25-165.726562-118.253906-118.242188-118.253906 118.242188zm0 0"/><path d="m222.382812 511.992188h-51.210937c-4.710937 0-8.535156-3.8125-8.535156-8.535157v-59.742187c0-4.722656 3.824219-8.535156 8.535156-8.535156h51.210937c4.710938 0 8.535157 3.8125 8.535157 8.535156v59.742187c0 4.722657-3.816407 8.535157-8.535157 8.535157zm-42.675781-17.070313h34.140625v-42.671875h-34.140625zm0 0"/><path d="m324.804688 452.25h-256.050782c-4.710937 0-8.535156-3.816406-8.535156-8.535156v-34.140625c0-4.722657 3.824219-8.535157 8.535156-8.535157h256.050782c4.710937 0 8.535156 3.8125 8.535156 8.535157v34.140625c0 4.71875-3.816406 8.535156-8.535156 8.535156zm-247.515626-17.070312h238.980469v-17.070313h-238.980469zm0 0"/></svg>