<svg height="512pt" viewBox="0 0 512 512" width="512pt" xmlns="http://www.w3.org/2000/svg"><path d="m475.734375 512h-439.46875c-20 0-36.265625-16.273438-36.265625-36.265625v-364.800781c0-4.710938 3.824219-8.535156 8.535156-8.535156h494.929688c4.710937 0 8.535156 3.824218 8.535156 8.535156v364.800781c0 19.992187-16.265625 36.265625-36.265625 36.265625zm-458.667969-392.535156v356.269531c0 10.589844 8.609375 19.199219 19.199219 19.199219h439.46875c10.589844 0 19.199219-8.609375 19.199219-19.199219v-356.269531zm0 0"/><path d="m503.464844 119.464844h-494.929688c-4.710937 0-8.535156-3.820313-8.535156-8.53125v-40.535156c0-19.992188 16.265625-36.265626 36.265625-36.265626h439.46875c20 0 36.265625 16.273438 36.265625 36.265626v40.535156c0 4.710937-3.824219 8.53125-8.535156 8.53125zm-486.398438-17.066406h477.867188v-32c0-10.589844-8.609375-19.199219-19.199219-19.199219h-439.46875c-10.589844 0-19.199219 8.609375-19.199219 19.199219zm0 0"/><path d="m93.867188 85.332031c-4.710938 0-8.535157-3.820312-8.535157-8.53125 0-4.710937 3.824219-8.535156 8.535157-8.535156 14.113281 0 25.597656-11.484375 25.597656-25.597656 0-14.117188-11.484375-25.601563-25.597656-25.601563-14.113282 0-25.601563 11.484375-25.601563 25.601563 0 4.710937-3.820313 8.53125-8.53125 8.53125s-8.535156-3.820313-8.535156-8.53125c0-23.527344 19.140625-42.667969 42.667969-42.667969 23.527343 0 42.667968 19.140625 42.667968 42.667969 0 23.523437-19.140625 42.664062-42.667968 42.664062zm0 0"/><path d="m204.800781 85.332031c-4.710937 0-8.535156-3.820312-8.535156-8.53125 0-4.710937 3.824219-8.535156 8.535156-8.535156 14.113281 0 25.597657-11.484375 25.597657-25.597656 0-14.117188-11.484376-25.601563-25.597657-25.601563s-25.601562 11.484375-25.601562 25.601563c0 4.710937-3.820313 8.53125-8.53125 8.53125-4.710938 0-8.535157-3.820313-8.535157-8.53125 0-23.527344 19.140626-42.667969 42.667969-42.667969 23.527344 0 42.664063 19.140625 42.664063 42.667969 0 23.523437-19.136719 42.664062-42.664063 42.664062zm0 0"/><path d="m315.734375 85.332031c-4.710937 0-8.535156-3.820312-8.535156-8.53125 0-4.710937 3.824219-8.535156 8.535156-8.535156 14.113281 0 25.597656-11.484375 25.597656-25.597656 0-14.117188-11.484375-25.601563-25.597656-25.601563s-25.601563 11.484375-25.601563 25.601563c0 4.710937-3.824218 8.53125-8.53125 8.53125-4.710937 0-8.535156-3.820313-8.535156-8.53125 0-23.527344 19.140625-42.667969 42.667969-42.667969 23.523437 0 42.664063 19.140625 42.664063 42.667969 0 23.523437-19.140626 42.664062-42.664063 42.664062zm0 0"/><path d="m418.132812 85.332031c-4.710937 0-8.53125-3.820312-8.53125-8.53125 0-4.710937 3.820313-8.535156 8.53125-8.535156 14.113282 0 25.601563-11.484375 25.601563-25.597656 0-14.117188-11.488281-25.601563-25.601563-25.601563-14.113281 0-25.597656 11.484375-25.597656 25.601563 0 4.710937-3.824218 8.53125-8.535156 8.53125s-8.535156-3.820313-8.535156-8.53125c0-23.527344 19.140625-42.667969 42.667968-42.667969 23.527344 0 42.667969 19.140625 42.667969 42.667969 0 23.523437-19.140625 42.664062-42.667969 42.664062zm0 0"/><path d="m223.300781 456.824219c-4.097656 0-9.738281-1.546875-18.558593-4.8125l-.804688-.300781c-7.464844-2.6875-14.777344-5.988282-21.75-9.820313-6.90625-3.789063-13.558594-8.148437-19.78125-12.9375-3.019531-2.320313-5.957031-4.761719-8.789062-7.304687l-1.101563-.871094c-4.453125-3.496094-8.667969-6.800782-9.019531-11.902344-.632813-9.140625.257812-19.105469 2.65625-29.628906 3.453125-15.195313 11.046875-30.019532 22.570312-44.058594 4.964844-6.046875 10.886719-16.230469 10.886719-30.351562 0-2.960938-.894531-5.136719-2.917969-7.066407-5.828125-5.5625-20.421875-8.371093-39.023437-7.5-10.804688.546875-20.949219-2.824219-28.542969-9.34375-2.40625-2.066406-3.464844-5.300781-2.757812-8.386719 9.148437-39.621093 34.304687-74.652343 69.019531-96.09375 4.078125-2.519531 9.207031-2.101562 18.285156 1.527344 4.0625 1.613282 7.730469 3.914063 10.914063 6.824219 5.34375 4.890625 9.378906 11.582031 11.988281 19.902344 2.988281 9.496093 6.699219 29.285156 1.691406 43.1875-.445313 1.234375-1.023437 2.40625-1.621094 3.566406l-.425781.835937c-2.65625 5.417969-2.3125 11.605469.945312 16.953126 3.550782 5.847656 9.882813 9.585937 16.53125 9.738281 15.195313.359375 36.445313 7.066406 51.335938 37 1.226562 2.476562 2.3125 5 3.214844 7.613281 12.894531 36.992188-14.683594 61.125-36.835938 80.511719-5.472656 4.785156-10.640625 9.308593-15.078125 13.832031-2.425781 2.464844-3.824219 4.71875-4.148437 6.699219-.273438 1.644531.058594 3.925781.417968 6.339843l.171876 1.152344c.691406 4.871094 1.082031 9.828125 1.160156 14.726563.050781 3.183593-1.453125 6.171875-4.035156 7.996093-1.84375 1.296876-3.882813 1.972657-6.597657 1.972657zm-62.910156-51.628907c.898437.769532 2.050781 1.675782 2.664063 2.152344.855468.671875 1.554687 1.238282 1.945312 1.585938 2.527344 2.253906 5.128906 4.429687 7.816406 6.496094 5.539063 4.265624 11.453125 8.128906 17.585938 11.5 6.1875 3.398437 12.691406 6.332031 19.320312 8.722656l.957032.351562c2.234374.824219 4.078124 1.472656 5.613281 1.976563-.125-1.152344-.261719-2.3125-.433594-3.453125l-.152344-1.066406c-.503906-3.433594-1.078125-7.324219-.367187-11.605469.910156-5.515625 3.882812-10.855469 8.8125-15.875 4.890625-4.972657 10.546875-9.921875 16.019531-14.710938 24.804687-21.699219 40.429687-37.75 31.964844-62.046875-.675781-1.925781-1.476563-3.796875-2.390625-5.621094-8.917969-17.921874-21.179688-27.1875-36.453125-27.546874-12.398438-.289063-24.167969-7.160157-30.710938-17.9375-6.332031-10.425782-6.945312-22.578126-1.691406-33.328126l.589844-1.164062c.257812-.5.539062-.988281.726562-1.515625 2.859375-7.921875 1.140625-22.554687-1.914062-32.292969-1.695313-5.410156-4.128907-9.589844-7.226563-12.414062-1.65625-1.519532-3.574218-2.714844-5.71875-3.566406-2.386718-.957032-3.949218-1.425782-4.886718-1.664063-28.253907 18.113281-49.117188 46.421875-58.035157 78.589844 3.625 1.808593 7.902344 2.6875 12.449219 2.476562 16.886719-.785156 39.535156.699219 51.59375 12.210938 5.355469 5.121093 8.199219 11.828125 8.199219 19.402343 0 19.175782-8.03125 32.984376-14.761719 41.183594-9.824219 11.972656-16.257812 24.421875-19.117188 37.019532-1.808593 7.898437-2.609374 15.339843-2.398437 22.140624zm20.882813-213.261718"/><path d="m300.21875 453.914062c-2.933594 0-5.742188-1.519531-7.3125-4.140624l-11.988281-19.976563c-4.359375-7.234375-3.320313-13.523437-1.671875-17.515625 5.628906-13.671875 27.007812-20.226562 32.996094-21.8125 1.785156-.886719 9.105468-5.007812 9.105468-13.140625 0-.554687.050782-1.101563.164063-1.648437.355469-1.824219 9.128906-44.773438 38.152343-44.773438 8.320313 0 18.773438.886719 25.863282 7.789062l12.65625 12.65625c2.355468 2.355469 3.121094 5.863282 1.96875 8.984376-16.238282 44.050781-52.625 78.882812-97.328125 93.175781-.863281.273437-1.734375.402343-2.605469.402343zm38.179688-75.648437c-.46875 15.898437-12.75 25.164063-20.054688 28.167969-.367188.152344-.757812.28125-1.144531.375-9.113281 2.320312-20.460938 7.808594-22.167969 11.964844-.136719.324218-.332031.8125.519531 2.21875l8.433594 14.046874c35.128906-13.21875 63.777344-40.882812 78.191406-75.574218l-8.621093-8.625c-1.960938-1.902344-6.527344-2.867188-13.875-2.867188-12.320313 0-19.652344 22.867188-21.28125 30.292969zm0 0"/><path d="m256 460.800781c-84.691406 0-153.601562-68.90625-153.601562-153.601562 0-84.691407 68.910156-153.597657 153.601562-153.597657s153.601562 68.90625 153.601562 153.597657c0 84.695312-68.910156 153.601562-153.601562 153.601562zm0-290.132812c-75.289062 0-136.535156 61.25-136.535156 136.53125s61.246094 136.535156 136.535156 136.535156 136.535156-61.253906 136.535156-136.535156-61.246094-136.53125-136.535156-136.53125zm0 0"/><path d="m359.253906 289.484375c-30.847656 0-55.613281-23.441406-65.382812-37.289063-6.621094-9.386718-26.25-37.199218-3.4375-61.867187-.292969-8.867187 1.945312-15.804687 7.140625-22.621094.375-.496093.800781-.941406 1.273437-1.339843l2.046875-1.734376c2.355469-1.988281 5.597657-2.550781 8.472657-1.484374 45.210937 16.75 80.332031 54.359374 93.953124 100.589843.953126 3.253907-.101562 6.761719-2.699218 8.945313-.058594.050781-.714844.597656-.773438.648437l-3.953125 3.140625c-10.691406 8.515625-23.363281 13.011719-36.640625 13.011719zm-50.21875-108.125c-1.5625 3.121094-1.878906 6.355469-1.332031 11.304687.300781 2.691407-.699219 5.359376-2.679687 7.195313-13.644532 12.628906-8.746094 26.121094 2.800781 42.488281 8.523437 12.089844 29.257812 30.0625 51.4375 30.0625 9.351562 0 18.339843-3.199218 25.976562-9.269531-12.527343-36.699219-40.464843-66.6875-76.203125-81.78125zm0 0"/><path d="m119.464844 179.199219h-76.796875c-4.710938 0-8.535157-3.820313-8.535157-8.53125 0-4.710938 3.824219-8.535157 8.535157-8.535157h76.796875c4.710937 0 8.535156 3.824219 8.535156 8.535157 0 4.710937-3.824219 8.53125-8.535156 8.53125zm0 0"/><path d="m42.667969 179.199219c-2.1875 0-4.371094-.835938-6.035157-2.5-3.335937-3.335938-3.335937-8.730469 0-12.066407l25.601563-25.597656c3.328125-3.339844 8.738281-3.339844 12.066406 0 3.335938 3.335938 3.335938 8.726563 0 12.066406l-25.601562 25.597657c-1.664063 1.664062-3.847657 2.5-6.03125 2.5zm0 0"/><path d="m68.265625 204.800781c-2.183594 0-4.367187-.835937-6.03125-2.5l-25.601563-25.601562c-3.335937-3.335938-3.335937-8.730469 0-12.066407 3.328126-3.335937 8.738282-3.335937 12.066407 0l25.601562 25.601563c3.335938 3.335937 3.335938 8.730469 0 12.066406-1.664062 1.664063-3.847656 2.5-6.035156 2.5zm0 0"/><path d="m469.332031 452.265625h-76.796875c-4.710937 0-8.535156-3.820313-8.535156-8.53125s3.824219-8.535156 8.535156-8.535156h76.796875c4.710938 0 8.535157 3.824219 8.535157 8.535156s-3.824219 8.53125-8.535157 8.53125zm0 0"/><path d="m443.734375 477.867188c-2.1875 0-4.371094-.835938-6.035156-2.5-3.335938-3.335938-3.335938-8.730469 0-12.066407l25.601562-25.601562c3.328125-3.335938 8.738281-3.335938 12.066407 0 3.335937 3.335937 3.335937 8.730469 0 12.066406l-25.601563 25.601563c-1.664063 1.664062-3.847656 2.5-6.03125 2.5zm0 0"/><path d="m469.332031 452.265625c-2.183593 0-4.367187-.835937-6.03125-2.5l-25.601562-25.597656c-3.335938-3.339844-3.335938-8.730469 0-12.066407 3.328125-3.335937 8.738281-3.335937 12.066406 0l25.601563 25.597657c3.335937 3.335937 3.335937 8.730469 0 12.066406-1.664063 1.664063-3.847657 2.5-6.035157 2.5zm0 0"/></svg>