<svg height="512pt" viewBox="0 0 512 512.00958" width="512pt" xmlns="http://www.w3.org/2000/svg"><path d="m8.539062 512.007812c-1.65625 0-3.3125-.484374-4.726562-1.433593-2.382812-1.578125-3.80859375-4.238281-3.80859375-7.097657v-102.398437c0-3.671875 2.34765575-6.929687 5.82031275-8.089844 2.507812-.847656 8.167969-4.089843 12.707031-6.707031 5.828125-3.363281 11.339844-6.539062 15.351562-7.921875 4.488282-1.550781 9.078126-2.867187 13.667969-4.179687 6.804688-1.953126 13.226563-3.796876 19.269531-6.382813 5.019532-2.140625 9.488282-5.734375 14.226563-9.523437 5.117187-4.105469 10.410156-8.355469 17.046875-11.390626 11.222656-5.148437 23.46875-6.734374 35.421875-4.652343 7.085937 1.246093 14.328125 3.71875 21.53125 7.339843 7.007813 3.507813 12.714844 8.113282 18.246094 12.566407 2.054687 1.648437 4.101562 3.3125 6.21875 4.890625 6.777343 5.078125 14.164062 9.457031 21.957031 13.023437 12.304688 5.613281 30.726562 11.503907 48.640625 7.601563 4.34375-.9375 8.59375-2.355469 13.097656-3.863282 6.085938-2.03125 12.382813-4.140624 19.34375-5.171874 12.851563-1.921876 24.347657-1.511719 34.160157 1.203124 9.199218 2.550782 16.203124 8.867188 19.738281 17.800782 1.714843 4.335937 2.566406 8.652344 3.378906 12.832031 3.457031-.230469 6.902344-.648437 10.351563-1.046875 3.164062-.375 6.320312-.742188 9.496093-1.007812 9.363281-.769532 18.738281-1.476563 28.125-1.996094 21.90625-1.253906 43.101563-3.066406 61.492188-11.308594 11.230469-5.015625 30.207031-6.800781 44.730469-.433594 8.507812 3.738282 14.390624 9.820313 16.992187 17.621094v.007812c3.523437 10.554688-2.78125 22.261719-14.054687 26.101563-9.070313 3.082031-18.132813 6.214844-27.1875 9.347656l-47.453126 16.398438c-2.238281.777343-4.464843 1.640625-6.699218 2.519531-5.273438 2.046875-10.726563 4.171875-16.683594 5.347656-11.230469 2.238282-21.726562 2.050782-31.820312 1.851563-4.566407-.074219-9.171876-.175781-13.917969-.023438-13.816407.402344-27.382813 2.773438-40.328125 7.046875-4.207032 1.390625-8.371094 2.988282-12.550782 4.574219-9.960937 3.796875-20.269531 7.722656-31.542968 9.285156-12.933594 1.773438-27.261719.84375-39.910156.007813l-4.964844-.324219c-10.308594-.640625-20.523438-2.765625-30.414063-4.8125-7.269531-1.511719-14.121093-2.933594-20.992187-3.804687-18.703125-2.398438-34.976563-2.78125-49.730469-1.179688-31.316406 3.421875-81.382813 14.363281-110.941406 26.734375-1.050781.429687-2.167969.648437-3.285157.648437zm8.53125-105.402343v84.445312c31.933594-11.339843 75.46875-20.300781 103.84375-23.40625 16.109376-1.757812 33.699219-1.363281 53.757813 1.210938 7.519531.964843 15.027344 2.527343 22.289063 4.039062 9.730468 2.011719 18.921874 3.921875 28.007812 4.488281l5.027344.324219c12.414062.816407 25.25 1.664063 36.453125.125 9.335937-1.285156 18.304687-4.707031 27.785156-8.328125 4.410156-1.679687 8.824219-3.371094 13.269531-4.828125 14.515625-4.796875 29.710938-7.457031 45.183594-7.917969 5.027344-.15625 9.90625-.0625 14.738281.03125 9.640625.171876 18.753907.34375 28.183594-1.527343 4.480469-.886719 9.011719-2.660157 13.816406-4.519531 2.433594-.949219 4.863281-1.894532 7.3125-2.742188l47.445313-16.417969c9.089844-3.128906 18.167968-6.269531 27.273437-9.367187 2.066407-.710938 3.949219-2.730469 3.363281-4.53125-1.066406-3.191406-3.578124-5.617188-7.664062-7.410156-9.386719-4.109376-23.347656-3.011719-30.898438.378906-21.035156 9.417968-43.929687 11.414062-67.507812 12.765625-9.242188.527343-18.476562 1.21875-27.699219 1.976562-2.980469.242188-5.929687.589844-8.890625.941407-4.226562.492187-8.449218.988281-12.707031 1.21875-3.023437.367187-6.171875.769531-9.199219-.605469-5.402344-2.390625-6.367187-6.21875-6.28125-9.054688-.273437-.835937-.554687-2.320312-.84375-3.820312-.710937-3.707031-1.382812-7.203125-2.5625-10.183594-1.074218-2.710937-3.402344-6.246094-8.421875-7.636719-7.5-2.082031-16.621093-2.335937-27.101562-.765625-5.484375.816407-10.800781 2.59375-16.441407 4.46875-4.738281 1.589844-9.636718 3.226563-14.882812 4.371094-22.496094 4.855469-44.691406-2.074219-59.359375-8.757813-8.898437-4.078124-17.347656-9.078124-25.097656-14.878906-2.277344-1.707031-4.488281-3.492187-6.695313-5.265625-5.042968-4.070312-9.816406-7.910156-15.191406-10.609375-5.734375-2.875-11.390625-4.8125-16.835938-5.785156-8.515624-1.464844-17.289062-.324219-25.359374 3.363281-4.710938 2.160157-8.96875 5.574219-13.476563 9.191407-5.417969 4.34375-11.023437 8.832031-18.191406 11.902343-7.015625 3.003907-14.25 5.085938-21.257813 7.09375-4.300781 1.234375-8.609375 2.464844-12.816406 3.914063-2.464844.855468-7.980469 4.027344-12.398438 6.582031-3.515624 2.011719-6.921874 3.976563-9.96875 5.527344zm0 0"/><path d="m252.320312 450.082031c-15.890624 0-31.8125-.945312-47.507812-2.832031-19.941406-2.398438-45.636719-6.773438-67.457031-19.40625-4.078125-2.355469-5.46875-7.574219-3.113281-11.65625 2.363281-4.085938 7.585937-5.484375 11.664062-3.105469 19.132812 11.066407 42.625 15.027344 60.945312 17.230469 19.527344 2.355469 39.417969 3.164062 59.113282 2.472656l1.492187-.058594c16.632813-.589843 33.824219-1.21875 47.324219-9.019531 4.78125-2.765625 9.046875-6.210937 12.691406-10.230469 3.164063-3.484374 8.558594-3.773437 12.054688-.597656 3.492187 3.15625 3.757812 8.558594.597656 12.046875-4.835938 5.34375-10.484375 9.910157-16.800781 13.550781-17.175781 9.941407-37.410157 10.667969-55.261719 11.308594l-1.492188.050782c-4.738281.160156-9.5.246093-14.25.246093zm0 0"/><path d="m388.757812 170.683594c-3.421874 0-6.851562-.296875-10.257812-.886719-7.082031-1.246094-14.328125-3.71875-21.527344-7.339844-7.007812-3.503906-12.714844-8.113281-18.246094-12.566406-2.054687-1.648437-4.105468-3.3125-6.21875-4.890625-6.777343-5.078125-14.167968-9.457031-21.957031-13.023438-12.304687-5.605468-30.730469-11.484374-48.640625-7.601562-4.34375.9375-8.59375 2.355469-13.097656 3.863281-6.085938 2.03125-12.382812 4.140625-19.347656 5.171875-12.851563 1.929688-24.335938 1.519532-34.15625-1.203125-9.199219-2.550781-16.207032-8.863281-19.738282-17.800781-1.714843-4.332031-2.570312-8.652344-3.378906-12.832031-3.457031.230469-6.90625.648437-10.351562 1.046875-3.167969.378906-6.324219.746094-9.496094 1.007812-9.363281.769532-18.742188 1.476563-28.128906 1.996094-21.902344 1.257812-43.101563 3.066406-61.488282 11.308594-11.238281 5.027344-30.210937 6.808594-44.734374.433594-8.507813-3.734376-14.386719-9.820313-16.988282-17.621094v-.007813c-3.523437-10.554687 2.78125-22.261719 14.054688-26.101562 9.070312-3.082031 18.132812-6.214844 27.1875-9.34375l47.445312-16.410157c2.234375-.777343 4.460938-1.640624 6.699219-2.519531 5.273437-2.046875 10.722656-4.171875 16.679687-5.347656 11.230469-2.238281 21.71875-2.066406 31.820313-1.851563 4.566406.082032 9.183594.175782 13.917969.023438 13.816406-.402344 27.386718-2.773438 40.328125-7.046875 4.207031-1.390625 8.375-2.988281 12.554687-4.574219 9.957032-3.796875 20.265625-7.722656 31.539063-9.285156 12.9375-1.773438 27.265625-.84375 39.910156-.007812l4.964844.324218c10.308593.640625 20.523437 2.765625 30.414062 4.8125 7.269531 1.511719 14.125 2.933594 20.992188 3.804688 18.707031 2.398437 34.976562 2.800781 49.734375 1.179687 31.316406-3.421875 81.378906-14.363281 110.941406-26.738281 2.644531-1.089844 5.648438-.816406 8.019531.777344 2.371094 1.578125 3.796875 4.25 3.796875 7.109375v102.398437c0 3.671875-2.347656 6.929688-5.820312 8.089844-2.507813.847656-8.164063 4.089844-12.703125 6.707031-5.839844 3.363281-11.351563 6.539063-15.351563 7.921875-4.488281 1.550782-9.082031 2.867188-13.671875 4.179688-6.800781 1.953125-13.226562 3.796875-19.269531 6.382812-5.015625 2.140625-9.488281 5.734375-14.222656 9.523438-5.121094 4.105468-10.410156 8.355468-17.050782 11.390625-8.019531 3.679687-16.570312 5.546875-25.15625 5.546875zm-114.789062-64.640625c16.808594 0 32.449219 5.285156 43.671875 10.402343 8.902344 4.082032 17.347656 9.082032 25.097656 14.882813 2.277344 1.707031 4.488281 3.492187 6.699219 5.265625 5.042969 4.070312 9.8125 7.910156 15.1875 10.605469 5.734375 2.878906 11.394531 4.816406 16.835938 5.789062 8.507812 1.464844 17.289062.332031 25.363281-3.363281 4.710937-2.160156 8.96875-5.574219 13.472656-9.191406 5.417969-4.34375 11.023437-8.832032 18.191406-11.902344 7.015625-3.003906 14.253907-5.085938 21.257813-7.09375 4.300781-1.234375 8.609375-2.464844 12.816406-3.914062 2.46875-.855469 7.980469-4.027344 12.398438-6.582032 3.527343-2.019531 6.929687-3.984375 9.976562-5.535156v-84.449219c-31.929688 11.34375-75.46875 20.300781-103.839844 23.410157-16.113281 1.757812-33.699218 1.363281-53.761718-1.214844-7.519532-.960938-15.027344-2.523438-22.289063-4.035156-9.726563-2.011719-18.917969-3.925782-28.007813-4.488282l-5.023437-.324218c-12.417969-.820313-25.25-1.65625-36.457031-.128907-9.335938 1.289063-18.300782 4.710938-27.78125 8.328125-4.414063 1.683594-8.824219 3.371094-13.269532 4.832032-14.515624 4.796874-29.714843 7.457031-45.1875 7.917968-5.015624.152344-9.90625.070313-14.734374-.035156-9.652344-.175781-18.757813-.347656-28.1875 1.527344-4.480469.890625-9.011719 2.664062-13.8125 4.523437-2.433594.949219-4.867188 1.894531-7.316407 2.738281l-47.445312 16.417969c-9.085938 3.132813-18.167969 6.273438-27.269531 9.371094-2.066407.707031-3.953126 2.730469-3.363282 4.53125 1.066406 3.191406 3.574219 5.617187 7.664063 7.40625 9.375 4.113281 23.335937 3.023437 30.898437-.375 21.035156-9.421875 43.929688-11.417969 67.507813-12.765625 9.238281-.527344 18.472656-1.21875 27.699219-1.980469 2.976562-.238281 5.929687-.585937 8.890624-.9375 4.222657-.496093 8.449219-.988281 12.707032-1.21875 3.019531-.378906 6.167968-.769531 9.199218.605469 5.398438 2.386719 6.363282 6.21875 6.277344 9.050781.273438.839844.554688 2.324219.847656 3.824219.707032 3.703125 1.382813 7.203125 2.558594 10.179688 1.074219 2.714843 3.40625 6.246093 8.421875 7.636718 7.492188 2.066406 16.613281 2.332032 27.101563.769532 5.488281-.820313 10.804687-2.59375 16.445312-4.472657 4.734375-1.585937 9.632813-3.222656 14.882813-4.367187 5.265625-1.144532 10.519531-1.640625 15.675781-1.640625zm0 0"/><path d="m178.207031 101.359375c-2.039062 0-4.089843-.726563-5.726562-2.210937-3.488281-3.15625-3.753907-8.558594-.597657-12.046876 4.839844-5.351562 10.496094-9.90625 16.800782-13.558593 17.179687-9.933594 37.410156-10.660157 55.253906-11.300781l1.496094-.050782c20.582031-.75 41.367187.128906 61.761718 2.578125 19.941407 2.398438 45.636719 6.773438 67.457032 19.40625 4.078125 2.351563 5.46875 7.574219 3.113281 11.65625-2.363281 4.078125-7.585937 5.484375-11.664063 3.105469-19.132812-11.070312-42.625-15.027344-60.945312-17.230469-19.523438-2.347656-39.421875-3.164062-59.109375-2.472656l-1.492187.058594c-16.632813.589843-33.828126 1.21875-47.328126 9.019531-4.769531 2.757812-9.042968 6.203125-12.6875 10.230469-1.691406 1.859375-4.003906 2.816406-6.332031 2.816406zm0 0"/><path d="m256.003906 366.941406c-61.167968 0-110.933594-49.765625-110.933594-110.933594 0-61.164062 49.765626-110.929687 110.933594-110.929687 61.167969 0 110.933594 49.765625 110.933594 110.929687 0 61.167969-49.765625 110.933594-110.933594 110.933594zm0-204.796875c-51.753906 0-93.867187 42.109375-93.867187 93.863281 0 51.757813 42.113281 93.867188 93.867187 93.867188s93.867188-42.109375 93.867188-93.867188c0-51.753906-42.113282-93.863281-93.867188-93.863281zm0 0"/><path d="m256.003906 366.941406c-33.492187 0-59.734375-48.722656-59.734375-110.933594 0-62.207031 26.242188-110.929687 59.734375-110.929687 33.496094 0 59.734375 48.722656 59.734375 110.929687 0 62.210938-26.238281 110.933594-59.734375 110.933594zm0-204.796875c-20.179687 0-42.664062 38.550781-42.664062 93.863281 0 55.316407 22.484375 93.867188 42.664062 93.867188 20.183594 0 42.667969-38.550781 42.667969-93.867188 0-55.3125-22.484375-93.863281-42.667969-93.863281zm0 0"/><path d="m358.40625 264.542969h-204.800781c-4.710938 0-8.535157-3.8125-8.535157-8.535157 0-4.71875 3.824219-8.53125 8.535157-8.53125h204.800781c4.707031 0 8.53125 3.8125 8.53125 8.53125 0 4.722657-3.824219 8.535157-8.53125 8.535157zm0 0"/><path d="m256.003906 366.941406c-4.710937 0-8.53125-3.8125-8.53125-8.53125v-204.800781c0-4.71875 3.820313-8.53125 8.53125-8.53125 4.710938 0 8.535156 3.8125 8.535156 8.53125v204.800781c0 4.71875-3.824218 8.53125-8.535156 8.53125zm0 0"/></svg>