<svg height="512pt" viewBox="0 0 512 512.00213" width="512pt" xmlns="http://www.w3.org/2000/svg"><path d="m142.050781 395.535156c-6.554687 0-13.117187-2.492187-18.101562-7.484375-4.828125-4.828125-7.492188-11.261719-7.492188-18.097656 0-6.84375 2.664063-13.277344 7.503907-18.097656l101.140624-101.160157c3.328126-3.335937 8.730469-3.335937 12.066407 0l24.128906 24.128907c1.605469 1.605469 2.5 3.765625 2.5 6.035156s-.894531 4.4375-2.5 6.03125l-101.148437 101.160156c-4.992188 4.992188-11.546876 7.484375-18.097657 7.484375zm-6.035156-19.550781c3.328125 3.335937 8.738281 3.335937 12.066406 0l95.117188-95.117187-12.066407-12.074219-95.125 95.117187c-1.613281 1.605469-2.5 3.746094-2.5 6.035156.007813 2.277344.894532 4.417969 2.507813 6.039063zm0 0"/><path d="m57.570312 462.953125c-3.703124 0-7.105468-2.421875-8.191406-6.160156l-14.257812-49.167969c-3.113282-13.984375 1.273437-28.566406 11.296875-38.59375l17.1875-17.195312c3.335937-3.335938 8.738281-3.335938 12.066406 0 3.328125 3.335937 3.335937 8.730468 0 12.066406l-17.1875 17.195312c-5.945313 5.945313-8.566406 14.496094-6.84375 22.3125l14.125 48.628906c1.3125 4.523438-1.289063 9.257813-5.820313 10.566407-.785156.238281-1.589843.347656-2.375.347656zm0 0"/><path d="m255.265625 289.390625c-2.183594 0-4.367187-.835937-6.03125-2.5l-24.140625-24.128906c-1.605469-1.605469-2.5-3.765625-2.5-6.035157 0-2.269531.894531-4.4375 2.5-6.03125l153.039062-153.050781c-18.882812-29.957031-14.820312-69.644531 10.675782-95.140625 3.335937-3.339844 8.730468-3.339844 12.066406 0l108.605469 108.605469c3.339843 3.339844 3.339843 8.730469 0 12.066406-25.496094 25.515625-65.183594 29.578125-95.148438 10.675781l-153.035156 153.039063c-1.664063 1.664063-3.847656 2.5-6.03125 2.5zm-12.066406-32.664063 12.066406 12.066407 152.066406-152.066407c3.039063-3.054687 7.878907-3.363281 11.273438-.699218 21.417969 16.65625 51.148437 16.535156 72.351562.679687l-95.679687-95.671875c-15.847656 21.195313-15.976563 50.933594.691406 72.351563 2.644531 3.398437 2.335938 8.234375-.703125 11.273437zm0 0"/><path d="m113.480469 512.003906c-5.519531 0-11.09375-.597656-16.632813-1.828125l-71.410156-17.261719c-3.105469-.75-5.539062-3.175781-6.289062-6.28125l-17.296876-71.328124c-5.699218-25.667969 1.953126-51.929688 20.4375-70.40625l61.847657-61.839844c11.585937-11.59375 31.828125-11.59375 43.433593 0l38.617188 38.613281c1.605469 1.605469 2.5 3.765625 2.5 6.035156 0 2.257813-.894531 4.433594-2.5 6.03125l-30.171875 30.171875c-1.613281 1.613282-2.5 3.746094-2.5 6.035156 0 2.277344.886719 4.417969 2.5 6.03125 3.226563 3.234376 8.839844 3.234376 12.066406 0l30.171875-30.171874c3.199219-3.199219 8.867188-3.199219 12.066406 0l38.621094 38.621093c5.800782 5.800781 8.992188 13.507813 8.992188 21.714844 0 8.210937-3.199219 15.914063-8.992188 21.71875l-61.839844 61.835937c-14.472656 14.472657-33.714843 22.308594-53.621093 22.308594zm-78.972657-34.457031 66.199219 16.007813c19.632813 4.367187 40.003907-1.578126 54.320313-15.914063l61.839844-61.839844c2.578124-2.578125 4-6 4-9.652343 0-3.652344-1.421876-7.074219-4-9.648438l-32.589844-32.589844-24.128906 24.140625c-9.667969 9.667969-26.539063 9.667969-36.207032 0-4.835937-4.828125-7.5-11.261719-7.5-18.097656 0-6.84375 2.664063-13.277344 7.5-18.109375l24.132813-24.128906-32.589844-32.582032c-5.152344-5.167968-14.144531-5.167968-19.292969 0l-61.847656 61.839844c-14.335938 14.335938-20.265625 34.695313-15.878906 54.484375zm0 0"/></svg>