<svg height="511pt" viewBox="0 0 511 511.99443" width="511pt" xmlns="http://www.w3.org/2000/svg"><path d="m183.792969 466.992188c-2.117188 0-4.273438-.199219-6.40625-.589844-43.308594-7.910156-82.773438-29.054688-114.113281-61.164063-83.703126-85.679687-83.703126-225.121093 0-310.816406 23.046874-23.601563 50.984374-39.433594 85.152343-48.203125-2.996093-11.050781-.785156-23.082031 6.492188-32.382812 6.042969-7.707032 14.675781-12.542969 24.308593-13.609376 9.585938-1.078124 18.980469 1.730469 26.480469 7.855469l25.898438 21.179688c1.945312 1.597656 4.035156 3.183593 6.167969 4.804687 11.230468 8.542969 25.207031 19.175782 26.9375 36.359375.828124 8.183594-1.132813 16.332031-5.671876 23.585938-1.367187 2.167969-2.953124 4.25-4.738281 6.1875-9.878906 10.734375-20.324219 21.195312-30.425781 31.324219-5.085938 5.101562-10.183594 10.195312-15.207031 15.34375-6.808594 6.960937-15.890625 10.808593-25.546875 10.808593-9.667969 0-18.742188-3.839843-25.550782-10.808593-6.175781-6.316407-9.742187-14.578126-10.367187-23.160157-12.714844 5.503907-23.515625 12.894531-32.792969 22.382813-55.882812 57.203125-55.882812 150.28125 0 207.488281 20.863282 21.375 47.042969 35.4375 75.722656 40.6875 19.523438 3.554687 32.589844 22.609375 29.117188 42.476563-3.066406 17.519531-17.972656 30.25-35.457031 30.25zm-.632813-449.921876c-.679687 0-1.371094.03125-2.054687.109376-5.035157.554687-9.566407 3.105468-12.75 7.175781-5.210938 6.65625-5.5625 15.976562-.859375 23.175781 1.535156 2.355469 1.816406 5.332031.734375 7.9375-1.078125 2.609375-3.378907 4.503906-6.136719 5.085938-35.429688 7.414062-63.757812 22.398437-86.609375 45.796874-77.285156 79.117188-77.285156 207.855469 0 286.964844 28.859375 29.566406 65.15625 49.03125 104.972656 56.308594 10.546875 1.902344 20.148438-5.355469 21.972657-15.820312 1.867187-10.664063-5.027344-20.871094-15.367188-22.757813-32.179688-5.871094-61.523438-21.621094-84.871094-45.539063-62.300781-63.785156-62.300781-167.5625 0-231.339843 14.285156-14.625 31.554688-24.925781 52.785156-31.46875 3.117188-.949219 6.503907-.0625 8.738282 2.3125 2.226562 2.378906 2.910156 5.820312 1.757812 8.863281-2.773437 7.296875-1.082031 15.566406 4.285156 21.0625 7.15625 7.3125 19.539063 7.3125 26.691407 0 5.066406-5.179688 10.195312-10.328125 15.332031-15.464844 9.984375-10 20.308594-20.339844 29.960938-30.820312 1.074218-1.167969 2.023437-2.40625 2.824218-3.695313 2.507813-4 3.601563-8.421875 3.15625-12.796875-.988281-9.796875-10.800781-17.273437-20.292968-24.492187-2.300782-1.75-4.554688-3.464844-6.644532-5.171875l-25.898437-21.1875c-3.363281-2.773438-7.464844-4.238282-11.726563-4.238282zm0 0"/><path d="m68.546875 149.835938c-1.691406 0-3.398437-.503907-4.890625-1.546876-3.855469-2.703124-4.796875-8.019531-2.089844-11.894531 24.746094-35.308593 61.019532-58.167969 107.824219-67.949219 4.640625-.972656 9.136719 1.996094 10.09375 6.605469.964844 4.609375-1.996094 9.128907-6.605469 10.09375-42.417968 8.867188-75.167968 29.398438-97.335937 61.046875-1.65625 2.371094-4.300781 3.644532-6.996094 3.644532zm0 0"/><path d="m65.976562 361.546875c-2.804687 0-5.554687-1.382813-7.191406-3.925781-35.839844-55.828125-42.136718-127.464844-16.417968-186.949219 1.867187-4.335937 6.902343-6.3125 11.21875-4.445313 4.328124 1.867188 6.316406 6.894532 4.449218 11.210938-23.492187 54.347656-17.707031 119.855469 15.109375 170.96875 2.542969 3.96875 1.398438 9.242188-2.566406 11.792969-1.425781.914062-3.023437 1.347656-4.601563 1.347656zm0 0"/><path d="m183.800781 441.390625c-.503906 0-1.015625-.042969-1.527343-.136719-37.519532-6.765625-72.921876-25.777344-99.691407-53.507812-3.265625-3.390625-3.171875-8.789063.214844-12.066406 3.386719-3.277344 8.796875-3.167969 12.066406.210937 24.292969 25.183594 56.410157 42.4375 90.433594 48.5625 4.632813.84375 7.722656 5.273437 6.882813 9.917969-.730469 4.128906-4.324219 7.019531-8.378907 7.019531zm0 0"/><path d="m329.734375 511.996094c-8.175781 0-16.042969-2.808594-22.5-8.082032l-25.898437-21.179687c-1.945313-1.59375-4.039063-3.183594-6.171876-4.804687-11.226562-8.539063-25.207031-19.171876-26.9375-36.359376-.828124-8.183593 1.136719-16.332031 5.675782-23.585937 1.363281-2.164063 2.949218-4.246094 4.734375-6.183594 9.882812-10.734375 20.324219-21.199219 30.429687-31.328125 5.085938-5.101562 10.179688-10.195312 15.207032-15.339844 6.808593-6.964843 15.886718-10.8125 25.546874-10.8125 9.667969 0 18.738282 3.839844 25.546876 10.8125 6.179687 6.3125 9.746093 14.574219 10.367187 23.15625 12.714844-5.503906 23.519531-12.890624 32.792969-22.378906 55.882812-57.207031 55.882812-150.285156 0-207.492187-20.863282-21.375-47.042969-35.4375-75.722656-40.683594-19.523438-3.558594-32.585938-22.613281-29.113282-42.476563 3.429688-19.660156 22.101563-33.316406 41.855469-29.671874 43.304687 7.910156 82.769531 29.054687 114.109375 61.164062 83.703125 85.683594 83.703125 225.121094 0 310.816406-23.046875 23.605469-50.984375 39.433594-85.148438 48.203125 2.992188 11.050781.785157 23.082031-6.496093 32.382813-6.039063 7.707031-14.675781 12.546875-24.308594 13.613281-1.324219.152344-2.65625.230469-3.96875.230469zm-61.378906-84.949219c-2.507813 4.003906-3.601563 8.421875-3.15625 12.800781.988281 9.796875 10.800781 17.269532 20.292969 24.488282 2.300781 1.75 4.554687 3.464843 6.644531 5.171874l25.898437 21.1875c3.917969 3.191407 8.816406 4.632813 13.789063 4.105469 5.035156-.554687 9.566406-3.105469 12.75-7.175781 5.210937-6.65625 5.5625-15.976562.859375-23.175781-1.535156-2.355469-1.816406-5.335938-.730469-7.9375 1.074219-2.609375 3.378906-4.503907 6.132813-5.085938 35.429687-7.414062 63.757812-22.398437 86.609374-45.796875 77.285157-79.117187 77.285157-207.855468 0-286.964844-28.855468-29.566406-65.15625-49.03125-104.972656-56.308593-10.539062-1.863281-20.144531 5.375-21.972656 15.835937-1.867188 10.667969 5.027344 20.871094 15.367188 22.757813 32.179687 5.871093 61.523437 21.621093 84.871093 45.539062 62.300781 63.785157 62.300781 167.566407 0 231.339844-14.285156 14.625-31.554687 24.925781-52.785156 31.472656-3.113281.921875-6.503906.050781-8.738281-2.3125-2.226563-2.382812-2.910156-5.820312-1.757813-8.867187 2.773438-7.296875 1.085938-15.566406-4.285156-21.058594-7.148437-7.304688-19.539063-7.3125-26.691406 0-5.066407 5.179688-10.195313 10.324219-15.332031 15.460938-9.984376 10-20.308594 20.34375-29.960938 30.820312-1.074219 1.179688-2.03125 2.414062-2.832031 3.703125zm0 0"/><path d="m341.792969 443.722656c-3.960938 0-7.503907-2.765625-8.347657-6.792968-.964843-4.609376 1.996094-9.128907 6.605469-10.09375 42.417969-8.867188 75.167969-29.398438 97.335938-61.046876 2.695312-3.847656 8.023437-4.796874 11.886719-2.089843 3.855468 2.703125 4.796874 8.019531 2.089843 11.894531-24.746093 35.308594-61.019531 58.167969-107.824219 67.949219-.585937.117187-1.175781.179687-1.746093.179687zm0 0"/><path d="m462.722656 346.460938c-1.136718 0-2.277344-.222657-3.378906-.699219-4.328125-1.867188-6.316406-6.894531-4.445312-11.210938 23.488281-54.347656 17.703124-119.855469-15.113282-170.96875-2.542968-3.96875-1.398437-9.242187 2.566406-11.792969 3.976563-2.550781 9.242188-1.390624 11.792969 2.578126 35.839844 55.832031 42.136719 127.464843 16.417969 186.949218-1.398438 3.226563-4.539062 5.144532-7.839844 5.144532zm0 0"/><path d="m424.203125 138.707031c-2.234375 0-4.460937-.878906-6.144531-2.609375-24.292969-25.183594-56.410156-42.4375-90.433594-48.5625-4.632812-.84375-7.722656-5.273437-6.882812-9.914062.835937-4.636719 5.289062-7.722656 9.914062-6.886719 37.519531 6.765625 72.921875 25.777344 99.691406 53.511719 3.269532 3.386718 3.175782 8.785156-.214844 12.0625-1.664062 1.605468-3.796874 2.398437-5.929687 2.398437zm0 0"/></svg>