<svg height="512pt" viewBox="-137 0 512 512.00029" width="512pt" xmlns="http://www.w3.org/2000/svg"><path d="m119.460938 358.402344c-14.113282 0-25.597657-11.484375-25.597657-25.597656v-93.867188c0-4.71875 3.820313-8.53125 8.53125-8.53125h34.132813c4.710937 0 8.535156 3.8125 8.535156 8.53125v93.867188c0 14.113281-11.488281 25.597656-25.601562 25.597656zm-8.53125-110.929688v85.332032c0 4.707031 3.820312 8.53125 8.53125 8.53125 4.710937 0 8.535156-3.824219 8.535156-8.53125v-85.332032zm0 0"/><path d="m162.128906 128.007812h-85.332031v-68.265624h85.332031zm-68.265625-17.066406h51.199219v-34.132812h-51.199219zm0 0"/><path d="m162.128906 247.472656h-85.332031c-4.710937 0-8.535156-3.816406-8.535156-8.535156v-34.132812c0-4.71875 3.824219-8.53125 8.535156-8.53125h85.332031c4.707032 0 8.53125 3.8125 8.53125 8.53125v34.132812c0 4.710938-3.824218 8.535156-8.53125 8.535156zm-76.800781-17.066406h68.265625v-17.066406h-68.265625zm0 0"/><path d="m136.527344 213.339844h-34.132813c-4.710937 0-8.53125-3.816406-8.53125-8.535156v-6.007813c0-6.058594-1.152343-14.847656-6.648437-22.320313-6.425782-8.757812-10.417969-20.789062-10.417969-31.402343v-100.941407c0-22.578124 16.910156-41.871093 38.5-43.925781 12.015625-1.1875 23.976563 2.8125 32.851563 10.878907 8.882812 8.078124 13.980468 19.582031 13.980468 31.589843v102.398438c0 10.613281-3.996094 22.644531-10.414062 31.402343-5.503906 7.464844-6.652344 16.253907-6.652344 22.3125v6.007813c0 4.71875-3.824219 8.542969-8.535156 8.542969zm-25.652344-17.066406h17.160156c.445313-11.351563 3.851563-21.640626 9.917969-29.910157 4.316406-5.871093 7.109375-14.234375 7.109375-21.289062v-102.398438c0-7.203125-3.058594-14.105469-8.390625-18.953125-5.402344-4.914062-12.433594-7.203125-19.753906-6.535156-12.925781 1.234375-23.054688 13.070312-23.054688 26.945312v100.933594c0 7.054688 2.789063 15.417969 7.105469 21.296875 6.066406 8.261719 9.472656 18.550781 9.90625 29.910157zm0 0"/><path d="m119.460938 512c-33.996094 0-63.914063-22.929688-72.746094-55.753906l-46.394532-163.789063c-.726562-2.574219-.203124-5.339843 1.410157-7.472656 1.609375-2.132813 4.128906-3.378906 6.800781-3.378906h93.863281c4.710938 0 8.535157 3.8125 8.535157 8.53125v42.667969c0 4.707031 3.820312 8.53125 8.53125 8.53125 4.710937 0 8.535156-3.824219 8.535156-8.53125v-42.667969c0-4.71875 3.820312-8.53125 8.53125-8.53125h93.867187c2.667969 0 5.195313 1.246093 6.808594 3.378906s2.132813 4.898437 1.40625 7.472656l-46.417969 163.890625c-8.816406 32.722656-38.734375 55.652344-72.730468 55.652344zm-99.640626-213.328125 43.347657 153.03125c6.859375 25.5 30.003906 43.230469 56.300781 43.230469 26.300781 0 49.433594-17.730469 56.269531-43.125l43.375-153.136719h-74.050781v34.132813c0 14.113281-11.488281 25.597656-25.601562 25.597656-14.113282 0-25.597657-11.484375-25.597657-25.597656v-34.132813zm0 0"/><path d="m119.460938 477.867188c-18.59375 0-34.960938-12.542969-39.789063-30.496094-1.230469-4.550782 1.464844-9.234375 6.023437-10.460938 4.539063-1.222656 9.234376 1.472656 10.453126 6.023438 2.832031 10.511718 12.414062 17.867187 23.3125 17.867187 10.898437 0 20.53125-7.527343 23.433593-18.292969 1.226563-4.550781 5.902344-7.246093 10.460938-6.027343 4.546875 1.230469 7.246093 5.90625 6.023437 10.460937-4.914062 18.203125-21.324218 30.925782-39.917968 30.925782zm0 0"/></svg>