<svg height="512pt" viewBox="0 -17 512 512" width="512pt" xmlns="http://www.w3.org/2000/svg"><path d="m315.734375 17.066406h-102.402344c-4.710937 0-8.53125-3.8125-8.53125-8.53125 0-4.722656 3.820313-8.535156 8.53125-8.535156h102.402344c4.710937 0 8.53125 3.8125 8.53125 8.535156 0 4.71875-3.820313 8.53125-8.53125 8.53125zm0 0"/><path d="m452.265625 392.535156h-392.53125c-32.941406 0-59.734375-26.804687-59.734375-59.734375 0-4.71875 3.824219-8.535156 8.535156-8.535156h494.929688c4.710937 0 8.535156 3.816406 8.535156 8.535156 0 32.929688-26.792969 59.734375-59.734375 59.734375zm-434.34375-51.203125c3.964844 19.449219 21.203125 34.132813 41.8125 34.132813h392.53125c20.609375 0 37.847656-14.683594 41.8125-34.132813zm0 0"/><path d="m477.867188 341.332031h-426.667969c-4.710938 0-8.53125-3.8125-8.53125-8.53125v-110.933593c0-79.992188 65.074219-145.066407 145.066406-145.066407 18.824219 0 34.132813-15.308593 34.132813-34.132812v-34.132813c0-4.722656 3.824218-8.535156 8.53125-8.535156h68.269531c4.710937 0 8.53125 3.8125 8.53125 8.535156v34.132813c0 18.824219 15.308593 34.132812 34.132812 34.132812 79.992188 0 145.066407 65.074219 145.066407 145.066407v110.933593c0 4.71875-3.820313 8.53125-8.53125 8.53125zm-418.132813-17.066406h409.597656v-102.398437c0-70.578126-57.417969-128-128-128-28.226562 0-51.199219-22.964844-51.199219-51.199219v-25.601563h-51.199218v25.601563c0 28.234375-22.972656 51.199219-51.199219 51.199219-70.582031 0-128 57.421874-128 128zm0 0"/><path d="m392.535156 477.867188h-273.070312c-4.707032 0-8.53125-3.816407-8.53125-8.535157v-34.132812c0-4.71875 3.824218-8.53125 8.53125-8.53125h51.203125c9.410156 0 17.066406-7.65625 17.066406-17.066407v-25.601562c0-4.71875 3.820313-8.535156 8.53125-8.535156h119.46875c4.710937 0 8.53125 3.816406 8.53125 8.535156v25.601562c0 9.410157 7.65625 17.066407 17.066406 17.066407h51.203125c4.707032 0 8.53125 3.8125 8.53125 8.53125v34.132812c0 4.71875-3.824218 8.535157-8.53125 8.535157zm-264.535156-17.066407h256v-17.066406h-42.667969c-18.824219 0-34.132812-15.308594-34.132812-34.132813v-17.066406h-102.398438v17.066406c0 18.824219-15.308593 34.132813-34.132812 34.132813h-42.667969zm0 0"/><path d="m409.601562 477.867188h-307.203124c-4.707032 0-8.53125-3.816407-8.53125-8.535157s3.824218-8.53125 8.53125-8.53125h307.203124c4.707032 0 8.53125 3.8125 8.53125 8.53125s-3.824218 8.535157-8.53125 8.535157zm0 0"/><path d="m264.535156 341.332031c-4.710937 0-8.535156-3.8125-8.535156-8.53125v-196.265625c0-4.722656 3.824219-8.535156 8.535156-8.535156 4.707032 0 8.53125 3.8125 8.53125 8.535156v196.265625c0 4.71875-3.824218 8.53125-8.53125 8.53125zm0 0"/><path d="m185.453125 289.511719c-20.503906 0-43.664063-6.757813-62.164063-28.332031-1.066406-1.355469-20.890624-27.066407-20.890624-73.445313 0-3.074219 1.65625-5.90625 4.328124-7.417969 2.679688-1.515625 5.964844-1.476562 8.59375.105469.273438.152344 26.8125 15.84375 55.347657 15.84375.757812.019531 21.894531-.152344 38.960937 16.648437 13.78125 13.570313 20.769532 33.808594 20.769532 60.152344 0 3.269532-1.859376 6.238282-4.792969 7.671875-9.25 4.503907-23.859375 8.773438-40.152344 8.773438zm-65.269531-87.648438c3.21875 31.171875 16.171875 48.316407 16.316406 48.523438 26.597656 31 63.511719 21.714843 76.707031 16.988281-.863281-18.757812-6.085937-32.972656-15.558593-42.300781-11.734376-11.554688-26.460938-11.742188-26.84375-11.742188 0 0 0 0-.011719 0-20.015625 0-38.613281-6.261719-50.609375-11.46875zm0 0"/><path d="m264.535156 298.667969c-1.058594 0-2.125-.1875-3.167968-.605469l-42.667969-17.070312c-4.375-1.746094-6.5-6.714844-4.75-11.089844 1.746093-4.386719 6.722656-6.511719 11.09375-4.761719l42.664062 17.066406c4.378907 1.75 6.503907 6.714844 4.753907 11.09375-1.339844 3.34375-4.546876 5.367188-7.925782 5.367188zm0 0"/><path d="m264.542969 264.535156c-2.59375 0-5.15625-1.179687-6.835938-3.414062-2.824219-3.765625-2.066406-9.113282 1.707031-11.9375l34.132813-25.601563c3.773437-2.816406 9.121094-2.074219 11.945313 1.707031 2.824218 3.761719 2.066406 9.113282-1.707032 11.9375l-34.132812 25.601563c-1.535156 1.152344-3.335938 1.707031-5.109375 1.707031zm0 0"/><path d="m264.535156 145.066406c-2.1875 0-4.371094-.835937-6.035156-2.5l-25.601562-25.601562c-3.335938-3.335938-3.335938-8.726563 0-12.066406 3.328124-3.335938 8.738281-3.335938 12.066406 0l25.601562 25.601562c3.335938 3.335938 3.335938 8.730469 0 12.066406-1.664062 1.664063-3.847656 2.5-6.03125 2.5zm0 0"/><path d="m264.535156 145.066406c-2.1875 0-4.371094-.835937-6.035156-2.5-3.335938-3.335937-3.335938-8.730468 0-12.066406l25.601562-25.601562c3.328126-3.335938 8.738282-3.335938 12.066407 0 3.335937 3.339843 3.335937 8.730468 0 12.066406l-25.601563 25.601562c-1.664062 1.664063-3.847656 2.5-6.03125 2.5zm0 0"/><path d="m221.859375 281.601562c-1.433594 0-2.894531-.359374-4.226563-1.128906l-59.730468-34.132812c-4.089844-2.335938-5.515625-7.550782-3.175782-11.640625 2.339844-4.085938 7.550782-5.519531 11.640626-3.171875l59.730468 34.132812c4.089844 2.335938 5.515625 7.550782 3.175782 11.640625-1.570313 2.753907-4.453126 4.300781-7.414063 4.300781zm0 0"/><path d="m334.96875 247.433594c-16.265625 0-30.824219-4.269532-40.039062-8.746094-2.9375-1.433594-4.796876-4.414062-4.796876-7.679688 0-26.335937 6.988282-46.578124 20.769532-60.144531 17.066406-16.8125 38.203125-16.734375 39.09375-16.65625 28.398437 0 54.945312-15.695312 55.210937-15.847656 2.636719-1.585937 5.921875-1.613281 8.589844-.101563 2.679687 1.507813 4.335937 4.34375 4.335937 7.414063 0 46.378906-19.824218 72.089844-20.660156 73.164063-18.660156 21.777343-41.949218 28.597656-62.503906 28.597656zm-27.640625-22.085938c13.226563 4.820313 49.945313 14.175782 76.960937-17.332031-.015624 0 12.851563-17.097656 16.0625-48.195313-11.984374 5.199219-30.542968 11.460938-50.484374 11.460938-.308594 0-15.359376.144531-27.1875 11.945312-9.34375 9.320313-14.5 23.484376-15.351563 42.121094zm0 0"/><path d="m298.675781 239.539062c-2.960937 0-5.847656-1.542968-7.417969-4.300781-2.335937-4.085937-.910156-9.300781 3.175782-11.640625l59.734375-34.132812c4.09375-2.335938 9.308593-.914063 11.640625 3.175781 2.335937 4.085937.910156 9.300781-3.175782 11.640625l-59.734374 34.132812c-1.332032.765626-2.789063 1.125-4.222657 1.125zm0 0"/></svg>