<svg height="512pt" viewBox="-43 0 512 512" width="512pt" xmlns="http://www.w3.org/2000/svg"><path d="m315.734375 512c-61.167969 0-110.933594-46.0625-110.933594-102.691406 0-87.492188 100.863281-181.238282 105.15625-185.1875 3.257813-3.003906 8.285157-3.003906 11.554688 0 4.289062 3.949218 105.15625 97.695312 105.15625 185.1875 0 56.628906-49.769531 102.691406-110.933594 102.691406zm0-269.722656c-21.265625 21.15625-93.867187 98.414062-93.867187 167.03125 0 47.214844 42.113281 85.625 93.867187 85.625s93.867187-38.410156 93.867187-85.625c0-68.617188-72.601562-145.882813-93.867187-167.03125zm0 0"/><path d="m315.734375 477.867188c-42.351563 0-76.800781-30.625-76.800781-68.265626 0-4.71875 3.824218-8.535156 8.53125-8.535156 4.710937 0 8.535156 3.816406 8.535156 8.535156 0 28.234376 26.792969 51.199219 59.734375 51.199219 4.710937 0 8.53125 3.8125 8.53125 8.53125s-3.820313 8.535157-8.53125 8.535157zm0 0"/><path d="m110.933594 290.132812c-61.167969 0-110.933594-46.0625-110.933594-102.691406 0-87.492187 100.863281-181.238281 105.15625-185.1875 3.257812-3.003906 8.285156-3.003906 11.554688 0 4.292968 3.949219 105.15625 97.695313 105.15625 185.1875 0 56.628906-49.765626 102.691406-110.933594 102.691406zm0-269.722656c-21.265625 21.148438-93.867188 98.417969-93.867188 167.03125 0 47.214844 42.113282 85.625 93.867188 85.625s93.867187-38.410156 93.867187-85.625c0-68.613281-72.601562-145.882812-93.867187-167.03125zm0 0"/><path d="m110.933594 256c-42.351563 0-76.800782-30.625-76.800782-68.265625 0-4.71875 3.824219-8.535156 8.535157-8.535156 4.710937 0 8.53125 3.816406 8.53125 8.535156 0 28.234375 26.796875 51.199219 59.734375 51.199219 4.710937 0 8.53125 3.8125 8.53125 8.53125 0 4.722656-3.820313 8.535156-8.53125 8.535156zm0 0"/><path d="m298.667969 196.265625c-4.710938 0-8.535157-3.8125-8.535157-8.53125v-128c0-4.71875 3.824219-8.535156 8.535157-8.535156 4.710937 0 8.53125 3.816406 8.53125 8.535156v128c0 4.71875-3.820313 8.53125-8.53125 8.53125zm0 0"/><path d="m298.667969 34.132812c-4.710938 0-8.535157-3.8125-8.535157-8.53125v-8.535156c0-4.71875 3.824219-8.53125 8.535157-8.53125 4.710937 0 8.53125 3.8125 8.53125 8.53125v8.535156c0 4.71875-3.820313 8.53125-8.53125 8.53125zm0 0"/><path d="m366.933594 196.265625c-4.710938 0-8.535156-3.8125-8.535156-8.53125v-128c0-4.71875 3.824218-8.535156 8.535156-8.535156 4.710937 0 8.53125 3.816406 8.53125 8.535156v128c0 4.71875-3.820313 8.53125-8.53125 8.53125zm0 0"/><path d="m366.933594 34.132812c-4.710938 0-8.535156-3.8125-8.535156-8.53125v-8.535156c0-4.71875 3.824218-8.53125 8.535156-8.53125 4.710937 0 8.53125 3.8125 8.53125 8.53125v8.535156c0 4.71875-3.820313 8.53125-8.53125 8.53125zm0 0"/><path d="m332.800781 93.867188c-4.710937 0-8.535156-3.816407-8.535156-8.535157v-51.199219c0-4.71875 3.824219-8.53125 8.535156-8.53125 4.710938 0 8.53125 3.8125 8.53125 8.53125v51.199219c0 4.71875-3.820312 8.535157-8.53125 8.535157zm0 0"/><path d="m332.800781 179.199219c-4.710937 0-8.535156-3.8125-8.535156-8.53125v-51.203125c0-4.71875 3.824219-8.53125 8.535156-8.53125 4.710938 0 8.53125 3.8125 8.53125 8.53125v51.203125c0 4.71875-3.820312 8.53125-8.53125 8.53125zm0 0"/><path d="m264.535156 93.867188c-4.710937 0-8.535156-3.816407-8.535156-8.535157v-51.199219c0-4.71875 3.824219-8.53125 8.535156-8.53125 4.707032 0 8.53125 3.8125 8.53125 8.53125v51.199219c0 4.71875-3.824218 8.535157-8.53125 8.535157zm0 0"/><path d="m264.535156 179.199219c-4.710937 0-8.535156-3.8125-8.535156-8.53125v-51.203125c0-4.71875 3.824219-8.53125 8.535156-8.53125 4.707032 0 8.53125 3.8125 8.53125 8.53125v51.203125c0 4.71875-3.824218 8.53125-8.53125 8.53125zm0 0"/><path d="m85.332031 512c-4.710937 0-8.53125-3.8125-8.53125-8.535156v-128c0-4.71875 3.820313-8.53125 8.53125-8.53125 4.710938 0 8.535157 3.8125 8.535157 8.53125v128c0 4.722656-3.824219 8.535156-8.535157 8.535156zm0 0"/><path d="m85.332031 349.867188c-4.710937 0-8.53125-3.816407-8.53125-8.535157v-8.53125c0-4.71875 3.820313-8.535156 8.53125-8.535156 4.710938 0 8.535157 3.816406 8.535157 8.535156v8.53125c0 4.71875-3.824219 8.535157-8.535157 8.535157zm0 0"/><path d="m153.601562 512c-4.710937 0-8.535156-3.8125-8.535156-8.535156v-128c0-4.71875 3.824219-8.53125 8.535156-8.53125 4.707032 0 8.53125 3.8125 8.53125 8.53125v128c0 4.722656-3.824218 8.535156-8.53125 8.535156zm0 0"/><path d="m153.601562 349.867188c-4.710937 0-8.535156-3.816407-8.535156-8.535157v-8.53125c0-4.71875 3.824219-8.535156 8.535156-8.535156 4.707032 0 8.53125 3.816406 8.53125 8.535156v8.53125c0 4.71875-3.824218 8.535157-8.53125 8.535157zm0 0"/><path d="m119.464844 409.601562c-4.707032 0-8.53125-3.816406-8.53125-8.535156v-51.199218c0-4.71875 3.824218-8.535157 8.53125-8.535157 4.710937 0 8.535156 3.816407 8.535156 8.535157v51.199218c0 4.71875-3.824219 8.535156-8.535156 8.535156zm0 0"/><path d="m119.464844 494.933594c-4.707032 0-8.53125-3.816406-8.53125-8.535156v-51.199219c0-4.71875 3.824218-8.53125 8.53125-8.53125 4.710937 0 8.535156 3.8125 8.535156 8.53125v51.199219c0 4.71875-3.824219 8.535156-8.535156 8.535156zm0 0"/><path d="m51.199219 409.601562c-4.710938 0-8.53125-3.816406-8.53125-8.535156v-51.199218c0-4.71875 3.820312-8.535157 8.53125-8.535157 4.710937 0 8.535156 3.816407 8.535156 8.535157v51.199218c0 4.71875-3.824219 8.535156-8.535156 8.535156zm0 0"/><path d="m51.199219 494.933594c-4.710938 0-8.53125-3.816406-8.53125-8.535156v-51.199219c0-4.71875 3.820312-8.53125 8.53125-8.53125 4.710937 0 8.535156 3.8125 8.535156 8.53125v51.199219c0 4.71875-3.824219 8.535156-8.535156 8.535156zm0 0"/></svg>