<svg height="511pt" viewBox="-63 0 511 511.99147" width="511pt" xmlns="http://www.w3.org/2000/svg"><path d="m214.730469 511.992188c-76.585938 0-134.039063-21.214844-170.777344-63.054688-52.605469-59.910156-42.921875-139.492188-42.488281-142.847656.4375-3.320313 2.757812-6.074219 5.957031-7.054688 3.191406-.957031 6.664063 0 8.882813 2.488282 39.503906 44.433593 58.871093 47.882812 65.359374 47.300781 1.066407-.09375 1.953126-.304688 2.710938-.570313-64.65625-112.511718 21.726562-183.542968 22.625-184.261718 2.675781-2.140626 6.390625-2.464844 9.402344-.835938 3.019531 1.640625 4.761718 4.933594 4.417968 8.355469-2.242187 22.578125-1.023437 58.164062 8.714844 66.578125.273438.238281.5625.46875.886719.664062 2.519531-18.285156 10.292969-65.679687 28.3125-113.757812 30.671875-81.773438 76.589844-124.996094 132.796875-124.996094 2.714844 0 5.265625 1.289062 6.871094 3.472656 1.601562 2.183594 2.082031 5 1.277344 7.59375-69.460938 223.820313-3.8125 259.378906 2.511718 262.214844 10.765625 1.371094 18.667969-.777344 24.121094-6.546875 13.558594-14.308594 10.410156-48.359375 8.046875-60.261719-.492187-2.507812.15625-5.113281 1.777344-7.074218 1.621093-1.972657 4.042969-3.125 6.59375-3.125 10.011719 0 42.667969 9.234374 42.667969 128 0 185.566406-168.96875 187.71875-170.667969 187.71875zm-197.023438-184.003907c.542969 26 6.585938 72.796875 39.175781 109.824219 33.355469 37.894531 86.449219 57.113281 157.832032 57.113281 6.253906-.019531 153.597656-2.355469 153.597656-170.667969-.007812-38.9375-5.800781-81.175781-14.949219-100.378906.683594 16.984375-1.261719 40.398438-14.652343 54.5625-9.566407 10.113282-22.96875 14.003906-39.867188 11.597656-.417969-.066406-.835938-.160156-1.246094-.273437-1.800781-.535156-17.945312-5.972656-30.839844-30.191406-17.414062-32.707031-28.902343-101.085938 13.015626-241.75-108.835938 14.457031-133.121094 228.3125-133.359376 230.546875-.382812 3.558594-2.945312 6.503906-6.417968 7.363281-8.183594 2.058594-15.667969.417969-21.621094-4.734375-12.945312-11.195312-15.644531-37.835938-15.652344-57.933594-19.480468 24.890625-45.867187 78.105469-.195312 152.320313 1.542968 2.515625 1.679687 5.648437.367187 8.292969-.53125 1.050781-5.503906 10.300781-18.457031 12.015624-17.230469 2.132813-39.628906-10.394531-66.730469-37.707031zm0 0"/><path d="m196.007812 469.546875c-4.28125 0-7.039062-.203125-7.585937-.257813-16.503906.4375-30.855469-6.101562-42.035156-18.175781-30.429688-32.859375-25.710938-99.105469-25.496094-101.914062.222656-2.90625 1.929687-5.511719 4.503906-6.882813 2.585938-1.351562 5.691407-1.316406 8.226563.136719l8.703125 4.964844c6.0625 3.457031 13.21875 3.34375 19.140625-.300781 6.027344-3.726563 9.378906-10.195313 8.988281-17.3125-4.730469-85.050782 35.070313-160.035157 36.769531-163.183594 2.066406-3.839844 6.679688-5.511719 10.726563-3.863282 4.035156 1.636719 6.1875 6.066407 4.992187 10.246094-8.757812 30.644532 13.039063 98.621094 58.28125 181.835938 11.136719 20.480468 13.023438 43.878906 5.164063 64.171875-17.820313 46.046875-70.511719 50.535156-90.378907 50.535156zm-58.390624-105.429687c.246093 19.730468 3.328124 56.03125 21.304687 75.425781 7.9375 8.558593 17.820313 12.714843 30.210937 12.714843 1.320313.101563 64.304688 4.617188 81.339844-39.40625 6.039063-15.617187 4.496094-33.792968-4.242187-49.871093-21.050781-38.714844-51.59375-101.015625-60.03125-150.269531-10.25 29.03125-21.179688 71.535156-18.707031 116.136718.742187 13.46875-5.632813 25.730469-17.058594 32.785156-10.128906 6.246094-22.109375 7.09375-32.816406 2.484376zm0 0"/></svg>