<svg height="512pt" viewBox="-51 0 512 512" width="512pt" xmlns="http://www.w3.org/2000/svg"><path d="m384 51.199219h-358.398438c-14.117187 0-25.601562-11.484375-25.601562-25.597657 0-14.117187 11.484375-25.601562 25.601562-25.601562h358.398438c14.113281 0 25.601562 11.484375 25.601562 25.601562 0 14.113282-11.488281 25.597657-25.601562 25.597657zm-358.398438-34.132813c-4.710937 0-8.535156 3.824219-8.535156 8.535156 0 4.707032 3.824219 8.53125 8.535156 8.53125h358.398438c4.703125 0 8.535156-3.824218 8.535156-8.53125 0-4.710937-3.832031-8.535156-8.535156-8.535156zm0 0"/><path d="m384 512h-358.398438c-14.117187 0-25.601562-11.484375-25.601562-25.601562 0-14.113282 11.484375-25.597657 25.601562-25.597657h358.398438c14.113281 0 25.601562 11.484375 25.601562 25.597657 0 14.117187-11.488281 25.601562-25.601562 25.601562zm-358.398438-34.132812c-4.710937 0-8.535156 3.824218-8.535156 8.53125 0 4.710937 3.824219 8.535156 8.535156 8.535156h358.398438c4.703125 0 8.535156-3.824219 8.535156-8.535156 0-4.707032-3.832031-8.53125-8.535156-8.53125zm0 0"/><path d="m204.800781 418.132812c-65.878906 0-119.46875-51.351562-119.46875-114.464843 0-97.859375 108.9375-203.007813 113.570313-207.445313 3.304687-3.148437 8.492187-3.148437 11.785156 0 4.644531 4.4375 113.578125 109.585938 113.578125 207.445313 0 63.113281-53.589844 114.464843-119.464844 114.464843zm0-303.640624c-22.605469 23.285156-102.402343 111.070312-102.402343 189.175781 0 53.707031 45.9375 97.398437 102.402343 97.398437 56.464844 0 102.398438-43.691406 102.398438-97.398437 0-78.191407-79.785157-165.898438-102.398438-189.175781zm0 0"/><path d="m136.59375 345.164062c-3.011719 0-5.921875-1.59375-7.476562-4.410156-6.296876-11.410156-9.632813-24.234375-9.652344-37.085937-.007813-4.710938 3.816406-8.535157 8.527344-8.542969h.007812c4.710938 0 8.523438 3.816406 8.535156 8.523438.007813 9.984374 2.609375 19.960937 7.523438 28.851562 2.28125 4.121094.777344 9.320312-3.34375 11.597656-1.3125.726563-2.730469 1.066406-4.121094 1.066406zm0 0"/><path d="m204.800781 384c-12.578125-.007812-24.601562-2.996094-37.847656-9.386719-4.238281-2.046875-6.023437-7.152343-3.976563-11.390625 2.050782-4.25 7.152344-6.027344 11.394532-3.976562 10.84375 5.230468 20.511718 7.671875 30.429687 7.679687 4.710938 0 8.53125 3.820313 8.53125 8.539063 0 4.722656-3.820312 8.535156-8.53125 8.535156zm0 0"/><path d="m375.464844 247.464844h-74.128906c-3.453126 0-6.578126-2.089844-7.890626-5.289063-23.785156-57.847656-71.902343-110.4375-88.644531-127.683593-16.742187 17.246093-64.855469 69.835937-88.644531 127.683593-1.316406 3.199219-4.429688 5.289063-7.894531 5.289063h-74.128907c-4.710937 0-8.53125-3.8125-8.53125-8.53125v-196.265625c0-4.71875 3.820313-8.535157 8.53125-8.535157h341.332032c4.710937 0 8.535156 3.816407 8.535156 8.535157v196.265625c0 4.71875-3.824219 8.53125-8.535156 8.53125zm-68.476563-17.066406h59.945313v-179.199219h-324.265625v179.199219h59.945312c31.199219-71.492188 93.59375-131.582032 96.289063-134.167969 3.296875-3.148438 8.492187-3.148438 11.792968 0 2.707032 2.585937 65.085938 62.675781 96.292969 134.167969zm0 0"/><path d="m97.417969 281.601562h-71.816407c-14.117187 0-25.601562-11.488281-25.601562-25.601562s11.484375-25.601562 25.601562-25.601562h82.660157c2.84375 0 5.503906 1.417968 7.09375 3.78125 1.585937 2.363281 1.882812 5.359374.800781 7.996093-4.601562 11.1875-8.097656 22.195313-10.402344 32.71875-.855468 3.914063-4.328125 6.707031-8.335937 6.707031zm-71.816407-34.136718c-4.710937 0-8.535156 3.824218-8.535156 8.535156s3.824219 8.535156 8.535156 8.535156h65.082032c1.441406-5.609375 3.183594-11.308594 5.195312-17.070312zm0 0"/><path d="m384 281.601562h-71.816406c-4.011719 0-7.476563-2.792968-8.335938-6.707031-2.3125-10.539062-5.8125-21.539062-10.402344-32.71875-1.085937-2.628906-.785156-5.625.800782-7.996093 1.585937-2.363282 4.242187-3.78125 7.089844-3.78125h82.664062c14.113281 0 25.601562 11.488281 25.601562 25.601562s-11.488281 25.601562-25.601562 25.601562zm-65.082031-17.066406h65.082031c4.703125 0 8.535156-3.824218 8.535156-8.535156s-3.832031-8.535156-8.535156-8.535156h-70.28125c2.015625 5.753906 3.753906 11.460937 5.199219 17.070312zm0 0"/><path d="m375.464844 477.867188h-341.332032c-4.710937 0-8.53125-3.816407-8.53125-8.535157v-196.265625c0-4.71875 3.820313-8.53125 8.53125-8.53125h63.285157c2.585937 0 5.023437 1.167969 6.644531 3.179688 1.621094 2.007812 2.238281 4.652344 1.691406 7.179687-2.226562 10.171875-3.355468 19.847657-3.355468 28.773438 0 53.707031 45.9375 97.398437 102.402343 97.398437 56.464844 0 102.398438-43.691406 102.398438-97.398437 0-8.925781-1.125-18.613281-3.351563-28.773438-.546875-2.527343.066406-5.164062 1.6875-7.179687 1.621094-2.011719 4.0625-3.179688 6.648438-3.179688h63.28125c4.710937 0 8.535156 3.8125 8.535156 8.53125v196.265625c0 4.71875-3.824219 8.535157-8.535156 8.535157zm-332.796875-17.066407h324.265625v-179.199219h-44.46875c1.195312 7.644532 1.800781 15.042969 1.800781 22.066407 0 63.113281-53.589844 114.464843-119.464844 114.464843-65.878906 0-119.46875-51.351562-119.46875-114.464843 0-7.023438.605469-14.40625 1.800781-22.066407h-44.464843zm0 0"/></svg>