<svg height="512pt" viewBox="0 0 512 512" width="512pt" xmlns="http://www.w3.org/2000/svg"><path d="m384 375.464844h-25.601562c-4.707032 0-8.53125-3.8125-8.53125-8.53125s3.824218-8.535156 8.53125-8.535156h25.601562c4.710938 0 8.535156 3.816406 8.535156 8.535156s-3.824218 8.53125-8.535156 8.53125zm0 0"/><path d="m409.601562 512c-32.941406 0-59.734374-26.804688-59.734374-59.734375s26.792968-59.730469 59.734374-59.730469c32.9375 0 59.730469 26.800782 59.730469 59.730469s-26.792969 59.734375-59.730469 59.734375zm0-102.398438c-23.527343 0-42.667968 19.140626-42.667968 42.664063 0 23.527344 19.140625 42.667969 42.667968 42.667969 23.523438 0 42.664063-19.140625 42.664063-42.667969 0-23.523437-19.140625-42.664063-42.664063-42.664063zm0 0"/><path d="m418.3125 477.867188h-17.433594c-9.300781 0-16.878906-7.578126-16.878906-16.886719v-17.433594c0-9.300781 7.578125-16.878906 16.886719-16.878906h17.433593c9.300782 0 16.878907 7.578125 16.878907 16.886719v17.433593c0 9.300781-7.578125 16.878907-16.886719 16.878907zm-.179688-34.3125-17.246093.179687.179687 17.246094 17.066406-.179688zm.179688 17.246093"/><path d="m102.398438 512c-32.9375 0-59.730469-26.804688-59.730469-59.734375s26.792969-59.730469 59.730469-59.730469c32.941406 0 59.734374 26.800782 59.734374 59.730469s-26.792968 59.734375-59.734374 59.734375zm0-102.398438c-23.523438 0-42.664063 19.140626-42.664063 42.664063 0 23.527344 19.140625 42.667969 42.664063 42.667969 23.527343 0 42.667968-19.140625 42.667968-42.667969 0-23.523437-19.140625-42.664063-42.667968-42.664063zm0 0"/><path d="m111.113281 477.867188h-17.433593c-9.300782 0-16.878907-7.578126-16.878907-16.886719v-17.433594c0-9.300781 7.578125-16.878906 16.886719-16.878906h17.433594c9.300781 0 16.878906 7.578125 16.878906 16.886719v17.433593c0 9.300781-7.578125 16.878907-16.886719 16.878907zm-.179687-34.3125-17.246094.179687.179688 17.246094 17.066406-.179688zm.179687 17.246093"/><path d="m503.464844 409.601562h-34.132813c-4.710937 0-8.53125-3.816406-8.53125-8.535156v-34.132812c0-4.71875 3.820313-8.535156 8.53125-8.535156h33.273438c4.0625 0 7.558593 2.859374 8.363281 6.84375.679688 3.363281 1.03125 6.8125 1.03125 10.222656v25.601562c0 4.71875-3.824219 8.535156-8.535156 8.535156zm-25.597656-17.066406h17.066406v-17.070312h-17.066406zm0 0"/><path d="m42.667969 512h-34.132813c-4.710937 0-8.535156-3.8125-8.535156-8.535156 0-4.71875 3.824219-8.53125 8.535156-8.53125h34.132813c4.710937 0 8.53125 3.8125 8.53125 8.53125 0 4.722656-3.820313 8.535156-8.53125 8.535156zm0 0"/><path d="m503.464844 512h-196.265625c-4.710938 0-8.53125-3.8125-8.53125-8.535156 0-4.71875 3.820312-8.53125 8.53125-8.53125h196.265625c4.710937 0 8.535156 3.8125 8.535156 8.53125 0 4.722656-3.824219 8.535156-8.535156 8.535156zm0 0"/><path d="m273.066406 512h-34.132812c-4.710938 0-8.535156-3.8125-8.535156-8.535156 0-4.71875 3.824218-8.53125 8.535156-8.53125h34.132812c4.710938 0 8.535156 3.8125 8.535156 8.53125 0 4.722656-3.824218 8.535156-8.535156 8.535156zm0 0"/><path d="m204.800781 512h-102.402343c-4.707032 0-8.53125-3.8125-8.53125-8.535156 0-4.71875 3.824218-8.53125 8.53125-8.53125h102.402343c4.710938 0 8.53125 3.8125 8.53125 8.53125 0 4.722656-3.820312 8.535156-8.53125 8.535156zm0 0"/><path d="m503.464844 443.734375h-45.644532c-3.617187 0-6.832031-2.28125-8.046874-5.683594-6.023438-17.015625-22.167969-28.449219-40.171876-28.449219-18.007812 0-34.152343 11.433594-40.175781 28.449219-1.210937 3.402344-4.4375 5.683594-8.046875 5.683594h-210.757812c-3.617188 0-6.835938-2.28125-8.046875-5.683594-6.023438-17.015625-22.167969-28.449219-40.175781-28.449219-18.003907 0-34.148438 11.433594-40.171876 28.449219-1.214843 3.402344-4.4375 5.683594-8.046874 5.683594h-45.644532c-4.710937 0-8.535156-3.816406-8.535156-8.535156v-238.90625c0-23.542969 19.148438-42.691407 42.691406-42.691407h308.539063c18.125 0 34.3125 11.492188 40.296875 28.59375l49.722656 142.070313h19.550781c28.234375 0 51.199219 22.964844 51.199219 51.199219v59.734375c0 4.71875-3.824219 8.535156-8.535156 8.535156zm-39.941406-17.066406h31.410156v-51.203125c0-18.824219-15.308594-34.132813-34.132813-34.132813h-25.601562c-3.625 0-6.859375-2.292969-8.054688-5.714843l-51.730469-147.789063c-3.589843-10.265625-13.300781-17.160156-24.183593-17.160156h-308.539063c-14.128906 0-25.625 11.492187-25.625 25.625v230.375h31.410156c9.804688-20.644531 30.765626-34.132813 53.921876-34.132813 23.160156 0 44.117187 13.488282 53.921874 34.132813h199.359376c9.804687-20.644531 30.761718-34.132813 53.921874-34.132813 23.15625 0 44.117188 13.488282 53.921876 34.132813zm0 0"/><path d="m315.734375 273.066406c-4.710937 0-8.535156-3.8125-8.535156-8.53125v-17.070312c0-4.71875 3.824219-8.53125 8.535156-8.53125s8.53125 3.8125 8.53125 8.53125v17.070312c0 4.71875-3.820313 8.53125-8.53125 8.53125zm0 0"/><path d="m341.332031 273.066406h-25.597656c-4.710937 0-8.535156-3.8125-8.535156-8.53125 0-4.722656 3.824219-8.535156 8.535156-8.535156h25.597656c4.710938 0 8.535157 3.8125 8.535157 8.535156 0 4.71875-3.824219 8.53125-8.535157 8.53125zm0 0"/><path d="m110.933594 375.464844c-1.332032 0-2.679688-.304688-3.925782-.953125-3.429687-1.785157-5.238281-5.648438-4.402343-9.421875l14.753906-66.421875h-23.492187c-3.378907 0-6.433594-1.988281-7.808594-5.085938-1.367188-3.082031-.785156-6.691406 1.492187-9.191406l85.335938-93.867187c2.601562-2.859376 6.800781-3.636719 10.238281-1.835938 3.429688 1.785156 5.238281 5.652344 4.402344 9.421875l-14.753906 66.425781h23.492187c3.378906 0 6.433594 1.988282 7.808594 5.085938 1.367187 3.078125.785156 6.6875-1.492188 9.1875l-85.335937 93.867187c-1.660156 1.828125-3.964844 2.789063-6.3125 2.789063zm2.226562-93.863282h14.839844c2.585938 0 5.035156 1.175782 6.65625 3.191407 1.613281 2.019531 2.234375 4.667969 1.671875 7.191406l-10.09375 45.433594 50.738281-55.816407h-14.839844c-2.585937 0-5.035156-1.179687-6.65625-3.191406-1.613281-2.023437-2.234374-4.667968-1.671874-7.195312l10.09375-45.429688zm0 0"/><path d="m423.253906 307.199219h-141.652344c-4.710937 0-8.535156-3.8125-8.535156-8.53125v-85.335938c0-4.71875 3.824219-8.53125 8.535156-8.53125h111.785157c3.625 0 6.859375 2.292969 8.054687 5.714844l29.867188 85.335937c.914062 2.609376.503906 5.503907-1.09375 7.757813-1.601563 2.25-4.195313 3.589844-6.960938 3.589844zm-133.121094-17.066407h121.089844l-23.894531-68.265624h-97.195313zm0 0"/><path d="m332.800781 85.332031h-34.132812c-23.527344 0-42.667969-19.140625-42.667969-42.664062 0-23.527344 19.140625-42.667969 42.667969-42.667969h34.132812c4.710938 0 8.53125 3.8125 8.53125 8.535156v68.265625c0 4.71875-3.820312 8.53125-8.53125 8.53125zm-34.132812-68.265625c-14.117188 0-25.601563 11.484375-25.601563 25.601563 0 14.113281 11.484375 25.597656 25.601563 25.597656h25.597656v-51.199219zm0 0"/><path d="m375.464844 34.132812h-42.664063c-4.710937 0-8.535156-3.8125-8.535156-8.53125s3.824219-8.535156 8.535156-8.535156h42.664063c4.710937 0 8.535156 3.816406 8.535156 8.535156s-3.824219 8.53125-8.535156 8.53125zm0 0"/><path d="m375.464844 68.265625h-42.664063c-4.710937 0-8.535156-3.8125-8.535156-8.53125s3.824219-8.535156 8.535156-8.535156h42.664063c4.710937 0 8.535156 3.816406 8.535156 8.535156s-3.824219 8.53125-8.535156 8.53125zm0 0"/><path d="m269.269531 68.265625h-38.871093c-4.707032 0-8.53125-3.8125-8.53125-8.53125v-34.132813c0-4.71875 3.824218-8.535156 8.53125-8.535156h38.871093c3.054688 0 5.871094 1.628906 7.398438 4.277344 1.519531 2.652344 1.519531 5.902344-.015625 8.539062-2.382813 4.089844-3.585938 8.390626-3.585938 12.785157s1.203125 8.695312 3.574219 12.78125c1.539063 2.636719 1.539063 5.886719.019531 8.542969-1.519531 2.644531-4.335937 4.273437-7.390625 4.273437zm-30.335937-17.066406h17.953125c-.589844-2.796875-.886719-5.648438-.886719-8.53125 0-2.886719.296875-5.734375.886719-8.535157h-17.953125zm0 0"/><path d="m238.933594 170.667969c-4.710938 0-8.535156-3.816407-8.535156-8.535157v-42.667968c0-9.410156-7.652344-17.066406-17.066407-17.066406h-179.199219c-18.824218 0-34.132812-15.308594-34.132812-34.132813s15.308594-34.132813 34.132812-34.132813h196.265626c4.710937 0 8.535156 3.816407 8.535156 8.535157s-3.824219 8.53125-8.535156 8.53125h-196.265626c-9.410156 0-17.066406 7.65625-17.066406 17.066406 0 9.414063 7.65625 17.066406 17.066406 17.066406h179.199219c18.824219 0 34.132813 15.308594 34.132813 34.132813v42.667968c0 4.71875-3.820313 8.535157-8.53125 8.535157zm0 0"/></svg>