<svg height="512pt" viewBox="0 -51 512 512" width="512pt" xmlns="http://www.w3.org/2000/svg"><path d="m145.066406 409.601562h-102.398437c-4.710938 0-8.535157-3.816406-8.535157-8.535156v-307.199218c0-1.554688.417969-3.0625 1.222657-4.394532l51.199219-85.335937c3.078124-5.136719 11.554687-5.136719 14.632812 0l51.199219 85.335937c.796875 1.332032 1.214843 2.839844 1.214843 4.394532v307.199218c0 4.71875-3.824218 8.535156-8.535156 8.535156zm-93.867187-17.066406h85.335937v-296.304687l-42.667968-71.117188-42.667969 71.117188zm0 0"/><path d="m93.867188 409.601562c-4.710938 0-8.535157-3.816406-8.535157-8.535156v-68.265625c0-4.71875 3.824219-8.535156 8.535157-8.535156 4.710937 0 8.53125 3.816406 8.53125 8.535156v68.265625c0 4.71875-3.820313 8.535156-8.53125 8.535156zm0 0"/><path d="m93.867188 307.199219c-4.710938 0-8.535157-3.8125-8.535157-8.53125v-8.535157c0-4.71875 3.824219-8.53125 8.535157-8.53125 4.710937 0 8.53125 3.8125 8.53125 8.53125v8.535157c0 4.71875-3.820313 8.53125-8.53125 8.53125zm0 0"/><path d="m42.667969 187.734375h-34.132813c-4.710937 0-8.535156-3.816406-8.535156-8.535156v-51.199219c0-4.71875 3.824219-8.535156 8.535156-8.535156h34.132813c4.710937 0 8.53125 3.816406 8.53125 8.535156v51.199219c0 4.71875-3.820313 8.535156-8.53125 8.535156zm-25.601563-17.066406h17.066406v-34.132813h-17.066406zm0 0"/><path d="m42.667969 375.464844h-34.132813c-4.710937 0-8.535156-3.8125-8.535156-8.53125v-51.199219c0-4.71875 3.824219-8.535156 8.535156-8.535156h34.132813c4.710937 0 8.53125 3.816406 8.53125 8.535156v51.199219c0 4.71875-3.820313 8.53125-8.53125 8.53125zm-25.601563-17.066406h17.066406v-34.132813h-17.066406zm0 0"/><path d="m93.867188 68.265625c-4.710938 0-8.535157-3.8125-8.535157-8.53125v-51.199219c0-4.722656 3.824219-8.535156 8.535157-8.535156 4.710937 0 8.53125 3.8125 8.53125 8.535156v51.199219c0 4.71875-3.820313 8.53125-8.53125 8.53125zm0 0"/><path d="m93.867188 153.601562c-4.710938 0-8.535157-3.816406-8.535157-8.535156v-51.199218c0-4.71875 3.824219-8.535157 8.535157-8.535157 4.710937 0 8.53125 3.816407 8.53125 8.535157v51.199218c0 4.71875-3.820313 8.535156-8.53125 8.535156zm0 0"/><path d="m469.332031 409.601562h-102.398437c-4.710938 0-8.535156-3.816406-8.535156-8.535156v-307.199218c0-1.554688.417968-3.0625 1.222656-4.394532l51.199218-85.335937c3.082032-5.136719 11.554688-5.136719 14.632813 0l51.203125 85.335937c.792969 1.332032 1.210938 2.839844 1.210938 4.394532v307.199218c0 4.71875-3.824219 8.535156-8.535157 8.535156zm-93.867187-17.066406h85.335937v-296.304687l-42.667969-71.117188-42.667968 71.117188zm0 0"/><path d="m418.132812 409.601562c-4.710937 0-8.53125-3.816406-8.53125-8.535156v-68.265625c0-4.71875 3.820313-8.535156 8.53125-8.535156 4.710938 0 8.535157 3.816406 8.535157 8.535156v68.265625c0 4.71875-3.824219 8.535156-8.535157 8.535156zm0 0"/><path d="m418.132812 307.199219c-4.710937 0-8.53125-3.8125-8.53125-8.53125v-8.535157c0-4.71875 3.820313-8.53125 8.53125-8.53125 4.710938 0 8.535157 3.8125 8.535157 8.53125v8.535157c0 4.71875-3.824219 8.53125-8.535157 8.53125zm0 0"/><path d="m503.464844 187.734375h-34.132813c-4.710937 0-8.53125-3.816406-8.53125-8.535156v-51.199219c0-4.71875 3.820313-8.535156 8.53125-8.535156h34.132813c4.710937 0 8.535156 3.816406 8.535156 8.535156v51.199219c0 4.71875-3.824219 8.535156-8.535156 8.535156zm-25.597656-17.066406h17.066406v-34.132813h-17.066406zm0 0"/><path d="m503.464844 375.464844h-34.132813c-4.710937 0-8.53125-3.8125-8.53125-8.53125v-51.199219c0-4.71875 3.820313-8.535156 8.53125-8.535156h34.132813c4.710937 0 8.535156 3.816406 8.535156 8.535156v51.199219c0 4.71875-3.824219 8.53125-8.535156 8.53125zm-25.597656-17.066406h17.066406v-34.132813h-17.066406zm0 0"/><path d="m366.933594 187.734375h-59.734375c-4.710938 0-8.53125-3.816406-8.53125-8.535156v-51.199219c0-4.71875 3.820312-8.535156 8.53125-8.535156h59.734375c4.710937 0 8.53125 3.816406 8.53125 8.535156v51.199219c0 4.71875-3.820313 8.535156-8.53125 8.535156zm-51.199219-17.066406h42.664063v-34.132813h-42.664063zm0 0"/><path d="m366.933594 375.464844h-59.734375c-4.710938 0-8.53125-3.8125-8.53125-8.53125v-51.199219c0-4.71875 3.820312-8.535156 8.53125-8.535156h59.734375c4.710937 0 8.53125 3.816406 8.53125 8.535156v51.199219c0 4.71875-3.820313 8.53125-8.53125 8.53125zm-51.199219-17.066406h42.664063v-34.132813h-42.664063zm0 0"/><path d="m204.800781 187.734375h-59.734375c-4.710937 0-8.53125-3.816406-8.53125-8.535156v-51.199219c0-4.71875 3.820313-8.535156 8.53125-8.535156h59.734375c4.710938 0 8.53125 3.816406 8.53125 8.535156v51.199219c0 4.71875-3.820312 8.535156-8.53125 8.535156zm-51.199219-17.066406h42.664063v-34.132813h-42.664063zm0 0"/><path d="m204.800781 375.464844h-59.734375c-4.710937 0-8.53125-3.8125-8.53125-8.53125v-51.199219c0-4.71875 3.820313-8.535156 8.53125-8.535156h59.734375c4.710938 0 8.53125 3.816406 8.53125 8.535156v51.199219c0 4.71875-3.820312 8.53125-8.53125 8.53125zm-51.199219-17.066406h42.664063v-34.132813h-42.664063zm0 0"/><path d="m418.132812 68.265625c-4.710937 0-8.53125-3.8125-8.53125-8.53125v-51.199219c0-4.722656 3.820313-8.535156 8.53125-8.535156 4.710938 0 8.535157 3.8125 8.535157 8.535156v51.199219c0 4.71875-3.824219 8.53125-8.535157 8.53125zm0 0"/><path d="m418.132812 153.601562c-4.710937 0-8.53125-3.816406-8.53125-8.535156v-51.199218c0-4.71875 3.820313-8.535157 8.53125-8.535157 4.710938 0 8.535157 3.816407 8.535157 8.535157v51.199218c0 4.71875-3.824219 8.535156-8.535157 8.535156zm0 0"/><path d="m307.199219 409.601562h-102.398438c-4.710937 0-8.535156-3.816406-8.535156-8.535156v-307.199218c0-1.554688.417969-3.0625 1.222656-4.394532l51.199219-85.335937c3.078125-5.136719 11.554688-5.136719 14.632812 0l51.203126 85.335937c.792968 1.332032 1.210937 2.839844 1.210937 4.394532v307.199218c0 4.71875-3.824219 8.535156-8.535156 8.535156zm-93.867188-17.066406h85.335938v-296.304687l-42.667969-71.117188-42.667969 71.117188zm0 0"/><path d="m256 409.601562c-4.710938 0-8.535156-3.816406-8.535156-8.535156v-68.265625c0-4.71875 3.824218-8.535156 8.535156-8.535156s8.535156 3.816406 8.535156 8.535156v68.265625c0 4.71875-3.824218 8.535156-8.535156 8.535156zm0 0"/><path d="m256 307.199219c-4.710938 0-8.535156-3.8125-8.535156-8.53125v-8.535157c0-4.71875 3.824218-8.53125 8.535156-8.53125s8.535156 3.8125 8.535156 8.53125v8.535157c0 4.71875-3.824218 8.53125-8.535156 8.53125zm0 0"/><path d="m256 68.265625c-4.710938 0-8.535156-3.8125-8.535156-8.53125v-51.199219c0-4.722656 3.824218-8.535156 8.535156-8.535156s8.535156 3.8125 8.535156 8.535156v51.199219c0 4.71875-3.824218 8.53125-8.535156 8.53125zm0 0"/><path d="m256 153.601562c-4.710938 0-8.535156-3.816406-8.535156-8.535156v-51.199218c0-4.71875 3.824218-8.535157 8.535156-8.535157s8.535156 3.816407 8.535156 8.535157v51.199218c0 4.71875-3.824218 8.535156-8.535156 8.535156zm0 0"/></svg>