<svg height="512pt" viewBox="0 0 512 512" width="512pt" xmlns="http://www.w3.org/2000/svg"><path d="m290.132812 512h-68.265624c-4.710938 0-8.535157-3.824219-8.535157-8.535156v-29.863282c0-9.824218-6.269531-18.527343-15.238281-21.164062-13.824219-4.070312-27.257812-9.625-39.929688-16.539062-8.285156-4.511719-18.910156-2.816407-25.835937 4.113281l-21.140625 21.136719c-3.324219 3.339843-8.734375 3.339843-12.0625 0l-48.273438-48.273438c-3.339843-3.335938-3.339843-8.726562 0-12.0625l21.136719-21.140625c6.929688-6.9375 8.625-17.558594 4.113281-25.835937-6.90625-12.671876-12.46875-26.105469-16.53125-39.929688-2.644531-8.976562-11.347656-15.238281-21.171874-15.238281h-29.863282c-4.710937 0-8.535156-3.824219-8.535156-8.535157v-68.265624c0-4.710938 3.824219-8.535157 8.535156-8.535157h29.863282c9.824218 0 18.527343-6.261719 21.164062-15.238281 4.070312-13.824219 9.625-27.257812 16.527344-39.929688 4.515625-8.277343 2.816406-18.898437-4.109375-25.835937l-21.140625-21.140625c-3.335938-3.335938-3.335938-8.726562 0-12.0625l48.273437-48.273438c3.328125-3.339843 8.738281-3.339843 12.066407 0l21.136718 21.136719c6.9375 6.9375 17.5625 8.617188 25.839844 4.113281 12.671875-6.90625 26.105469-12.46875 39.929688-16.539062 8.976562-2.636719 15.246093-11.339844 15.246093-21.164062v-29.863282c0-4.710937 3.824219-8.535156 8.535157-8.535156h68.265624c4.710938 0 8.535157 3.824219 8.535157 8.535156v29.863282c0 9.824218 6.269531 18.527343 15.238281 21.164062 13.824219 4.070312 27.257812 9.625 39.929688 16.539062 8.277343 4.503907 18.898437 2.804688 25.835937-4.113281l21.140625-21.136719c3.324219-3.339843 8.734375-3.339843 12.0625 0l48.273438 48.273438c3.339843 3.335938 3.339843 8.726562 0 12.0625l-21.136719 21.140625c-6.9375 6.9375-8.625 17.558594-4.113281 25.835937 6.90625 12.671876 12.46875 26.105469 16.53125 39.929688 2.644531 8.976562 11.347656 15.238281 21.171874 15.238281h29.863282c4.710937 0 8.535156 3.824219 8.535156 8.535157v68.265624c0 4.710938-3.824219 8.535157-8.535156 8.535157h-29.863282c-9.824218 0-18.527343 6.261719-21.164062 15.238281-4.070312 13.824219-9.625 27.257812-16.527344 39.929688-4.515625 8.277343-2.816406 18.898437 4.109375 25.835937l21.140625 21.140625c3.335938 3.335938 3.335938 8.726562 0 12.0625l-48.273437 48.273438c-3.328125 3.339843-8.738281 3.339843-12.066407 0l-21.136718-21.136719c-6.9375-6.929688-17.5625-8.617188-25.839844-4.113281-12.671875 6.90625-26.105469 12.46875-39.929688 16.539062-8.976562 2.636719-15.246093 11.339844-15.246093 21.164062v29.863282c0 4.710937-3.824219 8.535156-8.535157 8.535156zm-59.734374-17.066406h51.203124v-21.332032c0-17.339843 11.304688-32.777343 27.484376-37.539062 12.671874-3.730469 24.976562-8.816406 36.582031-15.140625 14.875-8.105469 33.828125-5.210937 46.070312 7.035156l15.105469 15.101563 36.207031-36.207032-15.105469-15.101562c-12.242187-12.246094-15.136718-31.199219-7.039062-46.074219 6.324219-11.605469 11.417969-23.917969 15.148438-36.582031 4.769531-16.1875 20.207031-27.492188 37.546874-27.492188h21.332032v-51.203124h-21.332032c-17.339843 0-32.777343-11.304688-37.539062-27.492188-3.730469-12.664062-8.824219-24.96875-15.148438-36.582031-8.105468-14.882813-5.210937-33.828125 7.042969-46.074219l15.101563-15.101562-36.207032-36.199219-15.101562 15.105469c-12.246094 12.253906-31.191406 15.152343-46.074219 7.03125-11.605469-6.324219-23.910156-11.417969-36.582031-15.140626-16.1875-4.769531-27.492188-20.207031-27.492188-37.546874v-21.332032h-51.203124v21.332032c0 17.339843-11.304688 32.777343-27.484376 37.539062-12.671874 3.730469-24.976562 8.816406-36.582031 15.140625-14.875 8.113281-33.828125 5.21875-46.070312-7.035156l-15.105469-15.101563-36.207031 36.207032 15.105469 15.101562c12.253906 12.253906 15.144531 31.199219 7.039062 46.074219-6.324219 11.605469-11.417969 23.917969-15.148438 36.582031-4.769531 16.1875-20.207031 27.492188-37.546874 27.492188h-21.332032v51.203124h21.332032c17.339843 0 32.777343 11.304688 37.539062 27.492188 3.730469 12.664062 8.824219 24.96875 15.148438 36.582031 8.105468 14.882813 5.210937 33.828125-7.042969 46.074219l-15.101563 15.101562 36.207032 36.207032 15.101562-15.101563c12.253906-12.246093 31.199219-15.132812 46.074219-7.035156 11.605469 6.324219 23.910156 11.417969 36.582031 15.140625 16.1875 4.761719 27.492188 20.199219 27.492188 37.539062zm0 0"/><path d="m256 418.132812c-89.402344 0-162.132812-72.730468-162.132812-162.132812s72.730468-162.132812 162.132812-162.132812 162.132812 72.730468 162.132812 162.132812-72.730468 162.132812-162.132812 162.132812zm0-307.199218c-79.992188 0-145.066406 65.074218-145.066406 145.066406s65.074218 145.066406 145.066406 145.066406 145.066406-65.074218 145.066406-145.066406-65.074218-145.066406-145.066406-145.066406zm0 0"/><path d="m256 256h-39.289062c-20.683594 0-37.511719-16.828125-37.511719-37.511719v-39.289062c0-4.710938 3.824219-8.53125 8.535156-8.53125h39.285156c20.6875 0 37.515625 16.828125 37.515625 37.511719v39.285156c0 4.710937-3.824218 8.535156-8.535156 8.535156zm-59.734375-68.265625v30.753906c0 11.273438 9.175781 20.445313 20.445313 20.445313h30.753906v-30.753906c0-11.273438-9.171875-20.445313-20.445313-20.445313zm0 0"/><path d="m256 256c-2.183594 0-4.367188-.835938-6.03125-2.5l-34.136719-34.132812c-3.335937-3.335938-3.335937-8.730469 0-12.066407 3.328125-3.335937 8.738281-3.335937 12.066407 0l34.132812 34.132813c3.339844 3.335937 3.339844 8.730468 0 12.066406-1.664062 1.664062-3.847656 2.5-6.03125 2.5zm0 0"/><path d="m295.289062 256h-39.289062c-4.710938 0-8.535156-3.824219-8.535156-8.535156v-39.285156c0-20.683594 16.828125-37.511719 37.515625-37.511719h39.285156c4.710937 0 8.535156 3.820312 8.535156 8.53125v39.289062c0 20.683594-16.828125 37.511719-37.511719 37.511719zm-30.753906-17.066406h30.753906c11.269532 0 20.445313-9.171875 20.445313-20.445313v-30.753906h-30.753906c-11.273438 0-20.445313 9.171875-20.445313 20.445313zm0 0"/><path d="m256 256c-2.183594 0-4.367188-.835938-6.03125-2.5-3.339844-3.335938-3.339844-8.730469 0-12.066406l34.132812-34.132813c3.328126-3.335937 8.738282-3.335937 12.066407 0 3.335937 3.335938 3.335937 8.730469 0 12.066407l-34.136719 34.132812c-1.664062 1.664062-3.847656 2.5-6.03125 2.5zm0 0"/><path d="m256 307.199219c-4.710938 0-8.535156-3.820313-8.535156-8.53125v-51.203125c0-4.707032 3.824218-8.53125 8.535156-8.53125s8.535156 3.824218 8.535156 8.53125v51.203125c0 4.710937-3.824218 8.53125-8.535156 8.53125zm0 0"/><path d="m298.667969 341.332031h-85.335938c-4.710937 0-8.53125-3.820312-8.53125-8.53125 0-23.527343 19.140625-42.667969 42.664063-42.667969h17.070312c23.523438 0 42.664063 19.140626 42.664063 42.667969 0 4.710938-3.820313 8.53125-8.53125 8.53125zm-75.34375-17.066406h65.339843c-3.523437-9.933594-13.011718-17.066406-24.140624-17.066406h-17.066407c-11.117187 0-20.605469 7.132812-24.132812 17.066406zm0 0"/></svg>