<svg height="512pt" viewBox="-47 0 512 512.00161" width="512pt" xmlns="http://www.w3.org/2000/svg"><path d="m8.535156 426.667969c-4.710937 0-8.535156-3.816407-8.535156-8.535157v-341.332031c0-42.351562 34.457031-76.800781 76.800781-76.800781h332.800781c4.710938 0 8.53125 3.8125 8.53125 8.535156v341.332032c0 4.71875-3.820312 8.53125-8.53125 8.53125h-332.800781c-32.9375 0-59.734375 26.804687-59.734375 59.734374 0 4.71875-3.820312 8.535157-8.53125 8.535157zm68.265625-409.601563c-32.9375 0-59.734375 26.804688-59.734375 59.734375v293.109375c14.089844-17.414062 35.636719-28.578125 59.734375-28.578125h324.265625v-324.265625zm0 0"/><path d="m136.535156 426.667969h-59.734375c-4.710937 0-8.535156-3.816407-8.535156-8.535157s3.824219-8.53125 8.535156-8.53125h59.734375c4.710938 0 8.53125 3.8125 8.53125 8.53125s-3.820312 8.535157-8.53125 8.535157zm0 0"/><path d="m238.933594 426.667969h-51.199219c-4.710937 0-8.535156-3.816407-8.535156-8.535157s3.824219-8.53125 8.535156-8.53125h51.199219c4.710937 0 8.535156 3.8125 8.535156 8.53125s-3.824219 8.535157-8.535156 8.535157zm0 0"/><path d="m409.601562 426.667969h-42.667968c-4.710938 0-8.53125-3.816407-8.53125-8.535157s3.820312-8.53125 8.53125-8.53125h42.667968c4.710938 0 8.53125 3.8125 8.53125 8.53125s-3.820312 8.535157-8.53125 8.535157zm0 0"/><path d="m8.535156 426.667969c-4.710937 0-8.535156-3.816407-8.535156-8.535157v-341.332031c0-38.5625 28.886719-71.289062 67.199219-76.136719 2.449219-.289062 4.875.445313 6.707031 2.066407 1.835938 1.621093 2.894531 3.949219 2.894531 6.398437v341.335938c0 4.300781-3.199219 7.925781-7.464843 8.464844-29.800782 3.769531-52.269532 29.21875-52.269532 59.203124 0 4.71875-3.820312 8.535157-8.53125 8.535157zm51.199219-407.042969c-24.890625 7.433594-42.667969 30.507812-42.667969 57.175781v293.179688c10.609375-13.117188 25.480469-22.742188 42.667969-26.667969zm0 0"/><path d="m8.535156 196.265625c-4.710937 0-8.535156-3.8125-8.535156-8.53125v-52.394531c0-38.570313 28.886719-71.296875 67.199219-76.144532 2.449219-.296874 4.875.453126 6.707031 2.074219 1.835938 1.613281 2.894531 3.949219 2.894531 6.398438v52.40625c0 4.300781-3.199219 7.925781-7.464843 8.464843-29.800782 3.761719-52.269532 29.207032-52.269532 59.195313 0 4.71875-3.820312 8.53125-8.53125 8.53125zm51.199219-118.109375c-24.890625 7.433594-42.667969 30.515625-42.667969 57.183594v4.238281c10.609375-13.113281 25.480469-22.738281 42.667969-26.664063zm0 0"/><path d="m8.535156 333.398438c-4.710937 0-8.535156-3.816407-8.535156-8.535157v-52.394531c0-38.5625 28.886719-71.285156 67.199219-76.132812 2.449219-.300782 4.882812.453124 6.71875 2.0625 1.824219 1.613281 2.882812 3.953124 2.882812 6.402343v52.394531c0 4.300782-3.199219 7.925782-7.464843 8.464844-29.800782 3.761719-52.269532 29.226563-52.269532 59.203125 0 4.71875-3.820312 8.535157-8.53125 8.535157zm51.199219-118.109376c-24.890625 7.429688-42.667969 30.503907-42.667969 57.171876v4.25c10.609375-13.125 25.480469-22.75 42.667969-26.675782zm0 0"/><path d="m187.734375 512c-2.21875 0-4.402344-.871094-6.035156-2.5l-19.566407-19.566406-19.566406 19.566406c-2.441406 2.441406-6.109375 3.175781-9.300781 1.851562-3.183594-1.3125-5.265625-4.4375-5.265625-7.886718v-85.332032c0-4.71875 3.824219-8.53125 8.535156-8.53125h51.199219c4.710937 0 8.53125 3.8125 8.53125 8.53125v85.332032c0 3.449218-2.082031 6.574218-5.261719 7.886718-1.058594.445313-2.167968.648438-3.269531.648438zm-25.601563-42.667969c2.1875 0 4.371094.835938 6.035157 2.5l11.03125 11.035157v-56.199219h-34.132813v56.199219l11.035156-11.035157c1.664063-1.664062 3.847657-2.5 6.03125-2.5zm0 0"/><path d="m409.601562 460.800781h-221.867187c-4.710937 0-8.535156-3.816406-8.535156-8.535156v-25.597656h-34.132813v25.597656c0 4.71875-3.820312 8.535156-8.53125 8.535156h-59.734375c-23.527343 0-42.667969-19.140625-42.667969-42.667969 0-23.527343 19.140626-42.667968 42.667969-42.667968h332.800781c4.710938 0 8.53125 3.816406 8.53125 8.535156v68.265625c0 4.71875-3.820312 8.535156-8.53125 8.535156zm-213.335937-17.066406h204.800781v-51.199219h-324.265625c-14.113281 0-25.601562 11.484375-25.601562 25.597656 0 14.113282 11.488281 25.601563 25.601562 25.601563h51.199219v-25.601563c0-4.71875 3.824219-8.53125 8.535156-8.53125h51.199219c4.710937 0 8.53125 3.8125 8.53125 8.53125zm0 0"/><path d="m409.601562 494.933594h-221.867187c-4.710937 0-8.535156-3.816406-8.535156-8.535156v-59.730469h-34.132813v59.730469c0 4.71875-3.820312 8.535156-8.53125 8.535156h-59.734375c-42.34375 0-76.800781-34.449219-76.800781-76.800782 0-42.351562 34.457031-76.800781 76.800781-76.800781h332.800781c4.710938 0 8.53125 3.816407 8.53125 8.535157v136.53125c0 4.71875-3.820312 8.535156-8.53125 8.535156zm-213.335937-17.066406h204.800781v-119.46875h-324.265625c-32.9375 0-59.734375 26.804687-59.734375 59.734374 0 32.929688 26.796875 59.734376 59.734375 59.734376h51.199219v-59.734376c0-4.71875 3.824219-8.53125 8.535156-8.53125h51.199219c4.710937 0 8.53125 3.8125 8.53125 8.53125zm0 0"/><path d="m238.933594 324.265625c-79.992188 0-145.066406-65.074219-145.066406-145.066406 0-79.992188 65.074218-145.066407 145.066406-145.066407 79.992187 0 145.066406 65.074219 145.066406 145.066407 0 79.992187-65.074219 145.066406-145.066406 145.066406zm0-273.066406c-70.578125 0-128 57.421875-128 128s57.421875 128 128 128 128-57.421875 128-128-57.421875-128-128-128zm0 0"/><path d="m238.933594 187.734375h-39.285156c-20.6875 0-37.515626-16.835937-37.515626-37.511719v-39.289062c0-4.71875 3.824219-8.535156 8.535157-8.535156h39.285156c20.6875 0 37.515625 16.835937 37.515625 37.515624v39.285157c0 4.71875-3.824219 8.535156-8.535156 8.535156zm-59.734375-68.269531v30.757812c0 11.269532 9.175781 20.445313 20.449219 20.445313h30.753906v-30.753907c0-11.273437-9.175782-20.449218-20.449219-20.449218zm0 0"/><path d="m238.933594 187.734375c-2.183594 0-4.367188-.835937-6.03125-2.5l-34.132813-34.132813c-3.339843-3.339843-3.339843-8.730468 0-12.066406 3.335938-3.339844 8.726563-3.339844 12.0625 0l34.136719 34.132813c3.335938 3.335937 3.335938 8.730469 0 12.066406-1.664062 1.664063-3.851562 2.5-6.035156 2.5zm0 0"/><path d="m278.222656 187.734375h-39.289062c-4.710938 0-8.53125-3.816406-8.53125-8.535156v-39.285157c0-20.679687 16.828125-37.515624 37.511718-37.515624h39.285157c4.710937 0 8.535156 3.816406 8.535156 8.535156v39.289062c0 20.675782-16.828125 37.511719-37.511719 37.511719zm-30.753906-17.066406h30.753906c11.269532 0 20.445313-9.175781 20.445313-20.445313v-30.757812h-30.753907c-11.273437 0-20.445312 9.175781-20.445312 20.449218zm0 0"/><path d="m238.933594 187.734375c-2.183594 0-4.367188-.835937-6.03125-2.5-3.335938-3.335937-3.335938-8.730469 0-12.066406l34.132812-34.132813c3.335938-3.339844 8.730469-3.339844 12.066406 0 3.335938 3.335938 3.335938 8.726563 0 12.066406l-34.132812 34.132813c-1.664062 1.664063-3.851562 2.5-6.035156 2.5zm0 0"/><path d="m238.933594 238.933594c-4.710938 0-8.53125-3.816406-8.53125-8.535156v-51.199219c0-4.71875 3.820312-8.53125 8.53125-8.53125 4.710937 0 8.535156 3.8125 8.535156 8.53125v51.199219c0 4.71875-3.824219 8.535156-8.535156 8.535156zm0 0"/><path d="m281.601562 273.066406h-85.335937c-4.707031 0-8.53125-3.8125-8.53125-8.53125 0-23.527344 19.140625-42.667968 42.667969-42.667968h17.066406c23.523438 0 42.664062 19.140624 42.664062 42.667968 0 4.71875-3.820312 8.53125-8.53125 8.53125zm-75.339843-17.066406h65.339843c-3.527343-9.933594-13.015624-17.066406-24.144531-17.066406h-17.066406c-11.117187 0-20.605469 7.132812-24.128906 17.066406zm0 0"/></svg>