<svg height="512pt" viewBox="0 0 512 512" width="512pt" xmlns="http://www.w3.org/2000/svg"><path d="m256 418.132812c-89.402344 0-162.132812-72.730468-162.132812-162.132812s72.730468-162.132812 162.132812-162.132812 162.132812 72.730468 162.132812 162.132812-72.730468 162.132812-162.132812 162.132812zm0-307.199218c-79.992188 0-145.066406 65.074218-145.066406 145.066406s65.074218 145.066406 145.066406 145.066406 145.066406-65.074218 145.066406-145.066406-65.074218-145.066406-145.066406-145.066406zm0 0"/><path d="m256 307.199219c-4.710938 0-8.535156-3.820313-8.535156-8.53125v-85.335938c0-4.710937 3.824218-8.53125 8.535156-8.53125s8.535156 3.820313 8.535156 8.53125v85.335938c0 4.710937-3.824218 8.53125-8.535156 8.53125zm0 0"/><path d="m256 418.132812c-59.066406 0-113.5-32.1875-142.054688-84.019531l-3.941406-7.148437 6.972656-4.261719c33.960938-20.691406 84.632813-32.570313 139.023438-32.570313s105.0625 11.878907 139.023438 32.582032l6.972656 4.257812-3.941406 7.148438c-28.554688 51.824218-82.988282 84.011718-142.054688 84.011718zm-122.835938-85c26.476563 42.113282 72.796876 67.933594 122.835938 67.933594s96.359375-25.820312 122.835938-67.933594c-31.179688-16.546874-75.339844-25.933593-122.835938-25.933593s-91.65625 9.386719-122.835938 25.933593zm0 0"/><path d="m204.800781 264.535156h-17.074219c-23.527343 0-42.660156-19.132812-42.660156-42.660156v-17.074219c0-4.710937 3.824219-8.535156 8.535156-8.535156h17.074219c23.527344 0 42.65625 19.132813 42.65625 42.660156v17.074219c0 4.710938-3.820312 8.535156-8.53125 8.535156zm-42.667969-51.203125v8.542969c0 14.113281 11.476563 25.589844 25.59375 25.589844h8.539063v-8.539063c0-14.113281-11.476563-25.59375-25.589844-25.59375zm0 0"/><path d="m256 221.867188c-2.261719 0-4.4375-.898438-6.03125-2.5l-14.277344-14.277344c-8.054687-8.054688-12.492187-18.765625-12.492187-30.15625s4.4375-22.101563 12.492187-30.15625l14.265625-14.277344c3.203125-3.199219 8.867188-3.199219 12.074219 0l14.277344 14.277344c8.054687 8.054687 12.492187 18.765625 12.492187 30.15625s-4.4375 22.101562-12.492187 30.15625l-14.265625 14.277344c-1.605469 1.601562-3.78125 2.5-6.042969 2.5zm0-73.257813-8.234375 8.234375c-4.832031 4.828125-7.492187 11.253906-7.492187 18.089844 0 6.835937 2.660156 13.261718 7.492187 18.089844l8.234375 8.234374 8.234375-8.234374c4.832031-4.828126 7.492187-11.253907 7.492187-18.089844 0-6.835938-2.660156-13.261719-7.492187-18.089844zm0 0"/><path d="m256 307.199219c-1.929688 0-3.867188-.648438-5.460938-1.980469l-51.199218-42.664062c-3.621094-3.023438-4.113282-8.398438-1.09375-12.015626 3.019531-3.617187 8.398437-4.105468 12.015625-1.09375l51.199219 42.667969c3.617187 3.019531 4.113281 8.398438 1.09375 12.015625-1.683594 2.023438-4.113282 3.070313-6.554688 3.070313zm0 0"/><path d="m324.273438 264.535156h-17.074219c-4.710938 0-8.53125-3.824218-8.53125-8.535156v-17.074219c0-23.527343 19.128906-42.660156 42.65625-42.660156h17.074219c4.710937 0 8.535156 3.824219 8.535156 8.535156v17.074219c0 23.527344-19.132813 42.660156-42.660156 42.660156zm-8.539063-17.070312h8.539063c14.117187 0 25.59375-11.476563 25.59375-25.589844v-8.542969h-8.542969c-14.113281 0-25.589844 11.480469-25.589844 25.59375zm0 0"/><path d="m256 307.199219c-2.441406 0-4.871094-1.046875-6.5625-3.070313-3.019531-3.617187-2.527344-9.003906 1.09375-12.015625l51.199219-42.667969c3.617187-3.011718 9.003906-2.523437 12.015625 1.09375 3.019531 3.617188 2.523437 9.003907-1.09375 12.015626l-51.199219 42.664062c-1.585937 1.332031-3.523437 1.980469-5.453125 1.980469zm0 0"/><path d="m290.132812 512h-68.265624c-2.449219 0-4.777344-1.050781-6.402344-2.882812-1.621094-1.835938-2.371094-4.277344-2.0625-6.707032l5.445312-43.582031c.699219-5.589844-3.039062-10.828125-8.695312-12.183594-19.875-4.761719-38.777344-12.570312-56.183594-23.203125-4.925781-3.011718-11.238281-1.9375-14.6875 2.5l-24.550781 31.554688c-1.5 1.9375-3.761719 3.132812-6.203125 3.277344-2.476563.15625-4.839844-.75-6.5625-2.480469l-48.265625-48.265625c-1.730469-1.734375-2.636719-4.121094-2.480469-6.5625.152344-2.449219 1.347656-4.703125 3.273438-6.210938l31.558593-24.542968c4.4375-3.449219 5.511719-9.761719 2.507813-14.6875-10.632813-17.414063-18.441406-36.316407-23.203125-56.183594-1.355469-5.65625-6.613281-9.351563-12.183594-8.6875l-43.582031 5.445312c-2.429688.324219-4.871094-.441406-6.707032-2.0625-1.832031-1.625-2.882812-3.953125-2.882812-6.402344v-68.265624c0-2.449219 1.050781-4.777344 2.882812-6.402344 1.835938-1.621094 4.269532-2.378906 6.707032-2.070313l43.582031 5.441407c5.621094.710937 10.835937-3.027344 12.183594-8.683594 4.753906-19.867188 12.5625-38.769532 23.203125-56.183594 3.003906-4.925781 1.929687-11.238281-2.5-14.6875l-31.554688-24.542969c-1.9375-1.5-3.132812-3.761719-3.285156-6.203125-.15625-2.441406.75-4.828125 2.480469-6.5625l48.273437-48.273437c1.734375-1.722657 4.113282-2.617188 6.5625-2.480469 2.441406.152344 4.703125 1.347656 6.203125 3.273438l24.542969 31.558593c3.457031 4.4375 9.761719 5.511719 14.6875 2.5 17.40625-10.632812 36.308594-18.441406 56.183594-23.203125 5.65625-1.355468 9.394531-6.585937 8.695312-12.183594l-5.445312-43.582031c-.308594-2.429687.453125-4.871093 2.0625-6.707031 1.625-1.824219 3.953125-2.875 6.402344-2.875h68.265624c2.449219 0 4.777344 1.050781 6.402344 2.882812 1.621094 1.835938 2.371094 4.277344 2.0625 6.707032l-5.445312 43.582031c-.699219 5.589844 3.039062 10.828125 8.6875 12.183594 19.875 4.761719 38.777344 12.570312 56.183594 23.203125 4.917968 3.003906 11.238281 1.929687 14.6875-2.5l24.542968-31.554688c1.5-1.9375 3.761719-3.132812 6.203125-3.277344 2.449219-.179687 4.828125.75 6.5625 2.480469l48.273438 48.273438c1.730469 1.734375 2.636719 4.121093 2.480469 6.5625-.152344 2.441406-1.347657 4.703125-3.277344 6.214843l-31.554688 24.539063c-4.4375 3.449219-5.511718 9.761719-2.507812 14.6875 10.632812 17.417969 18.441406 36.316406 23.199218 56.183594 1.359376 5.648437 6.582032 9.394531 12.1875 8.6875l43.578126-5.445313c2.441406-.316406 4.875.453125 6.707031 2.074219 1.84375 1.605469 2.894531 3.933594 2.894531 6.382813v68.265624c0 2.449219-1.050781 4.777344-2.882812 6.402344-1.835938 1.628906-4.269532 2.386719-6.707032 2.070313l-43.582031-5.441407c-5.597656-.675781-10.828125 3.027344-12.183594 8.683594-4.753906 19.867188-12.5625 38.769532-23.203125 56.183594-3.011718 4.925781-1.929687 11.238281 2.5 14.6875l31.554688 24.542969c1.929687 1.5 3.125 3.761719 3.277344 6.210937.15625 2.449219-.75 4.832032-2.480469 6.5625l-48.273438 48.273438c-1.734375 1.722656-4.121093 2.652344-6.5625 2.484375-2.441406-.15625-4.703125-1.351563-6.203125-3.277344l-24.542968-31.558594c-3.449219-4.4375-9.753907-5.511719-14.6875-2.5-17.414063 10.632813-36.316407 18.441407-56.183594 23.203125-5.648438 1.355469-9.386719 6.585938-8.6875 12.1875l5.445312 43.578125c.308594 2.433594-.453125 4.871094-2.0625 6.707031-1.625 1.816407-3.953125 2.867188-6.402344 2.867188zm-58.597656-17.066406h48.929688l-4.25-33.988282c-1.773438-14.234374 7.527344-27.519531 21.648437-30.898437 18.132813-4.34375 35.378907-11.46875 51.269531-21.164063 12.347657-7.542968 28.269532-4.703124 37.058594 6.597657l18.605469 23.917969 34.601563-34.601563-23.925782-18.613281c-11.300781-8.78125-14.132812-24.710938-6.597656-37.050782 9.703125-15.890624 16.828125-33.144531 21.171875-51.269531 3.378906-14.121093 16.664063-23.449219 30.898437-21.648437l33.988282 4.25v-48.929688l-33.988282 4.25c-14.234374 1.738282-27.519531-7.527344-30.898437-21.648437-4.34375-18.125-11.460937-35.378907-21.171875-51.269531-7.535156-12.339844-4.703125-28.269532 6.597656-37.050782l23.917969-18.613281-34.601563-34.601563-18.613281 23.917969c-8.789062 11.300781-24.710937 14.132813-37.050781 6.597657-15.882812-9.703126-33.136719-16.828126-51.269531-21.164063-14.121094-3.378906-23.421875-16.664063-21.648438-30.898437l4.257813-33.988282h-48.929688l4.25 33.988282c1.773438 14.234374-7.527344 27.519531-21.648437 30.898437-18.132813 4.34375-35.378907 11.46875-51.261719 21.164063-12.339844 7.542968-28.269531 4.703124-37.058594-6.597657l-18.613281-23.925781-34.601563 34.601562 23.925782 18.613282c11.292968 8.777344 14.132812 24.710937 6.597656 37.050781-9.703125 15.898437-16.828125 33.144531-21.171875 51.265625-3.378906 14.125-16.683594 23.417969-30.898437 21.652344l-33.988282-4.242188v48.929688l33.988282-4.25c14.25-1.78125 27.519531 7.527344 30.898437 21.648437 4.34375 18.125 11.460937 35.378907 21.171875 51.269531 7.535156 12.339844 4.703125 28.269532-6.597656 37.050782l-23.925782 18.613281 34.601563 34.601563 18.613281-23.925782c8.78125-11.300781 24.710938-14.132812 37.050782-6.597656 15.878906 9.703125 33.125 16.820312 51.269531 21.164062 14.121093 3.378907 23.421875 16.664063 21.648437 30.898438zm0 0"/></svg>