<svg height="512pt" viewBox="0 0 512 512" width="512pt" xmlns="http://www.w3.org/2000/svg"><path d="m256 426.667969c-94.105469 0-170.667969-76.5625-170.667969-170.667969s76.5625-170.667969 170.667969-170.667969 170.667969 76.5625 170.667969 170.667969-76.5625 170.667969-170.667969 170.667969zm0-324.269531c-84.691406 0-153.601562 68.910156-153.601562 153.601562s68.910156 153.601562 153.601562 153.601562 153.601562-68.910156 153.601562-153.601562-68.910156-153.601562-153.601562-153.601562zm0 0"/><path d="m256 512c-4.710938 0-8.535156-3.824219-8.535156-8.535156v-51.199219c0-4.710937 3.824218-8.53125 8.535156-8.53125s8.535156 3.820313 8.535156 8.53125v51.199219c0 4.710937-3.824218 8.535156-8.535156 8.535156zm0 0"/><path d="m256 68.265625c-4.710938 0-8.535156-3.820313-8.535156-8.53125v-51.199219c0-4.710937 3.824218-8.535156 8.535156-8.535156s8.535156 3.824219 8.535156 8.535156v51.199219c0 4.710937-3.824218 8.53125-8.535156 8.53125zm0 0"/><path d="m59.734375 264.535156h-51.199219c-4.710937 0-8.535156-3.824218-8.535156-8.535156s3.824219-8.535156 8.535156-8.535156h51.199219c4.710937 0 8.53125 3.824218 8.53125 8.535156s-3.820313 8.535156-8.53125 8.535156zm0 0"/><path d="m503.464844 264.535156h-51.199219c-4.710937 0-8.53125-3.824218-8.53125-8.535156s3.820313-8.535156 8.53125-8.535156h51.199219c4.710937 0 8.535156 3.824218 8.535156 8.535156s-3.824219 8.535156-8.535156 8.535156zm0 0"/><path d="m430.984375 439.519531c-2.183594 0-4.367187-.839843-6.03125-2.5l-36.199219-36.199219c-3.335937-3.335937-3.335937-8.730468 0-12.066406 3.335938-3.335937 8.730469-3.335937 12.066406 0l36.199219 36.199219c3.335938 3.335937 3.335938 8.726563 0 12.066406-1.664062 1.660157-3.851562 2.5-6.035156 2.5zm0 0"/><path d="m117.214844 125.746094c-2.183594 0-4.371094-.835938-6.035156-2.5l-36.199219-36.199219c-3.335938-3.335937-3.335938-8.726563 0-12.066406 3.339843-3.335938 8.730469-3.335938 12.066406 0l36.199219 36.199219c3.335937 3.335937 3.335937 8.730468 0 12.066406-1.664063 1.671875-3.847656 2.5-6.03125 2.5zm0 0"/><path d="m81.015625 439.519531c-2.183594 0-4.371094-.839843-6.035156-2.5-3.335938-3.339843-3.335938-8.730469 0-12.066406l36.199219-36.199219c3.335937-3.335937 8.730468-3.335937 12.066406 0 3.335937 3.335938 3.335937 8.730469 0 12.066406l-36.199219 36.199219c-1.664063 1.660157-3.847656 2.5-6.03125 2.5zm0 0"/><path d="m394.785156 125.746094c-2.183594 0-4.367187-.835938-6.03125-2.5-3.335937-3.335938-3.335937-8.730469 0-12.066406l36.199219-36.199219c3.335937-3.335938 8.726563-3.335938 12.066406 0 3.335938 3.339843 3.335938 8.730469 0 12.066406l-36.199219 36.199219c-1.671874 1.671875-3.851562 2.5-6.035156 2.5zm0 0"/><path d="m256 324.265625c-32.9375 0-59.734375-26.792969-59.734375-59.730469v-25.601562c0-4.710938 3.824219-8.535156 8.535156-8.535156 4.710938 0 8.53125 3.824218 8.53125 8.535156v25.601562c0 23.523438 19.140625 42.664063 42.667969 42.664063s42.667969-19.140625 42.667969-42.664063c0-23.527344-19.140625-42.667968-42.667969-42.667968-4.710938 0-8.535156-3.824219-8.535156-8.535157 0-4.710937 3.824218-8.53125 8.535156-8.53125 32.9375 0 59.734375 26.792969 59.734375 59.734375 0 32.9375-26.796875 59.730469-59.734375 59.730469zm0 0"/><path d="m179.199219 273.066406c-2.183594 0-4.367188-.835937-6.03125-2.5-3.335938-3.335937-3.335938-8.730468 0-12.066406l25.597656-25.601562c3.335937-3.335938 8.730469-3.335938 12.066406 0 3.335938 3.339843 3.335938 8.730468 0 12.066406l-25.597656 25.601562c-1.664063 1.664063-3.851563 2.5-6.035156 2.5zm0 0"/><path d="m230.398438 273.066406c-2.183594 0-4.367188-.835937-6.03125-2.5l-25.601563-25.601562c-3.335937-3.335938-3.335937-8.726563 0-12.066406 3.335937-3.335938 8.730469-3.335938 12.066406 0l25.601563 25.601562c3.335937 3.335938 3.335937 8.730469 0 12.066406-1.664063 1.664063-3.847656 2.5-6.035156 2.5zm0 0"/><path d="m256 384c-70.578125 0-128-57.421875-128-128s57.421875-128 128-128 128 57.421875 128 128-57.421875 128-128 128zm0-238.933594c-61.167969 0-110.933594 49.765625-110.933594 110.933594s49.765625 110.933594 110.933594 110.933594 110.933594-49.765625 110.933594-110.933594-49.765625-110.933594-110.933594-110.933594zm0 0"/></svg>