<svg height="512pt" viewBox="-6 0 512 512.00213" width="512pt" xmlns="http://www.w3.org/2000/svg"><path d="m213.746094 512.003906c-2.261719 0-4.441406-.898437-6.035156-2.503906l-205.207032-205.214844c-3.320312-3.320312-3.339844-8.699218-.035156-12.035156l252.382812-255.570312c1.605469-1.621094 3.792969-2.535157 6.070313-2.535157h196.324219c4.710937 0 8.535156 3.824219 8.535156 8.535157v204.859374c0 2.195313-.847656 4.292969-2.347656 5.882813l-243.5 255.925781c-1.589844 1.664063-3.78125 2.621094-6.078125 2.65625-.035157 0-.078125 0-.109375 0zm-193.183594-213.789062 193.027344 193.027344 235.117187-247.117188v-192.910156h-184.21875zm0 0"/><path d="m371.886719 136.574219c-2.183594 0-4.371094-.835938-6.035157-2.5-3.335937-3.339844-3.335937-8.734375 0-12.070313l119.5-119.5c3.339844-3.339844 8.734376-3.339844 12.070313 0 3.335937 3.335938 3.335937 8.730469 0 12.070313l-119.5 119.5c-1.664063 1.664062-3.851563 2.5-6.035156 2.5zm0 0"/><path d="m371.886719 170.71875c-23.53125 0-42.679688-19.148438-42.679688-42.679688 0-23.535156 19.148438-42.679687 42.679688-42.679687s42.679687 19.144531 42.679687 42.679687c0 23.53125-19.148437 42.679688-42.679687 42.679688zm0-68.289062c-14.117188 0-25.605469 11.492187-25.605469 25.609374 0 14.117188 11.488281 25.605469 25.605469 25.605469 14.117187 0 25.605469-11.488281 25.605469-25.605469 0-14.117187-11.488282-25.609374-25.605469-25.609374zm0 0"/><path d="m226.777344 401.039062c-65.894532 0-119.5-53.605468-119.5-119.503906 0-65.894531 53.605468-119.5 119.5-119.5 65.898437 0 119.503906 53.605469 119.503906 119.5 0 65.898438-53.605469 119.503906-119.503906 119.503906zm0-221.929687c-56.480469 0-102.425782 45.945313-102.425782 102.425781 0 56.484375 45.945313 102.429688 102.425782 102.429688 56.484375 0 102.429687-45.945313 102.429687-102.429688 0-56.480468-45.945312-102.425781-102.429687-102.425781zm0 0"/><path d="m167.027344 315.679688h-48.125c-3.949219 0-7.390625-2.714844-8.304688-6.574219-2.199218-9.292969-3.320312-18.570313-3.320312-27.570313 0-43.15625 23.449218-83.109375 61.195312-104.261718 3.34375-1.863282 7.511719-1.28125 10.207032 1.417968l37.0625 37.058594c1.605468 1.605469 2.5 3.773438 2.5 6.035156v25.609375c0 2.261719-.894532 4.4375-2.5 6.035157l-32.71875 32.714843-7.894532 23.695313c-1.160156 3.492187-4.421875 5.839844-8.101562 5.839844zm-41.167969-17.070313h35.023437l6.589844-19.769531c.417969-1.253906 1.125-2.398438 2.066406-3.335938l31.640626-31.644531v-18.539063l-29.847657-29.847656c-29.132812 18.800782-46.972656 51.210938-46.972656 86.0625-.007813 5.574219.503906 11.292969 1.5 17.074219zm0 0"/><path d="m312.136719 290.074219c-1.648438 0-3.296875-.472657-4.738281-1.4375l-25.605469-17.070313c-1.238281-.828125-2.238281-1.953125-2.902344-3.285156l-8.535156-17.070312c-.589844-1.1875-.898438-2.492188-.898438-3.816407v-34.144531c0-1.082031.207031-2.160156.605469-3.175781l9.757812-24.375c.957032-2.382813 2.925782-4.210938 5.378907-4.976563 2.441406-.761718 5.101562-.394531 7.246093 1.015625 26.820313 17.675781 45.640626 45.835938 51.648438 77.238281.5625 2.953126-.46875 5.992188-2.714844 7.988282l-23.566406 20.949218c-1.613281 1.425782-3.636719 2.160157-5.675781 2.160157zm-18.984375-31.457031 18.242187 12.15625 14.917969-13.265626c-5.214844-21.59375-17.53125-41.117187-34.730469-55.234374l-5.042969 12.617187v30.488281zm0 0"/><path d="m226.777344 401.039062c-19.398438 0-37.992188-4.578124-55.242188-13.589843-3.882812-2.03125-5.597656-6.667969-3.96875-10.738281l8.613282-21.519532c.425781-1.066406 1.066406-2.046875 1.886718-2.859375l25.605469-25.605469c1.605469-1.605468 3.773437-2.503906 6.035156-2.503906h24.558594l33.117187-8.277344c1.980469-.503906 4.0625-.265624 5.890626.648438l17.070312 8.535156c1.332031.664063 2.460938 1.664063 3.289062 2.902344l18.367188 27.5625c2.261719 3.398438 1.808594 7.921875-1.09375 10.796875-22.535156 22.339844-52.417969 34.648437-84.128906 34.648437zm-40.390625-25.414062c12.796875 5.53125 26.34375 8.339844 40.390625 8.339844 24.839844 0 48.375-8.816406 66.988281-24.964844l-13.082031-19.625-12.222656-6.113281-31.082032 7.769531c-.679687.171875-1.371094.253906-2.074218.253906h-22.070313l-21.871094 21.871094zm0 0"/></svg>