<?xml version="1.0" encoding="iso-8859-1"?>
<!-- Generator: Adobe Illustrator 22.0.0, SVG Export Plug-In . SVG Version: 6.00 Build 0)  -->
<svg xmlns="http://www.w3.org/2000/svg" xmlns:xlink="http://www.w3.org/1999/xlink" version="1.1" x="0px" y="0px" viewBox="0 0 49 60" style="enable-background:new 0 0 49 60;" xml:space="preserve" width="512" height="512">
<g id="_x35_0-Biology_Manual">
	<path style="fill:#B02721;" d="M9,1C8.661,1,8.329,1.028,8,1.07C5.757,1.081,3.437,2.948,2.281,4.749C1.283,6.304,1,7.982,1,9.794   c0,2.29,0,4.581,0,6.871c0,3.517,0,7.034,0,10.55c0,3.365,0,6.73,0,10.094c0,1.835,0,3.669,0,5.504v6.167   C1,50.091,1.909,51,3.019,51H16h6h25V41V1H9z"/>
	<path style="fill:#F2ECBF;" d="M9,41c-4.4,0-8,3.6-8,8c0,4.4,3.6,8,8,8h7h6h26V41H9z"/>
	<path style="fill:#C6B864;" d="M9,45c-2.206,0-4,1.794-4,4s1.794,4,4,4h7v-4h6v4h26v-8H9z"/>
	<path style="fill:#DD352E;" d="M1,9v40c0-4.4,3.6-8,8-8h39V1H9C4.6,1,1,4.6,1,9z"/>
	<path style="fill:#B02721;" d="M8,1.07C4.068,1.567,1,4.939,1,9v40c0-4.061,3.068-7.433,7-7.93V1.07z"/>
	<path style="fill:#870000;" d="M1,15.86V22c0-4.061,3.068-7.433,7-7.93V7.93C4.068,8.427,1,11.799,1,15.86z"/>
	<path style="fill:#870000;" d="M1,31.93v6.14c0-4.061,3.068-7.433,7-7.93V24C4.068,24.497,1,27.869,1,31.93z"/>
	<polygon style="fill:#366DB6;" points="22,59 19,56 16,59 16,48 22,48  "/>
	<circle style="fill:#FFFFFF;" cx="28" cy="21" r="16"/>
	<path style="fill:#1A9172;" d="M28,21h-4.604C21.521,21,20,19.479,20,17.604V13h4.604C26.479,13,28,14.521,28,16.396V21z"/>
	<path style="fill:#23A24D;" d="M28,21h4.604C34.479,21,36,19.479,36,17.604V13h-4.604C29.521,13,28,14.521,28,16.396V21z"/>
	<path style="fill:#6C4127;" d="M33,31H23v0c0-2.209,1.791-4,4-4h2C31.209,27,33,28.791,33,31L33,31z"/>
	<path style="fill:#4D007E;" d="M1,50c-0.552,0-1-0.447-1-1V9c0-4.963,4.038-9,9-9h39c0.552,0,1,0.447,1,1v40c0,0.553-0.448,1-1,1H9   c-3.86,0-7,3.141-7,7C2,49.553,1.552,50,1,50z M9,2C5.14,2,2,5.141,2,9v34.349C3.651,41.308,6.176,40,9,40h38V2H9z"/>
	<path style="fill:#4D007E;" d="M16,50H9c-0.552,0-1-0.447-1-1s0.448-1,1-1h7c0.552,0,1,0.447,1,1S16.552,50,16,50z"/>
	<path style="fill:#4D007E;" d="M28,50h-6c-0.552,0-1-0.447-1-1s0.448-1,1-1h6c0.552,0,1,0.447,1,1S28.552,50,28,50z"/>
	<path style="fill:#4D007E;" d="M48,50h-5c-0.552,0-1-0.447-1-1s0.448-1,1-1h5c0.552,0,1,0.447,1,1S48.552,50,48,50z"/>
	<path style="fill:#4D007E;" d="M1,50c-0.552,0-1-0.447-1-1V9c0-4.519,3.385-8.354,7.875-8.922C8.162,0.044,8.446,0.13,8.661,0.32   C8.876,0.51,9,0.783,9,1.07v40c0,0.504-0.375,0.929-0.875,0.992C4.633,42.504,2,45.486,2,49C2,49.553,1.552,50,1,50z M7,2.3   C4.083,3.171,2,5.875,2,9v34.357c1.243-1.537,2.986-2.665,5-3.125V2.3z"/>
	<path style="fill:#4D007E;" d="M1,23c-0.552,0-1-0.447-1-1v-6.14c0-4.52,3.385-8.355,7.875-8.923   C8.162,6.902,8.446,6.99,8.661,7.18C8.876,7.369,9,7.643,9,7.93v6.141c0,0.504-0.375,0.929-0.875,0.992C4.633,15.504,2,18.486,2,22   C2,22.553,1.552,23,1,23z M7,9.159c-2.917,0.871-5,3.576-5,6.701v0.497c1.243-1.537,2.986-2.665,5-3.125V9.159z"/>
	<path style="fill:#4D007E;" d="M1,39.07c-0.552,0-1-0.447-1-1V31.93c0-4.519,3.385-8.354,7.875-8.922   c0.287-0.035,0.572,0.053,0.787,0.242C8.876,23.439,9,23.713,9,24v6.14c0,0.504-0.375,0.929-0.875,0.992   C4.633,31.573,2,34.557,2,38.07C2,38.623,1.552,39.07,1,39.07z M7,25.229c-2.917,0.871-5,3.575-5,6.7v0.498   c1.243-1.538,2.986-2.666,5-3.126V25.229z"/>
	<path style="fill:#4D007E;" d="M22,60c-0.26,0-0.516-0.102-0.707-0.293L19,57.414l-2.293,2.293   c-0.286,0.286-0.716,0.372-1.09,0.217C15.244,59.77,15,59.404,15,59V49c0-0.553,0.448-1,1-1h6c0.552,0,1,0.447,1,1v10   c0,0.404-0.244,0.77-0.617,0.924C22.259,59.976,22.129,60,22,60z M19,55c0.256,0,0.512,0.098,0.707,0.293L21,56.586V50h-4v6.586   l1.293-1.293C18.488,55.098,18.744,55,19,55z"/>
	<path style="fill:#4D007E;" d="M48,54H22c-0.552,0-1-0.447-1-1v-3h-4v3c0,0.553-0.448,1-1,1H9c-2.757,0-5-2.243-5-5s2.243-5,5-5h39   c0.552,0,1,0.447,1,1v8C49,53.553,48.552,54,48,54z M23,52h24v-6H9c-1.654,0-3,1.346-3,3s1.346,3,3,3h6v-3c0-0.553,0.448-1,1-1h6   c0.552,0,1,0.447,1,1V52z"/>
	<g>
		<path style="fill:#4D007E;" d="M48,58H22c-0.552,0-1-0.447-1-1v-7h-4v7c0,0.553-0.448,1-1,1H9c-4.962,0-9-4.037-9-9s4.038-9,9-9    h39c0.552,0,1,0.447,1,1v16C49,57.553,48.552,58,48,58z M23,56h24V42H9c-3.86,0-7,3.141-7,7s3.14,7,7,7h6v-7c0-0.553,0.448-1,1-1    h6c0.552,0,1,0.447,1,1V56z"/>
	</g>
	<path style="fill:#4D007E;" d="M28,38c-9.374,0-17-7.626-17-17S18.626,4,28,4s17,7.626,17,17S37.374,38,28,38z M28,6   c-8.271,0-15,6.729-15,15s6.729,15,15,15s15-6.729,15-15S36.271,6,28,6z"/>
	<path style="fill:#4D007E;" d="M28,22h-4.604C20.972,22,19,20.027,19,17.604V13c0-0.553,0.448-1,1-1h4.604   C27.028,12,29,13.973,29,16.396V21C29,21.553,28.552,22,28,22z M21,14v3.604C21,18.925,22.075,20,23.396,20H27v-3.604   C27,15.075,25.925,14,24.604,14H21z"/>
	<path style="fill:#4D007E;" d="M28,22c-0.256,0-0.512-0.098-0.707-0.293l-4-4c-0.391-0.391-0.391-1.023,0-1.414   c0.391-0.391,1.023-0.391,1.414,0l4,4c0.391,0.391,0.391,1.023,0,1.414C28.512,21.902,28.256,22,28,22z"/>
	<path style="fill:#4D007E;" d="M32.604,22H28c-0.552,0-1-0.447-1-1v-4.604C27,13.973,28.972,12,31.396,12H36c0.552,0,1,0.447,1,1   v4.604C37,20.027,35.028,22,32.604,22z M29,20h3.604C33.925,20,35,18.925,35,17.604V14h-3.604C30.075,14,29,15.075,29,16.396V20z"/>
	<path style="fill:#4D007E;" d="M28,22c-0.256,0-0.512-0.098-0.707-0.293c-0.391-0.391-0.391-1.023,0-1.414l4-4   c0.391-0.391,1.023-0.391,1.414,0c0.391,0.391,0.391,1.023,0,1.414l-4,4C28.512,21.902,28.256,22,28,22z"/>
	<path style="fill:#4D007E;" d="M28,28c-0.552,0-1-0.447-1-1v-6c0-0.553,0.448-1,1-1s1,0.447,1,1v6C29,27.553,28.552,28,28,28z"/>
	<path style="fill:#4D007E;" d="M33,32H23c-0.552,0-1-0.447-1-1c0-2.757,2.243-5,5-5h2c2.757,0,5,2.243,5,5   C34,31.553,33.552,32,33,32z M24.171,30h7.657c-0.413-1.164-1.525-2-2.829-2h-2C25.696,28,24.584,28.836,24.171,30z"/>
</g>

</svg>
