<?xml version="1.0" encoding="iso-8859-1"?>
<!-- Generator: Adobe Illustrator 19.0.0, SVG Export Plug-In . SVG Version: 6.00 Build 0)  -->
<svg version="1.1" id="Capa_1" xmlns="http://www.w3.org/2000/svg" xmlns:xlink="http://www.w3.org/1999/xlink" x="0px" y="0px"
	 viewBox="0 0 512 512" style="enable-background:new 0 0 512 512;" xml:space="preserve">
<path style="fill:#FFC66C;" d="M485.903,501.995L288.527,304.619c-17.964-17.964-47.09-17.964-65.054,0L26.097,501.995H485.903z"/>
<path style="fill:#A0E557;" d="M58,501.995H10v-94.024c0-30.652,24.848-55.5,55.5-55.5h97c30.652,0,55.5,24.848,55.5,55.5v94.024
	h-48"/>
<path style="fill:#FCC69D;" d="M114,256.471L114,256.471c-22.613,0-40.944,18.331-40.944,40.944v14.113
	c0,22.612,18.331,40.944,40.944,40.944l0,0c22.612,0,40.944-18.331,40.944-40.944v-14.113
	C154.944,274.802,136.613,256.471,114,256.471z"/>
<path style="fill:#72D8FF;" d="M342,501.995h-48v-94.024c0-30.652,24.848-55.5,55.5-55.5h97c30.652,0,55.5,24.848,55.5,55.5v94.024
	h-48"/>
<path style="fill:#FCC69D;" d="M398,256.471L398,256.471c-22.613,0-40.944,18.331-40.944,40.944v14.113
	c0,22.612,18.331,40.944,40.944,40.944l0,0c22.613,0,40.944-18.331,40.944-40.944v-14.113
	C438.944,274.802,420.613,256.471,398,256.471z"/>
<g>
	<path style="fill:#62CD4D;" d="M255.965,159.662v-0.021c-0.19-0.133-41.389-33.835-41.002-75.062
		c0.397-41.241,40.825-74.426,41.002-74.573V9.995v0.016v-0.01v0.012c0.341,0.282,43.17,33.908,42.783,75.068
		C298.362,126.41,255.965,159.662,255.965,159.662z"/>
	<path style="fill:#62CD4D;" d="M286.187,229.549l0.014-0.014c-0.039-0.219-5.108-50.87,23.033-78.489
		c28.158-27.621,77.939-22.723,78.158-22.702l0.007-0.007l-0.011,0.011l0.007-0.007l-0.008,0.008
		c0.04,0.421,6.263,52.125-21.833,79.698C337.346,235.734,286.187,229.549,286.187,229.549z"/>
</g>
<path style="fill:#A0E557;" d="M145.98,206.386c-27.514-27.001-21.42-77.633-21.381-78.045l-0.008-0.008l0.006,0.006l-0.011-0.011
	l0.007,0.007c0.215-0.02,48.964-4.816,76.538,22.232c27.558,27.046,22.594,76.648,22.556,76.862l0.014,0.014
	C223.702,227.443,173.604,233.5,145.98,206.386z"/>
<path d="M446.5,342.471h-8.07c6.586-8.585,10.514-19.312,10.514-30.943v-14.112c0-28.091-22.854-50.944-50.943-50.944
	s-50.943,22.854-50.943,50.944v14.112c0,11.632,3.927,22.358,10.514,30.943h-8.07c-2.854,0-5.661,0.204-8.42,0.56l-45.037-45.038
	c-8.463-8.462-18.962-13.669-29.934-15.644c0.004-0.118,0.018-0.234,0.018-0.353v-18.252l23.846-23.846
	c2.278,0.138,5.24,0.257,8.723,0.257c18.576,0,51.849-3.363,73.863-24.971c29.578-29.027,25.634-79.604,24.823-87.426
	c-0.138-2.362-1.109-4.685-2.914-6.489c-1.778-1.779-4.061-2.747-6.389-2.904c-4.498-0.392-55.643-4.085-85.849,25.544
	c-25.887,25.405-26.861,66.752-26.262,81.708l-9.842,9.842v-71.298c11.28-9.989,42.265-40.872,42.621-78.984
	c0.405-43.137-39.812-77.512-46.129-82.643c-1.768-1.575-4.1-2.532-6.654-2.532c-2.519,0-4.819,0.932-6.577,2.469
	c-3.614,3.037-44,37.96-44.425,82.016c-0.359,38.332,29.938,69.575,41.164,79.801v71.425l-12.209-12.209
	c0.581-14.766-0.431-55.191-25.783-80.073c-29.41-28.849-78.946-25.517-84.081-25.084c-2.271,0.122-4.51,1.015-6.295,2.685
	c-1.926,1.802-2.982,4.191-3.145,6.638c-0.77,7.333-4.79,57.248,24.36,85.856c21.613,21.213,54.265,24.513,72.486,24.513
	c3.366,0,6.238-0.113,8.459-0.246L246.127,264v17.999c0,0.105,0.013,0.206,0.016,0.31c-11.063,1.94-21.658,7.159-30.186,15.687
	l-45.037,45.038c-2.759-0.356-5.565-0.56-8.42-0.56h-8.07c6.586-8.585,10.514-19.312,10.514-30.943v-14.112
	c0-28.091-22.854-50.944-50.943-50.944s-50.943,22.854-50.943,50.944v14.112c0,11.632,3.927,22.358,10.514,30.943H65.5
	c-36.117,0-65.5,29.383-65.5,65.5v94.024c0,5.522,4.478,10,10,10h208c5.522,0,10-4.478,10-10v-94.024
	c0-25.319-14.449-47.312-35.526-58.209l37.625-37.626c14.282-14.281,37.521-14.28,51.801,0l37.625,37.626
	C298.449,360.659,284,382.652,284,407.971v94.024c0,5.522,4.478,10,10,10h208c5.522,0,10-4.478,10-10v-94.024
	C512,371.853,482.617,342.471,446.5,342.471z M316.238,158.184c17.954-17.611,47.291-20.092,61.717-20.156
	c0.339,14.795-1.392,45.204-19.405,62.882c-13.241,12.995-32.975,17.403-48.304,18.715l17.192-17.192
	c3.905-3.905,3.905-10.237,0-14.143c-3.906-3.904-10.236-3.904-14.143,0l-16.653,16.653
	C298.333,189.942,303.196,170.982,316.238,158.184z M152.984,199.249L152.984,199.249c-17.506-17.179-19.257-46.701-18.944-61.228
	c14.126,0.079,42.614,2.544,60.087,19.683c12.557,12.323,17.346,30.507,19.059,45.066l-12.314-12.314
	c-3.906-3.904-10.236-3.904-14.143,0c-3.905,3.905-3.905,10.237,0,14.143l12.924,12.924
	C184.774,216.205,165.824,211.851,152.984,199.249z M83.057,311.527v-14.112c0-17.063,13.881-30.944,30.943-30.944
	s30.943,13.882,30.943,30.944v14.112c0,17.063-13.881,30.943-30.943,30.943S83.057,328.59,83.057,311.527z M208,407.971v84.024h-28
	v-75.472c0-5.522-4.478-10-10-10s-10,4.478-10,10v75.472H68v-75.472c0-5.522-4.478-10-10-10s-10,4.478-10,10v75.472H20v-84.024
	c0-25.089,20.411-45.5,45.5-45.5h97C187.589,362.471,208,382.882,208,407.971z M224.963,84.676
	c0.257-26.73,20.596-50.567,31.173-61.169C267.282,34.092,289,58.183,288.748,84.988c-0.186,19.93-12.037,38.21-22.621,50.595
	v-33.588c0-5.522-4.478-10-10-10s-10,4.478-10,10v33.245C235.963,122.798,224.776,104.559,224.963,84.676z M367.057,311.527v-14.112
	c0-17.063,13.881-30.944,30.943-30.944s30.943,13.882,30.943,30.944v14.112c0,17.063-13.881,30.943-30.943,30.943
	S367.057,328.59,367.057,311.527z M492,491.995h-28v-37c0-5.522-4.478-10-10-10s-10,4.478-10,10v37h-92v-75.472
	c0-5.522-4.478-10-10-10s-10,4.478-10,10v75.472h-28v-84.024c0-25.089,20.411-45.5,45.5-45.5h97c25.089,0,45.5,20.411,45.5,45.5
	V491.995z"/>
<path d="M454,406.525c-2.63,0-5.21,1.069-7.07,2.93c-1.86,1.859-2.93,4.439-2.93,7.07c0,2.63,1.069,5.21,2.93,7.069
	c1.86,1.86,4.44,2.931,7.07,2.931s5.21-1.07,7.069-2.931c1.86-1.859,2.931-4.439,2.931-7.069c0-2.631-1.07-5.211-2.931-7.07
	C459.21,407.595,456.63,406.525,454,406.525z"/>
<polygon points="138.976,213.523 138.975,213.523 138.975,213.522 "/>
<path d="M73.057,50.425c5.522,0,10-4.478,10-10v-12.43c0-5.522-4.478-10-10-10s-10,4.478-10,10v12.43
	C63.057,45.947,67.534,50.425,73.057,50.425z"/>
<path d="M73.057,109.995c5.522,0,10-4.478,10-10v-12.43c0-5.522-4.478-10-10-10s-10,4.478-10,10v12.43
	C63.057,105.518,67.534,109.995,73.057,109.995z"/>
<path d="M96.626,73.995h12.431c5.522,0,10-4.478,10-10s-4.478-10-10-10H96.626c-5.522,0-10,4.478-10,10S91.104,73.995,96.626,73.995
	z"/>
<path d="M37.057,73.995h12.43c5.522,0,10-4.478,10-10s-4.478-10-10-10h-12.43c-5.522,0-10,4.478-10,10S31.534,73.995,37.057,73.995z
	"/>
<path d="M466,176.152c5.522,0,10-4.478,10-10v-12.43c0-5.522-4.478-10-10-10s-10,4.478-10,10v12.43
	C456,171.675,460.478,176.152,466,176.152z"/>
<path d="M466,235.723c5.522,0,10-4.478,10-10v-12.431c0-5.522-4.478-10-10-10s-10,4.478-10,10v12.431
	C456,231.245,460.478,235.723,466,235.723z"/>
<path d="M489.57,199.723H502c5.522,0,10-4.478,10-10s-4.478-10-10-10h-12.43c-5.522,0-10,4.478-10,10
	S484.048,199.723,489.57,199.723z"/>
<path d="M430,199.723h12.43c5.522,0,10-4.478,10-10s-4.478-10-10-10H430c-5.522,0-10,4.478-10,10S424.478,199.723,430,199.723z"/>
<g>
</g>
<g>
</g>
<g>
</g>
<g>
</g>
<g>
</g>
<g>
</g>
<g>
</g>
<g>
</g>
<g>
</g>
<g>
</g>
<g>
</g>
<g>
</g>
<g>
</g>
<g>
</g>
<g>
</g>
</svg>
