<?xml version="1.0" encoding="iso-8859-1"?>
<!-- Generator: Adobe Illustrator 19.0.0, SVG Export Plug-In . SVG Version: 6.00 Build 0)  -->
<svg version="1.1" id="Capa_1" xmlns="http://www.w3.org/2000/svg" xmlns:xlink="http://www.w3.org/1999/xlink" x="0px" y="0px"
	 viewBox="0 0 512.001 512.001" style="enable-background:new 0 0 512.001 512.001;" xml:space="preserve">
<polygon style="fill:#CAE8F9;" points="451.982,138.011 451.982,481.98 60.018,481.98 60.018,138.011 256,34.52 "/>
<polygon style="fill:#A4D9F5;" points="451.982,138.011 451.982,481.98 256,481.98 256,34.52 "/>
<path style="fill:#896748;" d="M270.999,344.992v121.989c0,8.398-6.598,14.999-14.999,14.999c-8.4,0-14.999-6.6-14.999-14.999
	V344.992c0-8.4,6.598-14.999,14.999-14.999C264.401,329.994,270.999,336.592,270.999,344.992z"/>
<path style="fill:#FD6243;" d="M508.077,165.009c-7.799,13.798-27.596,18.598-41.096,11.099L256,64.517L45.02,176.108
	c-14.699,8.398-32.996,2.999-41.096-11.099c-8.1-14.4-3.3-32.698,11.099-41.096L241.002,3.923c4.501-2.401,9.9-3.9,14.999-3.9
	c5.099,0,10.498,1.5,14.999,3.9l225.979,119.989C511.377,132.312,516.177,150.609,508.077,165.009z"/>
<path style="fill:#57555C;" d="M481.98,481.98v14.999c0,8.398-6.598,14.999-14.999,14.999H45.02c-8.4,0-14.999-6.6-14.999-14.999
	V481.98c0-16.498,13.499-29.997,29.997-29.997h391.964C468.481,451.982,481.98,465.482,481.98,481.98z"/>
<path style="fill:#73553A;" d="M270.999,344.992v121.989c0,8.398-6.598,14.999-14.999,14.999V329.994
	C264.401,329.994,270.999,336.592,270.999,344.992z"/>
<path style="fill:#3C3A41;" d="M481.98,481.98v14.999c0,8.398-6.598,14.999-14.999,14.999H256v-59.994h195.982
	C468.481,451.982,481.98,465.482,481.98,481.98z"/>
<path style="fill:#FD3018;" d="M508.077,165.009c-7.799,13.798-27.596,18.598-41.096,11.099L256,64.517V0.024
	c5.099,0,10.498,1.5,14.999,3.9l225.979,119.989C511.377,132.312,516.177,150.609,508.077,165.009z"/>
<path style="fill:#32D736;" d="M375.989,210.005h-29.997c-38.397,0-71.693,20.998-89.992,51.894
	c-18.298-30.896-51.594-51.894-89.992-51.894h-29.997c-8.4,0-14.999,6.598-14.999,14.999V255c0,57.895,47.096,104.99,104.99,104.99
	h59.994c57.895,0,104.99-47.096,104.99-104.99v-29.997C390.988,216.603,384.39,210.005,375.989,210.005z"/>
<path style="fill:#0CA656;" d="M285.998,359.991H256v-98.092c18.298-30.896,51.594-51.894,89.992-51.894h29.997
	c8.4,0,14.999,6.598,14.999,14.999V255C390.988,312.895,343.892,359.991,285.998,359.991z"/>
<g>
</g>
<g>
</g>
<g>
</g>
<g>
</g>
<g>
</g>
<g>
</g>
<g>
</g>
<g>
</g>
<g>
</g>
<g>
</g>
<g>
</g>
<g>
</g>
<g>
</g>
<g>
</g>
<g>
</g>
</svg>
