<svg height="512pt" viewBox="0 0 512 512" width="512pt" xmlns="http://www.w3.org/2000/svg"><path d="m398.078125 202.492188h-90.65625v128.691406h105.210937c8.035157 0 14.550782-6.515625 14.550782-14.554688v-85.027344c0-16.078124-13.03125-29.109374-29.105469-29.109374zm0 0" fill="#35ad34"/><path d="m398.0625 202.492188h-38.828125c16.085937 0 29.121094 13.027343 29.121094 29.097656v85.046875c0 8.035156-6.515625 14.546875-14.558594 14.546875h38.828125c8.039062 0 14.558594-6.511719 14.558594-14.546875v-85.046875c0-16.070313-13.035156-29.097656-29.121094-29.097656zm0 0" fill="#2c8f2b"/><path d="m401.605469 269.359375h25.578125v-37.769531l-34.316406-.054688c-8.039063 0-14.558594 6.511719-14.558594 14.546875 0 12.855469 10.429687 23.277344 23.296875 23.277344zm0 0" fill="#d5f1fe"/><path d="m318.96875 331.183594h-204.21875c-8.039062 0-14.554688-6.519532-14.554688-14.554688v-145.757812c0-8.035156 6.515626-14.550782 14.554688-14.550782h189.664062c8.035157 0 14.554688 6.515626 14.554688 14.550782zm0 0" fill="#e6e6e6"/><path d="m304.40625 156.320312h-38.828125c8.039063 0 14.558594 6.511719 14.558594 14.546876v160.316406h38.832031v-160.316406c0-8.035157-6.519531-14.546876-14.5625-14.546876zm0 0" fill="#acbac2"/><path d="m195.609375 331.183594c0-18.75-15.210937-33.945313-33.976563-33.945313-18.761718 0-33.972656 15.195313-33.972656 33.945313 0 18.746094 15.210938 33.945312 33.972656 33.945312 18.765626 0 33.976563-15.199218 33.976563-33.945312zm0 0" fill="#39474f"/><path d="m397.761719 331.183594c0-18.75-15.210938-33.945313-33.976563-33.945313-18.761718 0-33.972656 15.195313-33.972656 33.945313 0 18.746094 15.210938 33.945312 33.972656 33.945312 18.765625 0 33.976563-15.199218 33.976563-33.945312zm0 0" fill="#39474f"/><path d="m256 7.5c-137.242188 0-248.5 111.160156-248.5 248.28125s111.257812 248.277344 248.5 248.277344 248.5-111.15625 248.5-248.277344-111.257812-248.28125-248.5-248.28125zm-209.785156 248.28125c0-50.773438 18.070312-97.324219 48.132812-133.597656l295.367188 295.105468c-36.304688 30.035157-82.898438 48.09375-133.714844 48.09375-115.863281 0-209.785156-93.84375-209.785156-209.601562zm370.996094 134.117188-295.449219-295.183594c36.378906-30.300782 83.175781-48.535156 134.238281-48.535156 115.863281 0 209.785156 93.839843 209.785156 209.601562 0 51.019531-18.25 97.773438-48.574218 134.117188zm0 0" fill="#e5554e"/><path d="m256 7.5c-6.5625 0-13.066406.257812-19.5.757812 118.824219 9.214844 214.191406 101.933594 227.414062 219.492188 1.226563 9.171875 1.871094 18.523438 1.871094 28.03125 0 9.660156-.65625 19.164062-1.921875 28.476562-13.414062 117.34375-108.6875 209.839844-227.363281 219.046876 6.433594.496093 12.9375.757812 19.5.757812 137.242188 0 248.5-111.160156 248.5-248.28125s-111.257812-248.28125-248.5-248.28125zm0 0" fill="#c62430"/><path d="m308.839844 325.886719c-.003906-.003907-.011719-.011719-.015625-.015625l-174.996094-174.839844c-.007813-.011719-.019531-.019531-.03125-.03125l-34.152344-34.121094c-1.492187-1.488281-3.53125-2.273437-5.652343-2.1875-2.105469.101563-4.074219 1.082032-5.421876 2.707032-32.148437 38.792968-49.855468 87.9375-49.855468 138.382812 0 54.832031 20.511718 107.183594 57.761718 147.40625 37.039063 39.996094 87.257813 64.480469 141.40625 68.949219.210938.019531.417969.023437.625.023437 3.863282 0 7.144532-2.964844 7.46875-6.882812.339844-4.128906-2.730468-7.75-6.859374-8.089844-50.402344-4.160156-97.152344-26.957031-131.636719-64.191406-34.671875-37.441406-53.765625-86.171875-53.765625-137.214844 0-44.199219 14.601562-87.328125 41.273437-122.351562l15.773438 15.757812c-10.265625 1.886719-18.066407 10.886719-18.066407 21.679688v55.382812c0 4.140625 3.355469 7.5 7.5 7.5 4.144532 0 7.5-3.359375 7.5-7.5v-55.382812c0-3.886719 3.167969-7.046876 7.0625-7.046876h10.648438l160.003906 159.863282h-82.996094c-3.542968-19.285156-20.476562-33.945313-40.78125-33.945313-20.304687 0-37.238281 14.660157-40.78125 33.945313h-6.09375c-3.894531 0-7.0625-3.164063-7.0625-7.050782v-55.382812c0-4.144531-3.355468-7.5-7.5-7.5-4.144531 0-7.5 3.355469-7.5 7.5v55.382812c0 12.15625 9.894532 22.050782 22.0625 22.050782h6.09375c3.546876 19.28125 20.476563 33.941406 40.78125 33.941406 20.304688 0 37.238282-14.660156 40.78125-33.941406h98.007813l78.039063 77.96875c-30.6875 23.378906-67.015626 37.351562-105.578126 40.535156-4.128906.339844-7.199218 3.960938-6.855468 8.089844.339844 4.128906 3.953125 7.191406 8.089844 6.859375 44.378906-3.664063 86.007812-20.628907 120.378906-49.066407 1.625-1.347656 2.609375-3.316406 2.710937-5.429687.097657-2.109375-.699219-4.164063-2.191406-5.65625zm-147.207032 31.742187c-14.597656 0-26.472656-11.863281-26.472656-26.445312 0-14.582032 11.875-26.445313 26.472656-26.445313 14.601563 0 26.476563 11.863281 26.476563 26.445313 0 14.582031-11.878906 26.445312-26.476563 26.445312zm0 0"/><path d="m409.644531 102.261719c-41.042969-41-95.605469-63.582031-153.644531-63.582031-50.734375 0-100.113281 17.851562-139.039062 50.269531-1.621094 1.351562-2.597657 3.316406-2.691407 5.425781-.097656 2.105469.699219 4.152344 2.191407 5.644531l197.199218 197.023438c.003906.003906.003906.007812.007813.007812l66.042969 65.984375s.007812.007813.011718.011719l32.1875 32.15625c1.40625 1.410156 3.316406 2.195313 5.300782 2.195313.109374 0 .226562-.003907.339843-.007813 2.101563-.09375 4.070313-1.070313 5.417969-2.6875 32.449219-38.890625 50.320312-88.230469 50.320312-138.925781-.003906-57.988282-22.605468-112.507813-63.644531-153.515625zm-98.175781 171.386719-109.929688-109.828126h102.867188c3.894531 0 7.0625 3.160157 7.0625 7.046876zm73.480469 73.417968-37.0625-37.027344c4.535156-3.410156 10.074219-5.300781 15.898437-5.300781 14.597656 0 26.476563 11.863281 26.476563 26.445313 0 5.820312-1.894531 11.351562-5.3125 15.882812zm31.636719 31.609375-20.960938-20.941406c4.589844-5.476563 7.664062-12.015625 8.949219-19.050781h8.050781c12.164062 0 22.058594-9.894532 22.058594-22.050782v-85.046874c0-20.179688-16.425782-36.59375-36.621094-36.59375h-13.058594c-4.144531 0-7.5 3.355468-7.5 7.5 0 4.144531 3.355469 7.5 7.5 7.5h13.058594c9.277344 0 17.207031 5.867187 20.269531 14.082031l-25.460937-.042969c-12.164063 0-22.0625 9.894531-22.0625 22.050781 0 16.96875 13.816406 30.773438 30.796875 30.773438h18.078125v39.777343c0 3.886719-3.164063 7.046876-7.058594 7.046876h-8.058594c-3.542968-19.28125-20.476562-33.941407-40.78125-33.941407-9.855468 0-19.183594 3.445313-26.574218 9.632813l-10.742188-10.734375v-78.644531h23.535156c4.140625 0 7.5-3.355469 7.5-7.5 0-4.144532-3.359375-7.5-7.5-7.5h-23.535156v-24.125c0-12.15625-9.898438-22.050782-22.0625-22.050782h-117.878906l-53.53125-53.480468c35.164062-26.921876 78.523437-41.65625 123.003906-41.65625 111.539062 0 202.285156 90.660156 202.285156 202.101562 0 44.441406-14.753906 87.765625-41.699218 122.894531zm3.097656-116.816406h-18.078125c-8.710938 0-15.796875-7.078125-15.796875-15.777344 0-3.886719 3.167968-7.046875 7.050781-7.046875l26.824219.039063zm0 0"/><path d="m437.015625 74.914062c-48.351563-48.308593-112.636719-74.914062-181.015625-74.914062s-132.664062 26.605469-181.019531 74.914062c-48.351563 48.308594-74.980469 112.542969-74.980469 180.867188 0 68.320312 26.628906 132.554688 74.980469 180.863281 48.355469 48.308594 112.640625 74.914063 181.019531 74.914063s132.664062-26.605469 181.015625-74.914063c48.355469-48.308593 74.984375-112.542969 74.984375-180.863281 0-68.324219-26.628906-132.558594-74.984375-180.867188zm-10.601563 351.121094c-45.519531 45.480469-106.039062 70.523438-170.414062 70.523438s-124.894531-25.042969-170.414062-70.523438c-45.519532-45.476562-70.585938-105.941406-70.585938-170.253906s25.066406-124.777344 70.585938-170.257812c45.519531-45.476563 106.039062-70.523438 170.414062-70.523438s124.894531 25.046875 170.414062 70.523438c45.519532 45.480468 70.585938 105.945312 70.585938 170.257812s-25.066406 124.777344-70.585938 170.253906zm0 0"/></svg>