<?xml version="1.0" encoding="utf-8"?>
<!-- Generator: Adobe Illustrator 21.0.0, SVG Export Plug-In . SVG Version: 6.00 Build 0)  -->
<svg xmlns="http://www.w3.org/2000/svg" xmlns:xlink="http://www.w3.org/1999/xlink" version="1.1" id="Layer_1" x="0px" y="0px" viewBox="0 0 256 256" style="enable-background:new 0 0 256 256;" xml:space="preserve" width="512" height="512">
<style type="text/css">
	.st0{fill:#6DCC6D;}
	.st1{fill:#E9E9EA;}
	.st2{fill:#FFCD29;}
	.st3{fill:#F45D64;}
	.st4{fill:#F9828B;}
	.st5{fill:#231F20;}
	.st6{fill:#60BAE2;}
</style>
<g id="Layer_14">
	<path class="st0" d="M112.8,106.4h38c6.6,0,12,5.4,12,12v71.6c0,6.6-5.4,12-12,12h-38c-6.6,0-12-5.4-12-12v-71.6   C100.8,111.7,106.2,106.4,112.8,106.4z"/>
	<polygon class="st1" points="149.1,106.4 114.4,106.4 119.8,87.5 143.5,87.5  "/>
	<path class="st0" d="M191.2,126.3l-15.6-43.2c-1.1-3.2-4.2-5.3-7.5-5.3h-62.3c-2.5,0-4.7,1.8-5,4.4c-0.3,2.7,1.7,5,4.3,5.3   c0.2,0,0.3,0,0.5,0H167l15.3,42.3c0.9,2.5,3.7,3.8,6.2,2.9c0.1-0.1,0.3-0.1,0.4-0.2C191.1,131.4,192.1,128.7,191.2,126.3z"/>
	<path class="st2" d="M126.5,58.5h10.4c2.7,0,4.8,2.2,4.8,4.8v0c0,2.7-2.2,4.8-4.8,4.8h-10.4c-2.7,0-4.8-2.2-4.8-4.8v0   C121.7,60.7,123.8,58.5,126.5,58.5z"/>
	<rect x="126.8" y="68.2" class="st2" width="9.7" height="9.7"/>
	<rect x="100.8" y="133" class="st2" width="62" height="42.3"/>
	<path class="st3" d="M128,18.4C67.5,18.4,18.4,67.5,18.4,128S67.5,237.6,128,237.6S237.6,188.5,237.6,128   c0.4-60.1-48-109.2-108.2-109.6C129,18.4,128.5,18.4,128,18.4z M201.5,192.7l-18.9-18.5c-1.2-1.2-2.8-1.8-4.4-1.8l0,0   c-3.4,0-6.2,2.8-6.2,6.2c0,1.7,0.7,3.2,1.8,4.4l18.9,18.5c-40.6,35.7-102.5,31.8-138.2-8.8c-32.6-37-32.6-92.4,0-129.4l13.2,13.2   c1.2,1.2,2.8,1.8,4.4,1.8l0,0c3.4,0,6.2-2.8,6.2-6.2c0-1.7-0.7-3.2-1.8-4.4L63.3,54.5c40.6-35.7,102.5-31.8,138.2,8.8   C234.1,100.3,234.1,155.7,201.5,192.7L201.5,192.7z"/>
	<path class="st4" d="M128,6.8C61.1,6.8,6.8,61.1,6.8,128S61.1,249.2,128,249.2S249.2,194.9,249.2,128   C249.6,61.5,196.1,7.3,129.6,6.8C129.1,6.8,128.5,6.8,128,6.8z M128,237.6c-60.5,0-109.6-49.1-109.6-109.6S67.5,18.4,128,18.4   S237.6,67.5,237.6,128C237.5,188.5,188.5,237.5,128,237.6z"/>
	<path class="st5" d="M150.8,204.4h-38c-8,0-14.5-6.5-14.5-14.5v-71.6c0-8,6.5-14.5,14.5-14.5h38c8,0,14.5,6.5,14.5,14.5v71.6   C165.3,197.9,158.8,204.4,150.8,204.4z M112.8,108.9c-5.2,0-9.5,4.3-9.5,9.5v71.6c0,5.2,4.3,9.5,9.5,9.5h38c5.2,0,9.5-4.3,9.5-9.5   v-71.6c0-5.2-4.3-9.5-9.5-9.5H112.8z"/>
	<path class="st5" d="M149.1,108.9h-34.7c-1.4,0-2.5-1.1-2.5-2.5c0-0.2,0-0.5,0.1-0.7l5.4-18.9c0.3-1.1,1.3-1.8,2.4-1.8h23.7   c1.1,0,2.1,0.7,2.4,1.8l5.6,18.9c0.4,1.3-0.4,2.7-1.7,3.1C149.6,108.8,149.4,108.9,149.1,108.9L149.1,108.9z M117.8,103.9h28   L141.6,90h-19.9L117.8,103.9z"/>
	<path class="st5" d="M186.8,135.5c-3.1,0-5.8-1.9-6.9-4.8L165.2,90h-59.6c-4,0-7.3-3.3-7.3-7.3c0-0.2,0-0.5,0-0.7   c0.5-3.8,3.7-6.6,7.5-6.6h62.3c4.4,0,8.4,2.8,9.9,6.9l15.6,43.2l0,0c1.3,3.6-0.3,7.6-3.7,9.3C188.9,135.2,187.8,135.5,186.8,135.5z    M105.8,80.3c-1.3,0-2.3,0.9-2.5,2.1c-0.1,1.3,0.8,2.4,2.1,2.6c0.1,0,0.2,0,0.2,0H167c1.1,0,2,0.7,2.4,1.7l15.3,42.3   c0.4,1.2,1.8,1.8,3,1.4c0.1,0,0.1-0.1,0.2-0.1c1.1-0.6,1.6-1.9,1.1-3.1l0,0L173.3,84c-0.8-2.2-2.9-3.6-5.2-3.6H105.8z"/>
	<path class="st5" d="M136.9,70.7h-10.4c-4,0-7.3-3.3-7.3-7.3s3.3-7.3,7.3-7.3h10.4c4,0,7.3,3.3,7.3,7.3S140.9,70.7,136.9,70.7z    M126.5,61c-1.3,0-2.3,1-2.3,2.3c0,1.3,1,2.3,2.3,2.3h10.4c1.3,0,2.3-1,2.3-2.3c0-1.3-1-2.3-2.3-2.3L126.5,61z"/>
	<path class="st5" d="M136.5,80.3h-9.7c-1.4,0-2.5-1.1-2.5-2.5v-9.7c0-1.4,1.1-2.5,2.5-2.5h9.7c1.4,0,2.5,1.1,2.5,2.5v9.7   C139,79.2,137.9,80.3,136.5,80.3z M129.3,75.3h4.7v-4.7h-4.7V75.3z"/>
	<path class="st5" d="M109.4,92c-1.4,0-2.5-1.1-2.5-2.5V75.1c0-1.4,1.1-2.5,2.5-2.5s2.5,1.1,2.5,2.5v14.4   C111.9,90.9,110.8,92,109.4,92z"/>
	<path class="st5" d="M92.3,85.1h-8.1c-1.4,0-2.5-1.1-2.5-2.5s1.1-2.5,2.5-2.5h8.1c1.4,0,2.5,1.1,2.5,2.5S93.7,85.1,92.3,85.1z"/>
	<path class="st5" d="M94.3,75.5c-0.6,0-1.2-0.2-1.6-0.6l-7.2-6c-1.1-0.9-1.2-2.5-0.3-3.5s2.5-1.2,3.5-0.3l7.2,6   c1.1,0.9,1.2,2.5,0.3,3.5C95.8,75.2,95.1,75.5,94.3,75.5L94.3,75.5z"/>
	<path class="st5" d="M87.2,100.8c-1.4,0-2.5-1.1-2.5-2.5c0-0.7,0.3-1.4,0.9-1.9l7.2-6c1.1-0.9,2.6-0.8,3.5,0.3s0.8,2.6-0.3,3.5l0,0   l-7.2,6C88.4,100.6,87.8,100.8,87.2,100.8z"/>
	<path class="st0" d="M39.3,234h-1.8v-1.8c0-1.4-1.1-2.5-2.5-2.5s-2.5,1.1-2.5,2.5v1.8h-1.8c-1.4,0-2.5,1.1-2.5,2.5s1.1,2.5,2.5,2.5   h1.8v1.8c0,1.4,1.1,2.5,2.5,2.5s2.5-1.1,2.5-2.5V239h1.8c1.4,0,2.5-1.1,2.5-2.5S40.7,234,39.3,234L39.3,234z"/>
	<path class="st6" d="M227.8,32.4c0-0.2-0.1-0.3-0.1-0.5c-0.1-0.1-0.1-0.3-0.2-0.4c-0.1-0.1-0.2-0.3-0.3-0.4c-1-0.9-2.5-0.9-3.5,0   c-0.1,0.1-0.2,0.2-0.3,0.4c-0.2,0.3-0.3,0.6-0.4,0.9c-0.1,0.3-0.1,0.7,0,1c0,0.2,0.1,0.3,0.1,0.5c0.1,0.2,0.1,0.3,0.2,0.4   c0.1,0.1,0.2,0.3,0.3,0.4c1,1,2.5,1,3.5,0c0,0,0,0,0,0c0.1-0.1,0.2-0.2,0.3-0.4c0.1-0.1,0.2-0.3,0.2-0.4c0.1-0.1,0.1-0.3,0.1-0.5   C227.9,33,227.9,32.7,227.8,32.4z"/>
	<path class="st3" d="M61.3,253c0-0.2-0.1-0.3-0.1-0.5c-0.1-0.1-0.1-0.3-0.2-0.4c-0.1-0.1-0.2-0.3-0.3-0.4c-1-0.9-2.5-0.9-3.5,0   c-0.1,0.1-0.2,0.2-0.3,0.4c-0.2,0.3-0.3,0.6-0.4,0.9c-0.1,0.3-0.1,0.7,0,1c0,0.2,0.1,0.3,0.1,0.5c0.1,0.2,0.1,0.3,0.2,0.4   c0.1,0.1,0.2,0.3,0.3,0.4c1,1,2.5,1,3.5,0c0,0,0,0,0,0c0.1-0.1,0.2-0.2,0.3-0.4c0.1-0.1,0.2-0.3,0.2-0.4c0.1-0.1,0.1-0.3,0.1-0.5   C61.4,253.7,61.4,253.3,61.3,253z"/>
	<path class="st2" d="M225.2,8.2c-4.1-0.8-7.2-4-8-8c0-0.1-0.1-0.2-0.2-0.2c-0.1,0-0.1,0.1-0.2,0.2c-0.8,4.1-4,7.2-8,8   c-0.1,0-0.2,0.1-0.2,0.2c0,0.1,0.1,0.1,0.2,0.2c4.1,0.8,7.2,4,8,8c0,0.1,0.1,0.2,0.2,0.2c0.1,0,0.1-0.1,0.2-0.2c0.8-4.1,4-7.2,8-8   c0.1,0,0.2-0.1,0.2-0.2C225.4,8.2,225.3,8.2,225.2,8.2z"/>
	<path class="st5" d="M162.8,177.8h-62c-1.4,0-2.5-1.1-2.5-2.5V133c0-1.4,1.1-2.5,2.5-2.5h62c1.4,0,2.5,1.1,2.5,2.5v42.3   C165.3,176.7,164.2,177.8,162.8,177.8C162.8,177.8,162.8,177.8,162.8,177.8z M103.3,172.8h57v-37.3h-57V172.8z"/>
	<path class="st5" d="M128,240.1c-61.9,0-112.1-50.2-112.1-112.1C15.9,66.1,66.1,15.9,128,15.9c61.9,0,112.1,50.2,112.1,112.1   C240,189.9,189.9,240,128,240.1z M128,20.9c-59.1,0-107.1,48-107.1,107.1s48,107.1,107.1,107.1s107.1-48,107.1-107.1v0   c0.4-58.8-46.9-106.7-105.7-107.1C128.9,20.9,128.5,20.9,128,20.9z M128.1,228.4c-55.4,0.1-100.5-44.8-100.5-100.3   c0-24.5,8.9-48.1,25.1-66.5c0.5-0.5,1.1-0.8,1.8-0.8c0.7,0,1.4,0.2,1.8,0.7l13.2,13.2c0.7,0.7,1.6,1.1,2.6,1.1   c2.1,0,3.7-1.7,3.7-3.7c0-1-0.4-1.9-1.1-2.6L61.5,56.2c-1-1-1-2.6,0-3.5c0,0,0.1-0.1,0.1-0.1c41.6-36.7,105.1-32.6,141.8,9   c33.4,37.9,33.4,94.8,0,132.7c-0.9,1-2.5,1.1-3.5,0.2c0,0-0.1-0.1-0.1-0.1L180.9,176c-0.7-0.7-1.7-1.1-2.7-1.1   c-2.1,0-3.7,1.7-3.7,3.7c0,1,0.4,1.9,1.1,2.6l18.9,18.4c1,1,1,2.5,0,3.5c0,0-0.1,0.1-0.1,0.1C176.1,219.6,152.5,228.4,128.1,228.4   L128.1,228.4z M54.6,67c-33.7,40.5-28.2,100.7,12.3,134.4c35.4,29.4,86.7,29.4,122.1,0l-16.9-16.6c-3.4-3.4-3.5-8.9-0.1-12.3   s8.9-3.5,12.3-0.1c0,0,0.1,0.1,0.1,0.1l17,16.6c33.7-40.5,28.2-100.7-12.3-134.4c-35.4-29.4-86.7-29.4-122.1,0l11.3,11.3   c3.4,3.4,3.4,8.9,0,12.3s-8.9,3.4-12.3,0l0,0L54.6,67z"/>
	<path class="st5" d="M128,251.7C59.7,251.7,4.3,196.3,4.3,128S59.7,4.3,128,4.3S251.7,59.7,251.7,128   C251.6,196.3,196.3,251.6,128,251.7z M128,9.3C62.5,9.3,9.3,62.5,9.3,128S62.5,246.7,128,246.7S246.7,193.5,246.7,128   c0.4-65.1-52-118.2-117.1-118.7C129,9.3,128.5,9.3,128,9.3z M128,240.1c-61.9,0-112.1-50.2-112.1-112.1   C15.9,66.1,66.1,15.9,128,15.9c61.9,0,112.1,50.2,112.1,112.1C240,189.9,189.9,240,128,240.1z M128,20.9   c-59.1,0-107.1,48-107.1,107.1s48,107.1,107.1,107.1s107.1-48,107.1-107.1v0c0.4-58.8-46.9-106.7-105.7-107.1   C128.9,20.9,128.5,20.9,128,20.9z"/>
</g>
</svg>
