<?xml version="1.0" encoding="iso-8859-1"?>
<!-- Generator: Adobe Illustrator 19.0.0, SVG Export Plug-In . SVG Version: 6.00 Build 0)  -->
<svg version="1.1" id="Capa_1" xmlns="http://www.w3.org/2000/svg" xmlns:xlink="http://www.w3.org/1999/xlink" x="0px" y="0px"
	 viewBox="0 0 512 512" style="enable-background:new 0 0 512 512;" xml:space="preserve">
<path style="fill:#57555C;" d="M352.599,88.5C350.501,89.399,348.4,90,346,90c-5.4,0-10.8-3.001-13.5-8.401L306.7,30H205.3
	l-25.8,51.599c-3.9,7.5-12.9,10.501-20.099,6.901c-7.5-3.9-10.501-12.902-6.901-20.101l30-60C185.2,3.3,190.3,0,196,0h120
	c5.7,0,10.8,3.3,13.5,8.399l30,60C363.1,75.599,360.099,84.6,352.599,88.5z"/>
<path style="fill:#3C3A41;" d="M352.599,88.5C350.501,89.399,348.4,90,346,90c-5.4,0-10.8-3.001-13.5-8.401L306.7,30H256V0h60
	c5.7,0,10.8,3.3,13.5,8.399l30,60C363.1,75.599,360.099,84.6,352.599,88.5z"/>
<path style="fill:#57555C;" d="M424.6,452l-1.5,18.6c-1.8,23.399-21.601,41.4-44.7,41.4H133.599c-23.099,0-42.9-18.001-44.7-41.4
	L87.4,452l27.6-30h282L424.6,452z"/>
<path style="fill:#3C3A41;" d="M424.6,452l-1.5,18.6c-1.8,23.399-21.601,41.4-44.7,41.4H256v-90h141L424.6,452z"/>
<path style="fill:#32D736;" d="M451,106.199L424.6,452H87.4L61,106.199c-0.601-8.1,5.4-15.6,13.801-16.199H437.2
	C445.6,90.599,451.601,98.099,451,106.199z"/>
<path style="fill:#0CA656;" d="M451,106.199L424.6,452H256V90h181.199C445.6,90.599,451.601,98.099,451,106.199z"/>
<path style="fill:#CAE8F9;" d="M231.42,273.813l-10.898-37.207c-2.197-7.476-9.903-11.476-16.157-10.679l-44.121,5.186
	c-8.218,0.967-14.106,8.423-13.14,16.655c0.967,8.218,8.247,14.165,16.655,13.14l11.878-1.397l-21.019,31.529
	c-9.229,13.828-10.093,31.523-2.241,46.187C160.214,351.889,175.434,361,192.06,361H196c8.291,0,15-6.709,15-15s-6.709-15-15-15
	h-3.94c-8.115,0-11.953-5.537-13.228-7.925s-3.75-8.643,0.747-15.396l21.183-31.774l1.859,6.345
	c1.919,6.548,7.91,10.781,14.399,10.781c1.392,0,2.813-0.19,4.219-0.601C229.193,290.102,233.749,281.767,231.42,273.813z"/>
<path style="fill:#57555C;" d="M481,90c0,16.5-13.5,30-30,30H61c-16.5,0-30-13.5-30-30s13.5-30,30-30h390C467.5,60,481,73.5,481,90z
	"/>
<path style="fill:#3C3A41;" d="M481,90c0,16.5-13.5,30-30,30H256V60h195C467.5,60,481,73.5,481,90z"/>
<path style="fill:#CAE8F9;" d="M359.5,337.299C351.7,351.7,337,361,319.9,361h-42.599l4.199,4.499c6,5.7,6,15.3,0,21
	c-5.7,6-15.298,6-20.999,0L256,382l-25.499-25.501C229,355.3,227.8,353.5,227.2,351.7c-1.5-3.6-1.5-7.8,0-11.4
	c0.601-1.8,1.8-3.6,3.301-4.801l30-30c5.7-5.999,15.298-5.999,20.999,0c6,5.7,6,15.3,0,21L277.301,331H319.9
	c5.7,0,10.499-3.001,13.2-7.8c1.8-3.6,2.401-7.8,1.199-11.7c-2.399-7.8,1.8-16.199,9.901-18.6c7.8-2.699,16.199,1.8,18.6,9.6
	C366.7,314.5,365.2,327.1,359.5,337.299z"/>
<path style="fill:#B7E0F6;" d="M260.501,386.499L256,382v-72l4.501-4.501c5.7-5.999,15.298-5.999,20.999,0c6,5.7,6,15.3,0,21
	L277.301,331H319.9c5.7,0,10.499-3.001,13.2-7.8c1.8-3.6,2.401-7.8,1.199-11.7c-2.399-7.8,1.8-16.199,9.901-18.6
	c7.8-2.699,16.199,1.8,18.6,9.6c3.9,12.001,2.401,24.6-3.3,34.799C351.7,351.7,337,361,319.9,361h-42.599l4.199,4.499
	c6,5.7,6,15.3,0,21C275.799,392.5,266.201,392.5,260.501,386.499z"/>
<path style="fill:#CAE8F9;" d="M345.7,226.3l-6.899,44.099v0.3c-1.5,7.8-9.6,14.099-18.6,12.001l-47.1-12.301
	c-7.8-1.8-12.9-10.199-10.8-17.999c2.1-8.101,10.199-12.9,18.3-10.801l9.3,2.1l-21.301-31.8c-2.999-4.499-7.8-6.599-12.599-6.599
	s-9.6,2.1-12.599,6.599c-4.501,6.601-13.801,8.701-20.7,3.9c-6.901-4.499-8.701-13.799-4.2-20.7c8.401-12.599,23.101-18.9,37.5-18.9
	c14.399,0,29.099,6.301,37.5,18.9l21.599,32.701l0.901-6.301c1.5-8.101,9-13.5,17.401-12.299
	C341.499,210.399,347.199,218.2,345.7,226.3z"/>
<path style="fill:#B7E0F6;" d="M268.599,211.899c-2.999-4.499-7.8-6.599-12.599-6.599v-29.101c14.399,0,29.099,6.301,37.5,18.9
	l21.599,32.701l0.901-6.301c1.5-8.101,9-13.5,17.401-12.299c8.099,1.199,13.799,9,12.299,17.1l-6.899,44.099v0.3
	c-1.5,7.8-9.6,14.099-18.6,12.001l-47.1-12.301c-7.8-1.8-12.9-10.199-10.8-17.999c2.1-8.101,10.199-12.9,18.3-10.801l9.3,2.1
	L268.599,211.899z"/>
<g>
</g>
<g>
</g>
<g>
</g>
<g>
</g>
<g>
</g>
<g>
</g>
<g>
</g>
<g>
</g>
<g>
</g>
<g>
</g>
<g>
</g>
<g>
</g>
<g>
</g>
<g>
</g>
<g>
</g>
</svg>
