<svg xmlns="http://www.w3.org/2000/svg" height="598pt" version="1.1" viewBox="1 -9 598.703 598" width="598pt">
<g id="surface1">
<path d="M 588.25 390.324219 C 594.105469 363.386719 577.011719 336.800781 550.074219 330.945312 C 546.589844 330.1875 543.035156 329.808594 539.46875 329.808594 L 519.8125 329.808594 L 529.117188 190.042969 C 528.9375 162.472656 506.441406 140.273438 478.871094 140.453125 C 451.304688 140.636719 429.101562 163.132812 429.285156 190.699219 L 438.578125 329.808594 L 390.03125 329.808594 L 399.335938 190.042969 C 399.152344 162.472656 376.65625 140.273438 349.089844 140.453125 C 321.519531 140.636719 299.320312 163.132812 299.5 190.699219 L 302.144531 229.976562 L 179.699219 229.976562 L 179.699219 190.042969 L 209.648438 190.042969 C 248.226562 190 279.488281 158.738281 279.53125 120.160156 C 279.53125 114.644531 275.0625 110.175781 269.550781 110.175781 L 229.617188 110.175781 C 210.816406 110.175781 192.8125 117.769531 179.699219 131.242188 L 179.699219 70.242188 L 199.667969 70.242188 C 232.734375 70.207031 259.535156 43.410156 259.566406 10.339844 C 259.566406 4.828125 255.097656 0.359375 249.582031 0.359375 L 219.632812 0.359375 C 186.566406 0.390625 159.765625 27.1875 159.734375 60.257812 L 159.734375 91.304688 C 146.621094 77.835938 128.617188 70.238281 109.816406 70.242188 L 79.867188 70.242188 C 74.351562 70.242188 69.882812 74.710938 69.882812 80.222656 C 69.929688 118.800781 101.191406 150.0625 139.765625 150.105469 L 159.734375 150.105469 L 159.734375 229.972656 L 9.984375 229.972656 C 4.46875 229.972656 0 234.441406 0 239.957031 L 0 279.890625 C 0 285.402344 4.46875 289.871094 9.984375 289.871094 L 25.957031 289.871094 L 58.621094 559.421875 L 9.984375 559.421875 L 9.984375 579.390625 L 153.175781 579.390625 C 172.511719 579.421875 191.367188 573.378906 207.085938 562.117188 L 212.816406 558.027344 C 235.707031 541.769531 265.882812 540.058594 290.464844 553.625 C 320.804688 570.574219 358.09375 569.066406 386.964844 549.71875 L 416.804688 529.824219 C 442.175781 513.003906 475.320312 513.679688 499.988281 531.519531 L 538.921875 559.863281 C 556.359375 572.601562 577.40625 579.441406 599.003906 579.390625 L 599.003906 559.421875 C 583.144531 559.386719 567.648438 554.71875 554.40625 545.996094 Z M 229.617188 130.140625 L 258.566406 130.140625 C 253.796875 153.367188 233.363281 170.046875 209.648438 170.074219 L 180.699219 170.074219 C 185.472656 146.84375 205.902344 130.167969 229.617188 130.140625 Z M 139.765625 130.140625 C 116.054688 130.113281 95.621094 113.433594 90.847656 90.207031 L 109.816406 90.207031 C 133.53125 90.234375 153.960938 106.914062 158.734375 130.140625 Z M 219.632812 20.324219 L 238.34375 20.324219 C 233.761719 37.941406 217.867188 50.246094 199.667969 50.273438 L 180.957031 50.273438 C 185.539062 32.65625 201.429688 20.351562 219.632812 20.324219 Z M 449.25 190.039062 C 449.066406 173.5 462.328125 159.941406 478.871094 159.761719 C 495.414062 159.578125 508.96875 172.839844 509.148438 189.382812 L 499.816406 329.808594 L 458.582031 329.808594 Z M 349.417969 160.089844 C 365.714844 160.054688 379.039062 173.085938 379.367188 189.378906 L 370.03125 329.808594 L 328.800781 329.808594 L 319.464844 190.039062 C 319.464844 173.5 332.875 160.089844 349.417969 160.089844 Z M 19.96875 249.941406 L 303.492188 249.941406 L 304.820312 269.90625 L 19.96875 269.90625 Z M 201.214844 541.773438 L 195.484375 545.867188 C 183.148438 554.707031 168.351562 559.449219 153.175781 559.421875 L 78.726562 559.421875 L 46.054688 289.875 L 306.140625 289.875 L 308.792969 329.808594 L 279.53125 329.808594 C 251.976562 329.839844 229.648438 352.167969 229.617188 379.722656 L 229.617188 528.355469 C 219.449219 531.160156 209.835938 535.699219 201.214844 541.773438 Z M 249.582031 524.761719 L 249.582031 379.722656 C 249.582031 363.183594 262.992188 349.773438 279.535156 349.773438 L 419.300781 349.773438 C 435.839844 349.773438 449.25 363.183594 449.25 379.722656 L 449.25 498.265625 C 438.914062 499.089844 428.789062 501.644531 419.300781 505.824219 L 419.300781 429.640625 C 419.300781 413.097656 405.890625 399.691406 389.351562 399.691406 C 372.808594 399.691406 359.402344 413.097656 359.402344 429.640625 L 359.402344 541.222656 C 352.96875 543.496094 346.246094 544.839844 339.433594 545.21875 L 339.433594 429.640625 C 339.433594 413.097656 326.023438 399.691406 309.484375 399.691406 C 292.941406 399.691406 279.535156 413.097656 279.535156 429.640625 L 279.535156 528.007812 C 269.792969 525.308594 259.675781 524.214844 249.582031 524.761719 Z M 299.5 535.863281 L 299.5 429.640625 C 299.5 424.125 303.96875 419.65625 309.484375 419.65625 C 314.996094 419.65625 319.464844 424.125 319.464844 429.640625 L 319.464844 543.539062 C 312.71875 542.007812 306.222656 539.527344 300.167969 536.171875 C 299.949219 536.054688 299.71875 535.984375 299.5 535.863281 Z M 379.367188 530.78125 L 379.367188 429.640625 C 379.367188 424.125 383.835938 419.65625 389.347656 419.65625 C 394.863281 419.65625 399.332031 424.125 399.332031 429.640625 L 399.332031 517.492188 Z M 469.21875 498.695312 L 469.21875 379.722656 C 469.179688 368.886719 465.582031 358.363281 458.972656 349.773438 L 539.46875 349.773438 C 556.011719 349.773438 569.421875 363.179688 569.421875 379.71875 C 569.421875 381.859375 569.195312 383.992188 568.738281 386.082031 L 536.683594 533.527344 L 511.726562 515.375 C 499.179688 506.339844 484.5625 500.601562 469.21875 498.695312 Z M 469.21875 498.695312 " style=" stroke:none;fill-rule:nonzero;fill:rgb(0%,0%,0%);fill-opacity:1;" />
<path d="M 509.859375 366.027344 L 497.308594 397.402344 C 494.375 404.832031 487.1875 409.703125 479.199219 409.671875 L 479.199219 429.640625 C 495.355469 429.691406 509.894531 419.847656 515.847656 404.832031 L 528.410156 373.453125 Z M 509.859375 366.027344 " style=" stroke:none;fill-rule:nonzero;fill:rgb(0%,0%,0%);fill-opacity:1;" />
<path d="M 349.417969 0.355469 L 369.382812 0.355469 L 369.382812 20.324219 L 349.417969 20.324219 Z M 349.417969 0.355469 " style=" stroke:none;fill-rule:nonzero;fill:rgb(0%,0%,0%);fill-opacity:1;" />
<path d="M 369.382812 20.324219 L 389.351562 20.324219 L 389.351562 40.289062 L 369.382812 40.289062 Z M 369.382812 20.324219 " style=" stroke:none;fill-rule:nonzero;fill:rgb(0%,0%,0%);fill-opacity:1;" />
<path d="M 349.417969 40.289062 L 369.382812 40.289062 L 369.382812 60.257812 L 349.417969 60.257812 Z M 349.417969 40.289062 " style=" stroke:none;fill-rule:nonzero;fill:rgb(0%,0%,0%);fill-opacity:1;" />
<path d="M 329.449219 20.324219 L 349.417969 20.324219 L 349.417969 40.289062 L 329.449219 40.289062 Z M 329.449219 20.324219 " style=" stroke:none;fill-rule:nonzero;fill:rgb(0%,0%,0%);fill-opacity:1;" />
<path d="M 469.21875 20.324219 L 489.183594 20.324219 L 489.183594 40.289062 L 469.21875 40.289062 Z M 469.21875 20.324219 " style=" stroke:none;fill-rule:nonzero;fill:rgb(0%,0%,0%);fill-opacity:1;" />
<path d="M 399.332031 90.207031 L 419.300781 90.207031 L 419.300781 110.171875 L 399.332031 110.171875 Z M 399.332031 90.207031 " style=" stroke:none;fill-rule:nonzero;fill:rgb(0%,0%,0%);fill-opacity:1;" />
<path d="M 559.066406 60.257812 L 579.035156 60.257812 L 579.035156 80.222656 L 559.066406 80.222656 Z M 559.066406 60.257812 " style=" stroke:none;fill-rule:nonzero;fill:rgb(0%,0%,0%);fill-opacity:1;" />
<path d="M 579.035156 80.222656 L 599 80.222656 L 599 100.191406 L 579.035156 100.191406 Z M 579.035156 80.222656 " style=" stroke:none;fill-rule:nonzero;fill:rgb(0%,0%,0%);fill-opacity:1;" />
<path d="M 559.066406 100.191406 L 579.035156 100.191406 L 579.035156 120.15625 L 559.066406 120.15625 Z M 559.066406 100.191406 " style=" stroke:none;fill-rule:nonzero;fill:rgb(0%,0%,0%);fill-opacity:1;" />
<path d="M 539.101562 80.222656 L 559.066406 80.222656 L 559.066406 100.191406 L 539.101562 100.191406 Z M 539.101562 80.222656 " style=" stroke:none;fill-rule:nonzero;fill:rgb(0%,0%,0%);fill-opacity:1;" />
</g>
</svg>